{"glyphs":{"0":{"ha":682,"x_min":63,"x_max":620,"o":"m 341 -12 q 133 78 203 -12 q 63 320 63 169 l 63 804 q 132 1047 63 959 q 341 1135 200 1135 q 551 1047 481 1135 q 620 804 620 958 l 620 320 q 550 78 620 168 q 341 -12 480 -12 m 212 319 q 341 110 212 110 q 470 319 470 110 l 470 805 q 465 885 470 850 q 446 950 460 919 q 406 997 433 981 q 341 1014 380 1014 q 276 997 302 1014 q 236 950 250 981 q 217 885 222 919 q 212 805 212 850 l 212 319 z "},"1":{"ha":649,"x_min":113,"x_max":457,"o":"m 309 0 l 309 931 q 297 927 308 930 q 268 921 286 924 q 231 912 251 917 q 190 904 210 908 q 152 897 169 901 q 124 892 136 894 l 113 890 l 113 1002 q 345 1124 284 1046 l 457 1124 l 457 0 l 309 0 z "},"2":{"ha":664,"x_min":56,"x_max":614,"o":"m 56 0 l 56 106 l 342 552 q 373 598 351 566 q 402 645 394 631 q 426 688 411 659 q 447 736 441 716 q 458 786 453 757 q 464 846 464 815 q 352 1013 464 1013 q 218 806 218 1013 l 218 768 l 70 768 l 70 806 q 135 1050 70 965 q 344 1135 200 1135 q 546 1059 478 1135 q 614 844 614 983 q 606 753 614 795 q 578 670 598 712 q 545 605 559 629 q 499 533 530 581 q 490 519 493 524 l 232 125 l 587 125 l 587 0 l 56 0 z "},"3":{"ha":648,"x_min":55,"x_max":608,"o":"m 330 -12 q 125 64 195 -12 q 55 277 55 140 l 55 314 l 203 314 l 203 290 q 210 218 204 248 q 229 162 216 188 q 268 123 242 136 q 330 111 293 111 q 385 120 362 111 q 422 148 408 130 q 445 192 437 165 q 456 249 453 219 q 459 318 459 278 q 425 467 459 413 q 313 526 391 520 q 292 526 307 526 l 292 675 l 311 675 q 425 716 391 677 q 459 846 459 755 q 431 971 459 928 q 332 1014 404 1014 q 269 1001 294 1014 q 230 962 243 988 q 210 906 216 937 q 203 833 204 876 l 203 810 l 55 810 l 55 848 q 125 1060 55 984 q 332 1135 196 1135 q 538 1059 468 1135 q 608 846 608 983 q 566 685 608 747 q 448 600 523 623 q 566 504 524 576 q 608 318 608 431 q 541 75 608 161 q 330 -12 474 -12 z "},"4":{"ha":682,"x_min":56,"x_max":654,"o":"m 205 437 l 380 437 l 380 937 l 205 437 m 380 0 l 380 296 l 56 296 l 56 461 l 345 1125 l 529 1125 l 529 437 l 654 437 l 654 296 l 529 296 l 529 0 l 380 0 z "},"5":{"ha":661,"x_min":65,"x_max":617,"o":"m 338 -12 q 128 71 191 -12 q 65 315 65 154 l 214 315 q 216 254 214 281 q 226 198 218 227 q 247 151 234 170 q 284 119 260 132 q 340 107 308 107 q 385 114 366 107 q 418 133 405 121 q 441 165 432 144 q 456 205 451 185 q 464 255 461 224 q 468 311 467 286 q 469 374 469 336 q 466 459 469 425 q 456 525 464 492 q 435 575 449 557 q 398 605 421 593 q 342 616 375 616 q 267 589 299 616 q 217 523 234 562 l 90 523 l 90 1124 l 575 1124 l 575 977 l 224 977 l 216 665 q 378 728 275 728 q 492 703 444 728 q 566 633 539 679 q 605 528 593 587 q 617 395 617 470 q 609 263 617 322 q 582 152 602 205 q 532 64 563 100 q 451 9 500 29 q 338 -12 402 -12 z "},"6":{"ha":680,"x_min":75,"x_max":630,"o":"m 351 111 q 413 127 387 111 q 453 173 439 143 q 474 238 467 202 q 480 319 480 274 q 480 375 480 354 q 477 426 479 395 q 469 473 474 456 q 455 511 465 490 q 432 542 446 531 q 398 559 418 552 q 351 567 378 567 q 275 545 308 567 q 223 490 242 522 l 223 322 q 351 111 223 111 m 351 -12 q 226 16 280 -12 q 140 96 172 45 q 91 212 107 146 q 75 357 75 278 l 75 736 q 89 891 75 822 q 133 1016 102 960 q 219 1104 163 1073 q 351 1135 275 1135 q 553 1064 482 1135 q 627 861 623 994 q 627 853 627 859 q 627 845 627 848 l 478 845 q 450 972 478 930 q 352 1013 422 1013 q 223 772 223 1013 l 223 602 q 289 659 246 637 q 388 680 331 680 q 485 664 443 680 q 554 622 526 649 q 598 553 581 594 q 623 463 616 511 q 630 355 630 415 q 621 238 630 292 q 590 137 611 184 q 536 58 568 91 q 457 6 505 25 q 351 -12 410 -12 z "},"7":{"ha":534,"x_min":38,"x_max":487,"o":"m 136 0 l 339 1008 l 38 1008 l 38 1124 l 487 1124 l 487 1053 l 279 0 l 136 0 z "},"8":{"ha":664,"x_min":55,"x_max":610,"o":"m 333 661 q 390 677 366 661 q 426 723 414 694 q 444 783 438 751 q 449 853 449 814 q 421 974 449 928 q 333 1019 393 1019 q 243 974 271 1019 q 216 853 216 928 q 221 783 216 814 q 239 723 227 751 q 275 677 251 694 q 333 661 299 661 m 266 121 q 280 113 266 121 q 333 106 294 106 q 399 121 372 106 q 441 167 427 137 q 461 232 455 197 q 467 314 467 267 q 455 415 467 372 q 413 488 444 458 q 333 519 382 519 q 268 502 295 519 q 226 455 241 485 q 204 391 211 426 q 197 314 197 356 q 203 231 197 267 q 224 166 210 196 q 266 121 239 136 m 333 -12 q 121 73 186 -12 q 55 317 55 157 q 91 488 55 424 q 195 593 126 551 q 69 845 69 676 q 135 1059 69 983 q 333 1135 200 1135 q 529 1059 465 1135 q 594 845 594 983 q 470 593 594 675 q 574 486 538 550 q 610 317 610 422 q 544 73 610 157 q 333 -12 479 -12 z "},"9":{"ha":680,"x_min":61,"x_max":616,"o":"m 340 557 q 467 634 422 557 l 467 802 q 340 1013 467 1013 q 278 997 304 1013 q 238 950 252 980 q 217 885 224 920 q 211 805 211 849 q 211 748 211 769 q 214 698 212 728 q 222 651 217 668 q 236 613 227 633 q 259 583 245 593 q 293 565 273 572 q 340 557 313 557 m 340 -12 q 138 60 209 -12 q 64 267 66 132 q 64 279 64 269 l 213 279 q 241 152 213 193 q 341 111 269 111 q 467 352 467 111 l 467 522 q 302 445 419 445 q 187 468 235 445 q 112 535 139 490 q 73 636 85 579 q 61 769 61 693 q 77 913 61 848 q 125 1028 92 978 q 212 1107 157 1079 q 340 1135 267 1135 q 465 1107 411 1135 q 551 1028 519 1078 q 600 911 584 977 q 616 767 616 846 l 616 389 q 608 263 616 320 q 580 154 600 205 q 529 66 560 102 q 450 9 498 30 q 340 -12 402 -12 z "}," ":{"ha":317,"x_min":0,"x_max":0,"o":""},"!":{"ha":288,"x_min":69,"x_max":219,"o":"m 117 241 l 69 1124 l 219 1124 l 170 241 l 117 241 m 69 0 l 69 153 l 219 153 l 219 0 l 69 0 z "},"\"":{"ha":528,"x_min":119,"x_max":459,"o":"m 326 780 l 326 1124 l 459 1124 l 406 780 l 326 780 m 119 780 l 119 1124 l 252 1124 l 199 780 l 119 780 z "},"#":{"ha":675,"x_min":44,"x_max":633,"o":"m 269 513 l 393 513 l 413 649 l 289 649 l 269 513 m 47 0 l 104 402 l 44 402 l 44 513 l 121 513 l 140 649 l 47 649 l 47 761 l 156 761 l 209 1124 l 357 1124 l 304 761 l 429 761 l 481 1124 l 629 1124 l 576 761 l 633 761 l 633 649 l 562 649 l 541 513 l 629 513 l 629 402 l 525 402 l 467 0 l 319 0 l 376 402 l 253 402 l 195 0 l 47 0 z "},"$":{"ha":682,"x_min":54,"x_max":622,"o":"m 342 -106 l 342 -12 q 134 78 205 -9 q 54 315 62 165 l 193 353 q 353 111 208 111 q 445 145 413 111 q 476 243 476 178 q 468 309 476 279 q 440 366 459 339 q 403 411 420 393 q 354 459 386 429 l 165 627 q 82 735 109 678 q 56 876 56 793 q 124 1063 56 995 q 310 1135 192 1131 l 310 1227 l 358 1227 l 358 1135 q 533 1055 474 1126 q 604 844 591 984 l 471 808 q 464 873 469 844 q 448 930 459 901 q 422 977 437 959 q 380 1005 406 995 q 321 1014 355 1016 q 197 890 197 1005 q 214 808 197 841 q 271 738 231 774 l 460 570 q 578 428 534 504 q 622 256 622 352 q 558 72 622 142 q 390 -10 495 1 l 390 -106 l 342 -106 z "},"%":{"ha":1238,"x_min":50,"x_max":1187,"o":"m 401 0 l 711 1126 l 839 1126 l 530 0 l 401 0 m 970 -7 q 752 254 752 -7 l 752 341 q 803 534 752 469 q 970 599 854 599 q 1136 536 1084 599 q 1187 348 1187 473 l 1187 250 q 1135 59 1187 124 q 970 -7 1083 -7 m 970 105 q 1013 117 996 105 q 1038 150 1029 128 q 1049 195 1046 172 q 1053 249 1053 218 l 1053 349 q 1049 402 1053 380 q 1038 445 1046 425 q 1013 475 1030 465 q 970 486 996 486 q 926 475 943 486 q 901 444 909 465 q 890 401 893 423 q 888 347 888 379 l 888 248 q 891 194 888 217 q 903 149 895 170 q 928 117 911 128 q 970 105 945 105 m 268 528 q 50 789 50 528 l 50 876 q 101 1069 50 1004 q 268 1134 153 1134 q 435 1071 383 1134 q 486 884 486 1008 l 486 785 q 268 528 486 528 m 268 640 q 311 652 294 640 q 337 685 328 663 q 348 730 345 707 q 351 785 351 753 l 351 884 q 350 927 351 909 q 343 964 348 946 q 329 995 338 983 q 304 1014 319 1006 q 268 1021 289 1021 q 224 1010 241 1021 q 199 979 208 1000 q 189 936 191 958 q 186 882 186 914 l 186 783 q 189 729 186 752 q 201 684 193 705 q 226 652 209 663 q 268 640 243 640 z "},"&":{"ha":842,"x_min":80,"x_max":764,"o":"m 338 640 q 419 773 385 694 q 452 926 452 852 q 428 990 452 966 q 362 1013 404 1013 q 293 976 316 1013 q 271 886 271 939 q 338 640 271 791 m 324 111 q 475 194 406 111 l 303 459 q 249 358 269 416 q 229 241 229 300 q 252 148 229 184 q 324 111 274 111 m 324 -12 q 145 58 210 -12 q 80 241 80 127 q 124 417 80 338 q 244 565 168 496 q 213 624 234 585 q 179 688 191 663 q 151 748 166 713 q 129 818 136 783 q 122 886 122 852 q 187 1067 122 999 q 362 1135 252 1135 q 533 1079 466 1135 q 601 926 601 1022 q 582 821 601 874 q 528 718 563 767 q 463 634 494 669 q 391 559 431 598 l 560 292 q 615 517 598 368 l 763 517 q 730 350 763 439 q 654 199 697 260 q 703 158 673 174 q 764 141 732 141 l 764 -11 q 744 -12 757 -12 q 714 -8 729 -12 q 689 -1 700 -5 q 664 12 678 3 q 642 25 649 21 q 621 43 635 30 q 602 61 606 57 q 583 80 598 64 q 566 98 567 96 q 464 18 526 47 q 324 -12 403 -12 z "},"'":{"ha":509,"x_min":119,"x_max":252,"o":"m 119 780 l 119 1124 l 252 1124 l 199 780 l 119 780 z "},"(":{"ha":414,"x_min":102,"x_max":372,"o":"m 372 -269 q 274 -246 317 -269 q 202 -190 231 -223 q 154 -98 174 -157 q 124 12 134 -38 q 109 146 115 62 q 103 284 104 229 q 102 431 102 339 q 103 579 102 524 q 109 718 104 634 q 124 852 115 802 q 154 963 134 903 q 202 1056 174 1023 q 274 1112 231 1088 q 372 1135 317 1135 l 372 1035 q 318 1012 341 1034 q 282 941 296 990 q 260 847 269 891 q 249 720 252 802 q 245 588 245 637 q 244 444 244 539 q 244 440 244 441 q 244 436 244 438 q 244 431 244 433 q 244 414 244 426 q 245 270 244 319 q 249 140 245 221 q 260 14 252 58 q 282 -78 269 -30 q 318 -148 296 -127 q 372 -170 341 -170 l 372 -269 z "},")":{"ha":361,"x_min":41,"x_max":312,"o":"m 41 -269 l 41 -170 q 95 -147 72 -169 q 132 -75 118 -125 q 153 19 145 -26 q 165 145 161 63 q 169 277 168 228 q 170 421 170 326 q 170 434 170 430 q 170 451 170 439 q 169 595 170 546 q 165 726 168 644 q 153 851 161 807 q 132 944 145 895 q 95 1014 118 992 q 41 1036 72 1035 l 41 1135 q 140 1112 96 1135 q 211 1056 183 1089 q 259 964 239 1023 q 289 854 279 904 q 304 720 299 804 q 311 582 310 636 q 312 434 312 527 q 312 319 312 363 q 309 209 311 276 q 301 100 306 142 q 287 2 296 58 q 264 -88 277 -53 q 230 -160 250 -123 q 182 -219 209 -198 q 120 -255 156 -241 q 41 -269 84 -269 z "},"*":{"ha":553,"x_min":63,"x_max":526,"o":"m 205 651 l 117 704 l 227 858 l 63 921 l 98 1015 l 255 932 l 239 1123 l 351 1123 l 334 932 l 491 1015 l 526 921 l 362 857 l 473 704 l 384 651 l 294 825 l 205 651 z "},"+":{"ha":576,"x_min":35,"x_max":542,"o":"m 229 294 l 229 522 l 35 522 l 35 633 l 229 633 l 229 860 l 340 860 l 340 633 l 542 633 l 542 522 l 340 522 l 340 294 l 229 294 z "},",":{"ha":259,"x_min":55,"x_max":210,"o":"m 79 -182 l 55 -118 q 114 -74 93 -106 q 136 0 136 -43 l 56 0 l 56 159 l 210 159 l 210 3 q 178 -114 210 -70 q 79 -182 146 -159 z "},"-":{"ha":446,"x_min":68,"x_max":378,"o":"m 68 363 l 68 475 l 378 475 l 378 363 l 68 363 z "},".":{"ha":262,"x_min":68,"x_max":217,"o":"m 68 0 l 68 165 l 217 165 l 217 0 l 68 0 z "},"/":{"ha":513,"x_min":40,"x_max":472,"o":"m 40 0 l 343 1124 l 472 1124 l 168 0 l 40 0 z "},":":{"ha":273,"x_min":83,"x_max":233,"o":"m 83 576 l 83 734 l 233 734 l 233 576 l 83 576 m 83 134 l 83 292 l 233 292 l 233 134 l 83 134 z "},";":{"ha":299,"x_min":81,"x_max":236,"o":"m 82 619 l 82 785 l 231 785 l 231 619 l 82 619 m 105 -64 l 81 1 q 161 95 161 7 l 82 95 l 82 252 l 236 252 l 236 98 q 205 -20 236 20 q 105 -64 174 -61 z "},"<":{"ha":518,"x_min":41,"x_max":438,"o":"m 438 50 l 41 330 l 41 479 l 438 762 l 438 613 l 153 406 l 438 199 l 438 50 z "},"=":{"ha":576,"x_min":75,"x_max":501,"o":"m 75 633 l 75 747 l 501 747 l 501 633 l 75 633 m 75 388 l 75 500 l 501 500 l 501 388 l 75 388 z "},">":{"ha":518,"x_min":80,"x_max":479,"o":"m 80 50 l 80 199 l 366 407 l 80 613 l 80 762 l 479 481 l 479 332 l 80 50 z "},"?":{"ha":676,"x_min":81,"x_max":619,"o":"m 218 0 l 218 153 l 367 153 l 367 0 l 218 0 m 224 281 l 224 454 q 320 544 281 505 q 397 635 359 584 q 455 741 435 686 q 474 854 474 795 q 436 966 474 922 q 336 1009 398 1009 q 242 971 273 1009 q 222 871 212 934 l 229 822 l 91 796 l 81 844 q 129 1059 56 978 q 338 1139 201 1139 q 545 1063 471 1139 q 619 850 619 987 q 603 733 619 787 q 547 625 587 680 q 478 539 506 570 q 386 445 450 509 q 357 416 367 426 l 357 281 l 224 281 z "},"@":{"ha":1256,"x_min":81,"x_max":1196,"o":"m 623 253 q 687 295 658 258 q 729 399 717 332 l 777 722 q 739 730 759 730 q 634 684 684 730 q 554 558 585 638 q 524 387 524 478 q 549 282 524 321 q 623 253 575 243 m 652 -186 q 469 -164 554 -186 q 312 -96 383 -142 q 189 18 240 -50 q 110 180 138 85 q 81 391 81 275 q 112 659 81 538 q 197 866 142 780 q 331 1010 252 951 q 504 1096 409 1068 q 709 1124 599 1124 q 890 1095 808 1124 q 1028 1015 972 1065 q 1123 895 1084 964 q 1179 748 1162 825 q 1196 585 1196 670 q 1154 360 1195 462 q 1037 197 1114 258 q 863 136 961 136 q 765 171 804 136 q 725 264 727 205 q 681 179 713 214 q 593 138 648 143 q 478 167 526 132 q 408 259 430 201 q 385 388 385 317 q 410 546 385 466 q 476 691 434 626 q 581 798 518 757 q 714 840 644 840 q 761 829 736 840 q 804 804 786 818 l 818 827 l 926 827 l 847 317 q 843 279 844 292 q 844 250 842 266 q 854 227 846 234 q 879 220 863 220 q 984 267 937 220 q 1059 394 1032 314 q 1087 570 1086 475 q 1075 706 1088 642 q 1031 826 1061 770 q 956 922 1000 882 q 846 985 911 962 q 700 1008 780 1008 q 349 842 481 1008 q 217 397 217 677 q 250 190 217 280 q 343 43 283 100 q 484 -42 403 -14 q 666 -71 566 -71 q 918 -33 785 -71 l 944 -141 q 652 -186 789 -186 z "},"A":{"ha":683,"x_min":26,"x_max":657,"o":"m 248 395 l 436 395 l 342 903 l 248 395 m 26 0 l 266 1124 l 417 1124 l 657 0 l 508 0 l 456 283 l 228 283 l 174 0 l 26 0 z "},"B":{"ha":728,"x_min":88,"x_max":676,"o":"m 245 655 l 337 655 q 472 698 434 655 q 509 843 509 741 q 505 901 509 876 q 492 943 500 926 q 470 973 485 961 q 439 992 454 985 q 396 1003 423 999 q 345 1007 370 1006 q 281 1008 320 1008 l 245 1008 l 245 655 m 245 113 l 351 113 q 490 160 452 113 q 527 321 527 208 q 483 483 527 429 q 338 536 438 536 l 245 536 l 245 113 m 88 0 l 88 1124 l 345 1124 q 572 1056 498 1124 q 646 843 646 987 q 485 606 646 628 q 630 512 585 581 q 676 321 676 442 q 605 85 676 170 q 387 0 534 0 l 88 0 z "},"C":{"ha":715,"x_min":67,"x_max":652,"o":"m 369 -12 q 246 7 299 -12 q 160 58 193 26 q 105 139 126 91 q 75 241 83 188 q 67 361 67 295 l 67 759 q 76 886 67 830 q 105 989 84 941 q 160 1069 126 1038 q 247 1118 194 1100 q 369 1135 299 1135 q 587 1053 521 1135 q 652 812 652 971 l 652 722 l 504 722 l 504 802 q 504 842 504 827 q 502 878 503 857 q 498 912 501 900 q 491 941 496 924 q 480 966 487 957 q 463 986 473 975 q 440 1001 453 996 q 410 1010 427 1006 q 370 1013 392 1013 q 313 1006 338 1013 q 273 984 289 999 q 248 950 258 968 q 233 903 238 932 q 227 847 229 874 q 225 781 225 821 l 225 336 q 257 160 225 210 q 370 111 289 111 q 424 117 401 111 q 461 140 447 124 q 485 172 476 155 q 498 218 494 189 q 503 271 502 247 q 504 335 504 296 l 504 418 l 652 418 l 652 334 q 644 219 652 270 q 616 124 636 168 q 565 50 597 79 q 484 4 533 21 q 369 -12 434 -12 z "},"D":{"ha":732,"x_min":88,"x_max":665,"o":"m 88 0 l 88 1124 l 332 1124 q 590 1042 515 1124 q 665 781 665 959 l 665 368 q 590 91 665 182 q 344 0 516 0 l 88 0 m 245 113 l 333 113 q 396 120 369 113 q 442 137 424 127 q 473 168 460 146 q 492 208 486 190 q 502 262 498 227 q 506 324 505 298 q 507 397 507 349 l 507 763 q 505 831 507 804 q 500 887 504 859 q 488 932 496 915 q 467 966 479 950 q 435 990 454 982 q 390 1004 416 999 q 330 1008 364 1008 l 245 1008 l 245 113 z "},"E":{"ha":566,"x_min":88,"x_max":527,"o":"m 88 0 l 88 1124 l 524 1124 l 524 1008 l 245 1008 l 245 637 l 471 637 l 471 525 l 245 525 l 245 113 l 527 113 l 527 0 l 88 0 z "},"F":{"ha":543,"x_min":88,"x_max":522,"o":"m 88 0 l 88 1124 l 522 1124 l 522 1012 l 245 1012 l 245 638 l 460 638 l 460 526 l 245 526 l 245 0 l 88 0 z "},"G":{"ha":743,"x_min":67,"x_max":670,"o":"m 356 -14 q 135 83 203 -14 q 67 369 67 180 l 67 745 q 76 881 67 823 q 105 989 84 939 q 159 1069 125 1038 q 245 1118 193 1101 q 368 1135 298 1135 q 593 1056 524 1135 q 661 806 661 977 l 661 765 l 514 765 l 514 800 q 511 879 514 848 q 500 937 509 909 q 476 980 492 965 q 434 1004 460 996 q 370 1013 408 1013 q 319 1007 341 1013 q 281 990 296 1000 q 255 961 265 979 q 238 924 244 942 q 229 878 232 906 q 224 827 225 850 q 224 769 224 804 l 224 353 q 255 167 224 223 q 374 111 286 111 q 495 172 463 111 q 528 368 528 233 l 528 446 l 385 446 l 385 557 l 670 557 l 670 0 l 570 0 l 555 130 q 356 -14 505 -14 z "},"H":{"ha":779,"x_min":88,"x_max":690,"o":"m 88 0 l 88 1124 l 245 1124 l 245 639 l 534 639 l 534 1124 l 690 1124 l 690 0 l 534 0 l 534 527 l 245 527 l 245 0 l 88 0 z "},"I":{"ha":344,"x_min":96,"x_max":250,"o":"m 96 0 l 96 1124 l 250 1124 l 250 0 l 96 0 z "},"J":{"ha":418,"x_min":9,"x_max":330,"o":"m 9 -26 l 9 86 q 93 93 63 86 q 142 119 123 99 q 167 170 161 138 q 173 256 173 201 l 173 1124 l 330 1124 l 330 254 q 318 128 330 178 q 280 42 307 78 q 204 -10 252 6 q 84 -26 157 -26 l 9 -26 z "},"K":{"ha":688,"x_min":88,"x_max":684,"o":"m 88 0 l 88 1124 l 245 1124 l 245 595 l 503 1124 l 648 1124 l 426 629 l 684 0 l 532 0 l 306 557 l 245 443 l 245 0 l 88 0 z "},"L":{"ha":551,"x_min":88,"x_max":532,"o":"m 88 0 l 88 1124 l 245 1124 l 245 113 l 532 113 l 532 0 l 88 0 z "},"M":{"ha":917,"x_min":85,"x_max":832,"o":"m 85 0 l 106 1124 l 259 1124 l 458 212 l 658 1124 l 811 1124 l 832 0 l 705 0 l 693 817 l 503 0 l 414 0 l 225 817 l 213 0 l 85 0 z "},"N":{"ha":733,"x_min":88,"x_max":645,"o":"m 88 0 l 88 1124 l 195 1124 l 514 378 l 514 1124 l 645 1124 l 645 0 l 545 0 l 220 768 l 220 0 l 88 0 z "},"O":{"ha":749,"x_min":67,"x_max":682,"o":"m 374 -12 q 230 13 290 -12 q 135 87 170 38 q 83 201 100 136 q 67 353 67 266 l 67 779 q 139 1045 67 954 q 374 1135 210 1135 q 610 1044 538 1135 q 682 779 682 953 l 682 352 q 609 82 682 176 q 374 -12 537 -12 m 298 125 q 313 118 298 125 q 374 111 328 111 q 451 125 420 111 q 496 168 481 139 q 518 232 512 197 q 524 319 524 267 l 524 811 q 518 896 524 862 q 496 958 512 930 q 451 1000 481 987 q 374 1013 420 1013 q 298 1000 328 1013 q 252 958 268 987 q 231 896 237 930 q 225 811 225 862 l 225 319 q 231 232 225 267 q 252 168 237 197 q 298 125 268 139 z "},"P":{"ha":667,"x_min":88,"x_max":645,"o":"m 245 636 l 316 636 q 458 673 419 636 q 496 813 496 709 q 494 883 496 856 q 485 935 492 911 q 467 973 478 960 q 434 996 455 986 q 386 1008 414 1005 q 318 1012 359 1012 l 245 1012 l 245 636 m 88 0 l 88 1124 l 367 1124 q 579 1045 513 1124 q 645 814 645 966 q 574 600 645 677 q 368 524 503 524 l 245 524 l 245 0 l 88 0 z "},"Q":{"ha":751,"x_min":67,"x_max":683,"o":"m 299 125 q 314 118 299 125 q 375 111 329 111 q 451 125 421 111 q 497 168 481 139 q 519 233 513 197 q 525 319 525 268 l 525 811 q 519 896 525 862 q 497 959 513 930 q 451 1000 481 987 q 375 1013 421 1013 q 299 1000 329 1013 q 253 959 269 987 q 231 896 237 930 q 225 811 225 862 l 225 319 q 231 233 225 268 q 253 168 237 197 q 299 125 269 139 m 604 -227 q 401 -12 517 -183 q 389 -12 397 -12 q 375 -12 380 -12 q 139 82 211 -12 q 67 353 67 176 l 67 779 q 139 1044 67 954 q 375 1135 211 1135 q 611 1044 538 1135 q 683 779 683 953 l 683 352 q 518 14 683 83 q 629 -104 588 -76 l 604 -227 z "},"R":{"ha":721,"x_min":88,"x_max":666,"o":"m 245 640 l 304 640 q 450 681 406 640 q 494 827 494 721 q 456 970 494 929 q 314 1012 418 1012 l 245 1012 l 245 640 m 88 0 l 88 1124 l 314 1124 q 565 1055 485 1124 q 644 827 644 985 q 505 564 644 610 l 666 0 l 514 0 l 366 528 l 245 528 l 245 0 l 88 0 z "},"S":{"ha":657,"x_min":54,"x_max":622,"o":"m 353 -12 q 137 75 211 -12 q 54 315 62 163 l 193 353 q 353 111 208 111 q 445 145 413 111 q 476 243 476 178 q 468 309 476 279 q 440 366 459 339 q 403 411 420 393 q 354 459 386 429 l 165 627 q 82 735 109 678 q 56 876 56 793 q 127 1066 56 998 q 321 1135 198 1134 q 523 1066 456 1137 q 604 844 590 994 l 471 808 q 464 873 469 844 q 448 930 459 901 q 422 977 437 959 q 380 1005 406 995 q 321 1014 355 1016 q 197 890 197 1005 q 214 808 197 841 q 271 738 231 774 l 460 570 q 578 428 534 504 q 622 256 622 352 q 547 60 622 132 q 353 -12 473 -12 z "},"T":{"ha":556,"x_min":-2,"x_max":558,"o":"m 203 0 l 203 1008 l -2 1008 l -2 1124 l 558 1124 l 558 1008 l 360 1008 l 360 0 l 203 0 z "},"U":{"ha":755,"x_min":78,"x_max":677,"o":"m 503 6 q 476 -3 503 6 q 378 -12 450 -12 q 253 6 306 -12 q 166 57 199 25 q 113 140 133 90 q 85 247 93 191 q 78 379 78 304 l 78 1124 l 227 1124 l 227 372 q 230 288 227 323 q 242 217 233 253 q 268 160 252 182 q 311 124 283 138 q 378 111 339 111 q 444 124 416 111 q 487 160 471 138 q 513 218 503 182 q 525 288 522 253 q 528 372 528 323 l 528 1124 l 677 1124 l 677 379 q 669 247 677 304 q 642 140 662 191 q 589 57 622 90 q 503 6 555 25 z "},"V":{"ha":702,"x_min":33,"x_max":669,"o":"m 283 0 l 33 1124 l 179 1124 l 357 296 l 526 1124 l 669 1124 l 420 0 l 283 0 z "},"W":{"ha":1013,"x_min":50,"x_max":962,"o":"m 233 0 l 50 1124 l 181 1124 l 301 316 l 453 1121 l 564 1121 l 717 313 l 834 1124 l 962 1124 l 782 0 l 668 0 l 511 833 l 353 0 l 233 0 z "},"X":{"ha":669,"x_min":18,"x_max":652,"o":"m 18 0 l 252 589 l 22 1124 l 168 1124 l 338 728 l 494 1124 l 640 1124 l 404 576 l 652 0 l 505 0 l 323 423 l 163 0 l 18 0 z "},"Y":{"ha":669,"x_min":17,"x_max":652,"o":"m 260 0 l 260 397 l 17 1124 l 163 1124 l 334 583 l 504 1124 l 652 1124 l 410 397 l 410 0 l 260 0 z "},"Z":{"ha":578,"x_min":53,"x_max":551,"o":"m 53 0 l 53 113 l 383 1012 l 73 1012 l 73 1124 l 550 1124 l 550 1057 l 201 113 l 551 113 l 551 0 l 53 0 z "},"[":{"ha":473,"x_min":88,"x_max":393,"o":"m 88 -256 l 88 1124 l 393 1124 l 393 1048 l 237 1048 l 237 -180 l 393 -180 l 393 -256 l 88 -256 z "},"\\":{"ha":513,"x_min":40,"x_max":472,"o":"m 343 0 l 40 1124 l 168 1124 l 472 0 l 343 0 z "},"]":{"ha":430,"x_min":37,"x_max":342,"o":"m 37 -256 l 37 -180 l 193 -180 l 193 1048 l 37 1048 l 37 1124 l 342 1124 l 342 -256 l 37 -256 z "},"^":{"ha":616,"x_min":47,"x_max":569,"o":"m 47 677 l 233 1124 l 383 1124 l 569 677 l 428 677 l 308 1014 l 188 677 l 47 677 z "},"_":{"ha":478,"x_min":0,"x_max":478,"o":"m 0 -186 l 0 -74 l 478 -74 l 478 -186 l 0 -186 z "},"`":{"ha":386,"x_min":79,"x_max":307,"o":"m 233 850 l 79 1124 l 228 1124 l 307 850 l 233 850 z "},"a":{"ha":591,"x_min":58,"x_max":537,"o":"m 278 117 q 334 140 307 117 q 375 184 361 162 l 375 411 q 272 346 297 367 q 207 220 207 293 q 225 144 207 172 q 278 117 243 117 m 219 -12 q 104 45 151 -12 q 58 175 58 102 q 76 278 58 232 q 116 353 95 325 q 189 413 137 382 q 269 456 241 444 q 369 498 298 469 q 375 501 373 500 l 375 559 q 359 670 375 637 q 294 703 343 703 q 210 589 210 703 l 210 549 l 63 554 q 64 584 63 566 q 132 759 71 704 q 304 814 192 814 q 472 750 420 814 q 524 559 524 687 l 524 193 q 537 0 524 102 l 401 0 q 382 119 387 67 q 324 26 365 64 q 219 -12 283 -12 z "},"b":{"ha":621,"x_min":77,"x_max":561,"o":"m 332 106 q 365 113 351 106 q 387 135 378 119 q 401 167 395 151 q 409 211 406 183 q 412 260 411 238 q 412 317 412 283 l 412 512 q 411 570 412 546 q 404 620 409 595 q 390 662 399 646 q 365 687 380 677 q 326 697 349 697 q 226 656 278 697 l 226 141 q 332 106 275 106 m 362 -12 q 226 59 290 -12 l 226 0 l 77 0 l 77 1124 l 226 1124 l 226 739 q 378 814 292 814 q 441 802 413 814 q 488 771 469 790 q 520 725 506 752 q 542 671 534 698 q 554 614 549 645 q 559 559 558 583 q 561 512 561 536 l 561 318 q 362 -12 561 -12 z "},"c":{"ha":570,"x_min":60,"x_max":513,"o":"m 294 -12 q 194 4 236 -12 q 127 45 153 19 q 86 113 101 71 q 66 200 71 155 q 60 308 60 245 l 60 494 q 70 629 60 574 q 104 728 79 684 q 176 793 130 772 q 294 814 223 814 q 402 798 359 814 q 470 749 446 783 q 504 671 494 716 q 513 562 513 627 l 513 513 l 379 513 l 379 562 q 361 673 379 642 q 296 705 344 705 q 225 667 242 705 q 209 524 209 629 l 209 271 q 228 134 209 170 q 297 98 246 98 q 334 105 319 98 q 358 124 349 113 q 372 154 367 135 q 378 192 376 173 q 379 238 379 210 l 379 303 l 513 303 l 513 248 q 503 138 513 183 q 469 57 493 92 q 401 5 444 22 q 294 -12 358 -12 z "},"d":{"ha":614,"x_min":60,"x_max":538,"o":"m 299 106 q 390 136 342 106 l 390 662 q 296 697 341 697 q 209 530 209 697 l 209 302 q 211 238 209 264 q 218 185 212 212 q 233 142 223 158 q 259 116 242 126 q 299 106 276 106 m 262 -12 q 109 64 157 -12 q 60 315 60 140 l 60 471 q 65 578 60 531 q 82 670 69 625 q 117 746 96 716 q 173 795 138 777 q 256 814 209 814 q 390 751 329 814 l 390 1124 l 538 1124 l 538 0 l 390 0 l 390 52 q 262 -12 332 -12 z "},"e":{"ha":585,"x_min":60,"x_max":526,"o":"m 209 479 l 379 479 l 379 552 q 377 606 379 584 q 371 648 376 627 q 357 680 366 668 q 333 698 348 691 q 296 705 317 705 q 226 667 243 705 q 209 523 209 629 l 209 479 m 298 -12 q 180 8 227 -12 q 107 71 134 28 q 71 170 81 113 q 60 309 60 227 l 60 493 q 72 634 60 576 q 109 733 83 691 q 182 794 136 774 q 297 814 229 814 q 373 806 340 814 q 430 783 406 798 q 471 745 454 769 q 499 694 488 721 q 515 629 509 667 q 524 553 522 591 q 526 464 526 515 l 525 399 l 209 399 l 209 292 q 209 283 209 289 q 209 233 209 249 q 212 190 210 216 q 220 151 214 164 q 235 124 225 138 q 259 104 244 110 q 296 98 275 98 q 362 131 345 98 q 379 231 379 164 l 379 279 l 524 279 l 524 248 q 298 -12 524 -12 z "},"f":{"ha":399,"x_min":26,"x_max":393,"o":"m 123 0 l 123 692 l 26 692 l 26 803 l 123 803 l 123 844 q 126 927 123 893 q 140 993 130 961 q 170 1044 151 1025 q 220 1074 189 1063 q 296 1085 252 1085 q 393 1078 333 1085 l 393 966 q 338 973 338 973 q 284 948 297 973 q 271 870 271 922 l 271 803 l 393 803 l 393 692 l 271 692 l 271 0 l 123 0 z "},"g":{"ha":604,"x_min":27,"x_max":621,"o":"m 287 351 q 365 392 346 351 q 383 528 383 434 q 381 591 383 566 q 374 640 380 616 q 358 679 368 665 q 331 702 348 693 q 289 711 313 711 q 211 667 231 711 q 191 528 191 624 q 193 471 191 495 q 201 422 195 446 q 217 384 207 399 q 245 360 228 369 q 287 351 262 351 m 323 -132 q 418 -113 387 -132 q 449 -52 449 -94 q 426 5 449 -14 q 339 30 402 24 l 212 40 q 173 -4 193 24 q 153 -64 153 -33 q 165 -102 153 -89 q 214 -124 176 -116 q 323 -132 252 -132 m 325 -249 q 249 -248 281 -249 q 180 -242 216 -246 q 118 -229 143 -237 q 71 -207 92 -220 q 38 -173 49 -193 q 27 -124 27 -152 q 60 -16 27 -62 q 143 56 93 29 q 85 91 105 68 q 65 143 65 115 q 86 216 65 184 q 155 288 107 247 q 84 380 107 325 q 62 528 62 435 q 119 741 62 669 q 287 814 176 814 q 452 726 410 814 q 494 766 463 740 q 561 808 525 792 l 584 819 l 621 722 q 544 698 593 716 q 484 671 495 680 q 502 603 494 647 q 509 524 509 558 q 498 411 509 460 q 462 323 487 361 q 393 266 437 286 q 287 245 349 245 q 245 250 275 245 q 211 256 216 254 q 205 245 210 254 q 197 233 199 237 q 192 221 195 229 q 186 207 188 213 q 184 194 184 200 q 200 170 184 178 q 252 159 216 162 q 315 153 255 158 q 376 147 375 147 q 562 -48 562 130 q 505 -202 562 -156 q 325 -249 448 -249 z "},"h":{"ha":618,"x_min":79,"x_max":548,"o":"m 79 0 l 79 1124 l 227 1124 l 227 720 q 429 814 326 814 q 487 800 463 814 q 524 761 511 785 q 543 709 537 736 q 548 650 548 682 l 548 0 l 399 0 l 399 606 q 386 675 399 652 q 336 697 373 697 q 227 644 290 697 l 227 0 l 79 0 z "},"i":{"ha":317,"x_min":85,"x_max":234,"o":"m 85 922 l 85 1078 l 234 1078 l 234 922 l 85 922 m 85 0 l 85 803 l 233 803 l 233 0 l 85 0 z "},"j":{"ha":319,"x_min":-26,"x_max":245,"o":"m 96 922 l 96 1078 l 245 1078 l 245 922 l 96 922 m -26 -193 l -26 -86 q 13 -90 -8 -90 q 96 7 96 -90 l 96 803 l 245 803 l 245 -9 q 193 -152 245 -102 q 50 -203 141 -203 q -26 -193 -1 -203 z "},"k":{"ha":595,"x_min":77,"x_max":599,"o":"m 77 2 l 77 1126 l 226 1126 l 226 455 l 444 802 l 599 803 l 410 488 l 593 0 l 445 0 l 295 412 l 226 308 l 226 2 l 77 2 z "},"l":{"ha":318,"x_min":89,"x_max":238,"o":"m 89 0 l 89 1124 l 238 1124 l 238 0 l 89 0 z "},"m":{"ha":944,"x_min":75,"x_max":874,"o":"m 75 0 l 75 803 l 212 803 l 212 727 q 401 817 294 817 q 532 715 503 817 q 732 817 616 817 q 834 771 795 817 q 874 630 874 725 l 874 0 l 737 0 l 737 621 q 719 698 737 676 q 668 720 701 720 q 543 654 606 720 q 543 630 543 646 l 543 0 l 407 0 l 407 621 q 389 698 407 676 q 338 720 371 720 q 212 654 276 720 l 212 0 l 75 0 z "},"n":{"ha":610,"x_min":75,"x_max":540,"o":"m 75 0 l 75 803 l 224 803 l 224 724 q 420 814 319 814 q 478 800 454 814 q 516 761 503 785 q 534 709 529 736 q 540 650 540 682 l 540 0 l 391 0 l 391 606 q 378 675 391 652 q 328 697 364 697 q 224 648 283 697 l 224 0 l 75 0 z "},"o":{"ha":589,"x_min":60,"x_max":528,"o":"m 294 -12 q 183 9 229 -12 q 111 69 137 29 q 72 162 84 109 q 60 285 60 214 l 60 517 q 72 641 60 588 q 111 733 84 693 q 183 793 137 773 q 294 814 229 814 q 475 738 421 814 q 528 517 528 662 l 528 285 q 475 64 528 140 q 294 -12 421 -12 m 294 98 q 330 104 315 98 q 354 125 345 111 q 368 152 363 139 q 376 190 374 165 q 379 230 378 215 q 379 275 379 245 l 379 527 q 379 566 379 553 q 377 601 378 578 q 373 635 376 623 q 363 663 370 647 q 348 686 357 678 q 326 699 339 693 q 294 705 312 705 q 263 699 277 705 q 240 686 249 693 q 225 663 231 678 q 215 635 218 647 q 211 601 212 623 q 209 566 210 578 q 209 527 209 553 l 209 275 q 209 237 209 250 q 211 201 210 224 q 215 167 212 179 q 225 140 218 155 q 240 117 231 125 q 263 104 249 109 q 294 98 277 98 z "},"p":{"ha":620,"x_min":75,"x_max":559,"o":"m 330 106 q 363 113 349 106 q 385 135 376 119 q 399 167 394 151 q 407 211 405 183 q 410 260 410 238 q 411 317 411 283 l 411 512 q 409 570 411 546 q 402 620 408 595 q 388 662 397 646 q 363 687 379 677 q 325 697 347 697 q 224 656 274 697 l 224 141 q 330 106 273 106 m 75 -264 l 75 803 l 224 803 l 224 739 q 376 814 288 814 q 448 799 416 814 q 498 756 479 783 q 531 700 517 730 q 550 632 544 669 q 557 568 555 595 q 559 512 559 541 l 559 318 q 360 -12 559 -12 q 224 60 288 -12 l 224 -264 l 75 -264 z "},"q":{"ha":615,"x_min":62,"x_max":540,"o":"m 300 106 q 392 136 345 106 l 392 662 q 298 697 342 697 q 210 530 210 697 l 210 302 q 212 238 210 264 q 219 185 214 212 q 234 142 224 158 q 260 116 243 126 q 300 106 277 106 m 392 -264 l 392 52 q 263 -12 334 -12 q 110 64 159 -12 q 62 315 62 140 l 62 471 q 70 603 62 547 q 98 710 78 660 q 159 787 119 760 q 258 814 199 814 q 392 751 330 814 l 392 803 l 540 803 l 540 -264 l 392 -264 z "},"r":{"ha":446,"x_min":79,"x_max":429,"o":"m 79 0 l 79 803 l 227 803 l 227 688 q 312 785 269 758 q 405 813 356 813 q 429 812 418 813 l 429 648 q 348 663 388 663 q 282 647 311 663 q 227 587 254 630 l 227 0 l 79 0 z "},"s":{"ha":519,"x_min":35,"x_max":484,"o":"m 261 -12 q 103 50 163 -12 q 35 214 43 111 l 159 252 q 193 136 168 174 q 267 98 219 98 q 332 124 307 98 q 355 191 357 151 q 290 303 352 250 l 153 420 q 79 507 104 462 q 54 616 53 552 q 112 762 57 711 q 262 814 167 814 q 405 754 353 814 q 466 603 458 695 l 366 566 q 334 669 357 633 q 267 705 312 705 q 209 681 231 705 q 187 623 186 657 q 227 541 187 576 l 370 411 q 453 314 423 364 q 484 194 484 264 q 424 41 484 94 q 261 -12 363 -12 z "},"t":{"ha":428,"x_min":31,"x_max":393,"o":"m 289 -12 q 157 37 197 -12 q 115 180 117 85 l 115 704 l 31 704 l 31 803 l 115 803 l 115 1037 l 264 1037 l 264 803 l 393 803 l 393 704 l 264 704 l 264 191 q 279 123 264 142 q 337 103 294 103 q 392 106 369 103 l 392 -3 q 289 -12 327 -12 z "},"u":{"ha":611,"x_min":70,"x_max":534,"o":"m 190 -11 q 131 3 156 -11 q 94 42 106 18 q 75 94 81 67 q 70 153 70 121 l 70 803 l 218 803 l 218 197 q 232 128 218 151 q 282 106 245 106 q 386 155 327 106 l 386 803 l 534 803 l 534 0 l 386 0 l 386 79 q 190 -11 291 -11 z "},"v":{"ha":534,"x_min":21,"x_max":513,"o":"m 180 0 l 21 803 l 170 803 l 269 157 l 369 803 l 513 803 l 361 0 l 180 0 z "},"w":{"ha":817,"x_min":39,"x_max":777,"o":"m 168 0 l 39 803 l 161 803 l 245 212 l 352 803 l 465 803 l 572 214 l 656 803 l 777 803 l 645 0 l 519 0 l 410 566 l 302 0 l 168 0 z "},"x":{"ha":540,"x_min":13,"x_max":530,"o":"m 13 0 l 193 422 l 16 803 l 159 803 l 276 549 l 380 803 l 526 803 l 343 404 l 530 0 l 388 0 l 262 273 l 153 0 l 13 0 z "},"y":{"ha":544,"x_min":16,"x_max":530,"o":"m 62 -201 l 62 -88 q 189 -69 161 -88 q 203 9 216 -50 q 178 119 184 93 q 97 461 154 221 q 16 803 41 701 l 167 803 l 275 203 l 379 803 l 530 803 l 337 -44 q 256 -165 318 -130 q 81 -201 194 -201 l 62 -201 z "},"z":{"ha":481,"x_min":44,"x_max":450,"o":"m 44 0 l 44 100 l 290 692 l 69 692 l 69 803 l 450 803 l 450 722 l 203 112 l 444 112 l 444 0 l 44 0 z "},"{":{"ha":417,"x_min":55,"x_max":385,"o":"m 385 -266 q 307 -264 338 -266 q 248 -257 275 -263 q 203 -243 220 -250 q 173 -218 186 -235 q 153 -183 159 -201 q 142 -134 146 -166 q 137 -69 138 -101 q 136 14 136 -37 l 136 210 q 129 323 136 288 q 107 371 123 359 q 55 384 91 384 l 55 486 q 107 499 91 486 q 129 547 123 512 q 136 661 136 583 l 136 855 q 137 939 136 907 q 142 1003 138 970 q 153 1053 146 1036 q 173 1087 159 1070 q 203 1112 186 1105 q 248 1126 220 1120 q 307 1134 275 1133 q 385 1135 338 1135 l 385 1025 q 360 1025 370 1025 q 340 1022 350 1025 q 324 1018 330 1019 q 312 1009 318 1017 q 304 998 307 1002 q 298 981 301 994 q 295 960 296 968 q 293 931 294 952 q 292 898 292 911 q 292 855 292 884 l 292 640 q 269 493 292 541 q 199 435 245 446 q 269 377 245 425 q 292 231 292 330 l 292 14 q 292 -28 292 -15 q 293 -62 292 -41 q 295 -91 294 -83 q 298 -112 296 -98 q 304 -129 301 -125 q 312 -140 307 -133 q 324 -149 318 -147 q 340 -153 330 -150 q 360 -156 350 -155 q 385 -156 370 -156 l 385 -266 z "},"|":{"ha":332,"x_min":96,"x_max":235,"o":"m 96 -206 l 98 1125 l 235 1125 l 235 -206 l 96 -206 z "},"}":{"ha":446,"x_min":61,"x_max":391,"o":"m 61 -266 l 61 -156 q 86 -156 76 -156 q 106 -153 96 -155 q 122 -149 116 -150 q 134 -140 128 -147 q 142 -129 140 -133 q 148 -112 145 -125 q 152 -91 151 -98 q 153 -62 153 -83 q 154 -28 154 -41 q 154 14 154 -15 l 154 231 q 178 377 154 330 q 247 435 201 425 q 178 493 201 446 q 154 640 154 541 l 154 855 q 154 898 154 884 q 153 931 154 911 q 152 960 153 952 q 148 981 151 968 q 142 998 145 994 q 134 1009 140 1002 q 122 1018 128 1017 q 106 1022 116 1019 q 86 1025 96 1025 q 61 1025 76 1025 l 61 1135 q 139 1134 108 1135 q 198 1126 170 1133 q 243 1112 227 1120 q 273 1087 259 1105 q 293 1053 287 1070 q 303 1003 299 1036 q 309 939 308 970 q 310 855 310 907 l 310 661 q 316 547 310 583 q 339 499 323 512 q 391 486 355 486 l 391 384 q 339 371 355 384 q 316 323 323 359 q 310 210 310 288 l 310 14 q 309 -70 310 -38 q 303 -134 308 -101 q 293 -183 299 -166 q 273 -218 287 -201 q 243 -243 259 -235 q 198 -257 227 -250 q 139 -264 170 -263 q 61 -266 108 -266 z "},"~":{"ha":621,"x_min":49,"x_max":572,"o":"m 412 504 q 343 524 382 504 q 266 564 303 544 q 203 584 228 584 q 102 530 167 584 l 49 602 q 133 670 84 638 q 214 703 181 703 q 319 663 249 703 q 420 624 390 624 q 451 633 433 624 q 481 651 469 642 q 519 680 494 661 l 572 611 q 492 537 537 570 q 412 504 446 504 z "}," ":{"ha":320,"x_min":0,"x_max":0,"o":""},"¡":{"ha":288,"x_min":69,"x_max":219,"o":"m 69 725 l 69 878 l 219 878 l 219 725 l 69 725 m 69 -247 l 118 637 l 170 637 l 219 -247 l 69 -247 z "},"¢":{"ha":538,"x_min":60,"x_max":513,"o":"m 248 -110 l 248 -9 q 168 15 201 -3 q 114 59 134 33 q 81 126 94 86 q 65 209 69 166 q 60 308 60 251 l 60 494 q 68 620 60 568 q 96 714 76 671 q 154 781 117 757 q 249 812 192 805 l 249 911 l 296 911 l 296 814 q 403 798 360 814 q 470 749 446 782 q 504 671 494 715 q 513 562 513 627 l 513 513 l 379 513 l 379 562 q 361 673 379 642 q 296 705 344 705 q 225 667 242 705 q 209 524 209 629 l 209 271 q 228 134 209 170 q 297 98 246 98 q 334 105 319 98 q 358 124 349 113 q 372 154 367 135 q 378 192 376 173 q 379 238 379 210 l 379 303 l 513 303 l 513 248 q 466 53 513 117 q 295 -12 418 -11 l 295 -110 l 248 -110 z "},"£":{"ha":553,"x_min":3,"x_max":516,"o":"m 3 0 l 3 75 l 84 111 l 84 491 l 3 491 l 3 602 l 84 602 l 84 730 q 86 821 84 782 q 94 905 87 861 q 110 981 100 949 q 138 1044 120 1013 q 180 1093 155 1074 q 239 1124 204 1112 q 319 1135 275 1135 q 516 895 514 1135 l 516 849 l 405 849 q 404 898 405 877 q 397 942 402 919 q 382 980 391 965 q 358 1004 374 995 q 319 1014 342 1014 q 274 999 292 1014 q 248 954 256 983 q 236 897 239 924 q 233 831 233 871 l 233 602 l 398 602 l 398 491 l 233 491 l 233 112 l 515 112 l 515 0 l 3 0 z "},"¤":{"ha":764,"x_min":53,"x_max":711,"o":"m 382 350 q 546 419 479 350 q 612 587 612 489 q 546 755 612 686 q 382 825 479 825 q 219 755 286 825 q 153 587 153 686 q 219 419 153 489 q 382 350 286 350 m 73 258 l 53 279 l 163 389 q 88 587 88 473 q 163 786 88 702 l 53 896 l 73 916 l 183 806 q 382 884 267 885 q 581 806 497 885 l 690 916 l 711 896 l 601 786 q 675 587 675 701 q 600 389 675 473 l 711 279 l 690 258 l 581 368 q 382 290 497 290 q 183 368 267 290 l 73 258 z "},"¥":{"ha":634,"x_min":14,"x_max":648,"o":"m 256 0 l 256 159 l 133 159 l 133 257 l 256 257 l 256 347 l 133 347 l 133 444 l 241 444 l 14 1124 l 159 1124 l 331 583 l 500 1124 l 648 1124 l 422 444 l 529 444 l 529 347 l 406 347 l 406 257 l 529 257 l 529 159 l 406 159 l 406 0 l 256 0 z "},"¦":{"ha":295,"x_min":88,"x_max":207,"o":"m 88 556 l 88 1124 l 207 1124 l 207 556 l 88 556 m 88 -213 l 88 355 l 207 355 l 207 -213 l 88 -213 z "},"§":{"ha":593,"x_min":59,"x_max":536,"o":"m 334 451 q 381 488 361 463 q 401 544 401 513 q 390 596 403 570 q 351 642 378 623 l 274 695 q 227 652 247 680 q 208 590 208 624 q 219 547 208 568 q 247 514 230 526 l 334 451 m 297 -11 q 141 48 199 -11 q 60 201 82 108 l 172 239 q 298 111 215 111 q 364 132 339 111 q 392 191 389 152 q 333 303 398 256 l 174 407 q 89 484 118 442 q 59 590 59 526 q 90 704 59 658 q 176 774 121 751 q 63 947 63 846 q 127 1085 63 1035 q 297 1135 191 1135 q 452 1077 394 1135 q 532 926 509 1019 l 420 888 q 401 931 410 913 q 378 970 393 949 q 342 1002 363 991 q 296 1014 321 1014 q 234 992 257 1014 q 212 929 212 970 q 259 852 212 886 l 439 735 q 512 655 487 704 q 536 544 537 606 q 435 369 536 425 q 506 291 480 330 q 532 197 532 251 q 468 43 532 97 q 297 -11 404 -11 z "},"¨":{"ha":555,"x_min":83,"x_max":471,"o":"m 321 971 l 321 1124 l 471 1124 l 471 971 l 321 971 m 83 971 l 83 1124 l 233 1124 l 233 971 l 83 971 z "},"©":{"ha":1197,"x_min":41,"x_max":1156,"o":"m 599 -15 q 443 3 516 -15 q 314 52 370 20 q 213 127 258 83 q 135 222 167 171 q 82 332 104 274 q 51 450 60 391 q 41 572 41 510 q 60 742 41 659 q 123 900 80 824 q 231 1034 167 977 q 389 1124 294 1090 q 599 1158 484 1158 q 778 1135 695 1158 q 920 1069 860 1111 q 1026 971 980 1027 q 1100 849 1072 916 q 1142 714 1128 783 q 1156 572 1156 644 q 1146 450 1156 510 q 1115 332 1137 390 q 1062 222 1094 273 q 985 127 1031 171 q 883 52 939 83 q 755 3 827 20 q 599 -15 682 -15 m 421 75 q 462 60 421 75 q 602 45 503 45 q 784 75 701 45 q 922 155 866 104 q 1018 273 979 205 q 1075 416 1057 341 q 1093 572 1093 492 q 1075 728 1093 653 q 1018 871 1057 804 q 922 989 979 939 q 784 1068 866 1039 q 602 1097 701 1097 q 421 1068 503 1097 q 282 989 338 1039 q 187 871 226 939 q 130 729 148 804 q 112 572 112 654 q 130 416 112 492 q 187 273 148 341 q 282 155 226 205 q 421 75 338 104 m 600 172 q 489 188 535 172 q 414 231 442 204 q 369 301 385 258 q 346 393 352 345 q 340 506 340 441 l 340 654 q 347 771 340 722 q 370 863 353 820 q 415 933 387 906 q 490 975 444 960 q 600 989 536 989 q 720 973 671 989 q 794 922 768 957 q 832 841 821 888 q 843 726 843 795 l 843 688 l 698 688 l 698 726 q 677 842 698 809 q 602 875 656 875 q 520 835 541 875 q 500 686 500 795 l 500 467 q 523 324 500 361 q 603 287 545 287 q 679 322 660 287 q 698 432 698 358 l 698 477 l 843 477 l 843 442 q 832 327 843 375 q 793 243 821 279 q 718 190 766 208 q 600 172 670 172 z "},"ª":{"ha":616,"x_min":106,"x_max":514,"o":"m 296 559 q 347 578 323 559 q 383 625 371 597 l 383 783 q 351 765 359 770 q 323 749 344 761 q 295 730 302 736 q 273 710 287 723 q 254 687 259 697 q 243 661 248 676 q 239 631 239 646 q 254 578 239 597 q 296 559 270 559 m 248 446 q 146 490 186 446 q 106 600 106 533 q 116 664 106 635 q 143 715 125 693 q 183 753 162 737 q 235 784 204 770 q 292 809 267 799 q 355 831 318 819 q 365 834 361 833 q 374 838 368 836 q 383 841 379 840 l 383 914 q 371 1003 383 971 q 323 1034 358 1034 q 251 912 251 1034 l 129 912 q 182 1079 131 1017 q 325 1141 233 1141 q 419 1124 381 1141 q 477 1070 456 1107 q 506 987 498 1034 q 514 873 514 941 l 514 454 l 395 454 l 394 543 q 334 473 373 500 q 248 446 295 446 z "},"«":{"ha":632,"x_min":43,"x_max":541,"o":"m 541 56 l 312 373 l 312 446 l 541 763 l 541 576 l 426 410 l 541 242 l 541 56 m 270 56 l 43 373 l 43 446 l 270 763 l 270 576 l 156 410 l 270 242 l 270 56 z "},"¬":{"ha":538,"x_min":56,"x_max":500,"o":"m 424 355 l 424 511 l 56 511 l 56 623 l 500 623 l 500 355 l 424 355 z "},"­":{"ha":477,"x_min":80,"x_max":399,"o":"m 80 648 l 80 761 l 399 761 l 399 648 l 80 648 z "},"®":{"ha":1233,"x_min":64,"x_max":1169,"o":"m 617 -18 q 409 16 503 -18 q 252 106 315 50 q 146 238 189 162 q 83 395 102 313 q 64 563 64 477 q 83 731 64 650 q 146 888 102 812 q 252 1020 189 964 q 409 1110 315 1076 q 617 1143 503 1143 q 771 1126 699 1143 q 898 1077 843 1108 q 999 1003 954 1046 q 1076 909 1044 960 q 1128 801 1107 859 q 1159 683 1149 743 q 1169 563 1169 624 q 1159 443 1169 502 q 1128 325 1149 383 q 1076 216 1107 267 q 1000 122 1045 165 q 899 48 954 79 q 771 -1 844 17 q 617 -18 699 -18 m 616 52 q 791 80 711 52 q 924 157 870 109 q 1016 272 979 206 q 1071 411 1054 338 q 1088 562 1088 484 q 1071 714 1088 641 q 1016 852 1054 787 q 924 966 979 918 q 791 1043 870 1015 q 616 1072 712 1072 q 441 1043 520 1072 q 307 966 361 1015 q 215 852 252 918 q 160 714 178 787 q 143 562 143 641 q 160 411 143 484 q 215 272 178 338 q 307 158 252 206 q 440 80 361 109 q 616 52 520 52 m 535 588 l 581 588 q 694 618 664 588 q 724 725 724 648 q 699 819 724 787 q 612 850 673 850 l 535 850 l 535 588 m 406 199 l 406 936 l 623 936 q 857 722 857 936 q 739 544 857 593 l 872 199 l 737 199 l 620 517 l 535 517 l 535 199 l 406 199 z "},"¯":{"ha":416,"x_min":86,"x_max":353,"o":"m 86 1035 l 86 1124 l 353 1124 l 353 1035 l 86 1035 z "},"°":{"ha":629,"x_min":81,"x_max":548,"o":"m 314 669 q 143 731 205 669 q 81 903 81 793 q 143 1074 81 1012 q 314 1135 206 1135 q 485 1073 422 1135 q 548 903 548 1011 q 485 731 548 793 q 314 669 422 669 m 225 804 q 241 786 225 804 q 314 768 257 768 q 403 805 371 768 q 435 903 435 842 q 403 1000 435 964 q 314 1037 371 1037 q 225 1000 257 1037 q 193 903 193 964 q 225 804 193 841 z "},"±":{"ha":511,"x_min":79,"x_max":435,"o":"m 79 0 l 79 113 l 435 113 l 435 0 l 79 0 m 200 243 l 200 364 l 79 364 l 79 477 l 200 477 l 200 599 l 313 599 l 313 477 l 435 477 l 435 364 l 313 364 l 313 243 l 200 243 z "},"²":{"ha":606,"x_min":118,"x_max":519,"o":"m 118 427 l 118 505 l 321 824 q 347 863 328 834 q 372 903 366 892 q 390 939 378 915 q 405 984 401 962 q 408 1032 408 1006 q 390 1120 408 1090 q 330 1151 372 1151 q 284 1126 304 1151 q 255 1067 264 1101 q 241 1010 246 1034 q 237 978 237 985 l 127 978 l 127 1005 q 324 1242 127 1242 q 470 1187 421 1242 q 519 1033 519 1133 q 508 946 519 987 q 481 878 496 905 q 439 810 466 852 q 436 807 437 808 q 434 804 435 806 q 431 800 433 802 l 248 519 l 498 519 l 498 427 l 118 427 z "},"³":{"ha":606,"x_min":119,"x_max":538,"o":"m 332 418 q 169 477 218 418 q 119 654 119 536 l 119 702 l 243 702 l 243 651 q 329 525 243 525 q 397 556 374 525 q 421 642 421 587 q 395 746 421 705 q 322 787 370 787 l 264 787 l 264 882 l 319 882 q 394 924 368 882 q 420 1031 420 966 q 397 1113 420 1085 q 331 1141 374 1141 q 267 1113 289 1141 q 245 1033 245 1085 l 245 966 l 120 966 l 120 1029 q 174 1184 120 1126 q 328 1241 227 1241 q 485 1186 431 1241 q 538 1024 538 1131 q 505 906 538 957 q 433 844 473 854 q 508 782 477 827 q 538 656 538 736 q 486 481 538 544 q 332 418 434 418 z "},"´":{"ha":385,"x_min":77,"x_max":308,"o":"m 77 850 l 159 1124 l 308 1124 l 153 850 l 77 850 z "},"µ":{"ha":613,"x_min":70,"x_max":534,"o":"m 71 -243 l 70 803 l 218 803 l 218 197 q 232 128 218 151 q 282 106 245 106 q 386 155 327 106 l 386 803 l 534 803 l 534 0 l 386 0 l 386 79 q 246 -3 318 14 q 220 -4 231 -6 l 221 -243 l 71 -243 z "},"¶":{"ha":683,"x_min":45,"x_max":595,"o":"m 276 -133 l 276 715 q 108 769 172 715 q 45 919 45 822 q 111 1073 45 1022 q 298 1124 177 1124 l 595 1124 l 595 -133 l 489 -133 l 489 1054 l 382 1054 l 382 -133 l 276 -133 z "},"·":{"ha":244,"x_min":50,"x_max":199,"o":"m 50 447 l 50 600 l 199 600 l 199 447 l 50 447 z "},"¸":{"ha":351,"x_min":40,"x_max":307,"o":"m 40 -312 l 40 -237 q 111 -248 77 -248 q 170 -236 146 -248 q 195 -199 195 -223 q 189 -171 196 -183 q 173 -151 182 -159 q 146 -136 164 -144 q 115 -125 127 -129 q 78 -116 102 -122 l 78 0 l 153 0 l 153 -78 q 260 -119 216 -88 q 307 -197 305 -149 q 287 -270 309 -239 q 227 -313 265 -300 q 140 -326 189 -326 q 40 -312 92 -326 z "},"¹":{"ha":588,"x_min":136,"x_max":388,"o":"m 279 425 l 278 1083 q 216 1068 276 1080 q 136 1053 156 1057 l 136 1135 q 193 1152 170 1144 q 251 1179 216 1159 q 304 1223 286 1198 l 387 1223 l 388 425 l 279 425 z "},"º":{"ha":616,"x_min":93,"x_max":523,"o":"m 264 563 q 272 558 264 563 q 305 553 281 553 q 347 563 330 553 q 372 585 363 572 q 386 623 381 598 q 391 667 391 648 q 392 718 392 685 l 392 868 q 391 911 392 896 q 388 949 391 926 q 380 983 386 971 q 366 1008 375 996 q 341 1027 357 1021 q 305 1032 326 1032 q 270 1026 285 1032 q 245 1008 254 1021 q 230 983 235 996 q 221 949 224 970 q 217 911 218 928 q 216 868 216 894 l 216 718 q 217 667 216 687 q 223 623 218 647 q 238 586 229 600 q 264 563 247 572 m 308 444 q 142 510 191 444 q 93 702 93 576 l 93 884 q 142 1076 93 1010 q 308 1141 192 1141 q 471 1073 419 1141 q 523 884 523 1004 l 523 702 q 471 513 523 582 q 308 444 419 444 z "},"»":{"ha":668,"x_min":79,"x_max":589,"o":"m 350 56 l 350 242 l 476 410 l 350 576 l 350 763 l 589 446 l 589 373 l 350 56 m 79 56 l 79 242 l 206 410 l 79 576 l 79 763 l 320 446 l 320 373 l 79 56 z "},"¼":{"ha":1118,"x_min":81,"x_max":1045,"o":"m 739 242 l 851 242 l 851 462 l 739 242 m 275 0 l 641 1124 l 766 1124 l 399 0 l 275 0 m 163 541 l 163 939 l 81 932 l 81 1009 q 237 1124 184 1061 l 276 1124 l 276 541 l 163 541 m 851 0 l 851 165 l 649 165 l 649 242 l 862 618 l 964 618 l 964 242 l 1045 242 l 1045 165 l 964 165 l 964 0 l 851 0 z "},"½":{"ha":1118,"x_min":81,"x_max":1025,"o":"m 280 0 l 646 1124 l 771 1124 l 404 0 l 280 0 m 165 541 l 165 939 l 81 932 l 81 1009 q 237 1124 185 1061 l 277 1124 l 277 541 l 165 541 m 704 1 l 704 77 l 831 250 q 852 277 836 256 q 876 309 869 299 q 893 338 882 319 q 908 376 904 357 q 912 414 912 394 q 911 447 912 434 q 905 473 909 460 q 890 493 901 486 q 865 499 880 499 q 838 493 848 499 q 824 472 828 486 q 818 446 819 458 q 817 412 817 433 l 705 412 l 705 422 q 749 536 707 496 q 865 576 790 576 q 983 533 941 576 q 1025 414 1025 491 q 994 303 1025 357 q 907 186 963 250 q 818 78 857 130 l 1022 78 l 1022 1 l 704 1 z "},"¾":{"ha":1118,"x_min":65,"x_max":1084,"o":"m 777 242 l 890 242 l 890 462 l 777 242 m 323 0 l 690 1124 l 814 1124 l 448 0 l 323 0 m 890 0 l 890 165 l 687 165 l 687 242 l 901 618 l 1002 618 l 1002 242 l 1084 242 l 1084 165 l 1002 165 l 1002 0 l 890 0 m 224 562 q 106 604 148 562 q 65 722 65 646 l 178 722 q 179 690 178 702 q 184 664 180 677 q 198 645 189 651 q 224 638 208 638 q 262 660 253 638 q 271 725 271 682 q 252 792 271 772 q 189 812 234 812 l 189 888 q 252 907 235 888 q 270 975 270 926 q 269 1008 270 996 q 264 1034 268 1020 q 250 1054 260 1047 q 225 1060 241 1060 q 186 1039 195 1060 q 178 977 178 1017 l 65 977 q 106 1094 65 1052 q 225 1137 148 1137 q 342 1094 302 1137 q 383 975 383 1051 q 352 885 383 916 q 266 850 320 853 q 352 816 321 846 q 384 726 384 785 q 342 605 384 648 q 224 562 301 562 z "},"¿":{"ha":706,"x_min":92,"x_max":629,"o":"m 344 720 l 344 873 l 493 873 l 493 720 l 344 720 m 373 -267 q 166 -191 240 -267 q 92 23 92 -115 q 100 105 92 66 q 125 179 108 144 q 161 245 142 215 q 210 309 180 275 q 265 368 241 342 q 328 430 290 393 q 354 456 345 447 l 354 591 l 486 591 l 486 418 q 391 329 430 369 q 314 237 352 288 q 257 132 276 186 q 237 19 237 77 q 275 -93 237 -50 q 374 -136 313 -136 q 469 -99 438 -136 q 490 1 500 -61 l 482 51 l 621 77 l 629 29 q 583 -186 656 -105 q 373 -267 509 -267 z "},"À":{"ha":683,"x_min":26,"x_max":657,"o":"m 304 1218 l 150 1493 l 299 1493 l 378 1218 l 304 1218 m 248 395 l 436 395 l 342 903 l 248 395 m 26 0 l 266 1124 l 417 1124 l 657 0 l 508 0 l 456 283 l 228 283 l 174 0 l 26 0 z "},"Á":{"ha":683,"x_min":26,"x_max":657,"o":"m 304 1218 l 386 1493 l 534 1493 l 379 1218 l 304 1218 m 248 395 l 436 395 l 342 903 l 248 395 m 26 0 l 266 1124 l 417 1124 l 657 0 l 508 0 l 456 283 l 228 283 l 174 0 l 26 0 z "},"Â":{"ha":683,"x_min":26,"x_max":657,"o":"m 146 1218 l 266 1460 l 416 1460 l 537 1218 l 425 1218 l 341 1386 l 257 1218 l 146 1218 m 248 395 l 436 395 l 342 903 l 248 395 m 26 0 l 266 1124 l 417 1124 l 657 0 l 508 0 l 456 283 l 228 283 l 174 0 l 26 0 z "},"Ã":{"ha":683,"x_min":26,"x_max":657,"o":"m 433 1218 q 335 1252 398 1218 q 254 1286 272 1286 q 227 1274 235 1287 q 218 1230 218 1260 l 134 1230 q 254 1380 134 1383 q 355 1346 290 1379 q 433 1313 420 1313 q 458 1325 451 1312 q 465 1371 465 1338 l 549 1371 q 524 1259 549 1300 q 433 1218 498 1217 m 248 395 l 436 395 l 342 903 l 248 395 m 26 0 l 266 1124 l 417 1124 l 657 0 l 508 0 l 456 283 l 228 283 l 174 0 l 26 0 z "},"Ä":{"ha":683,"x_min":26,"x_max":657,"o":"m 385 1218 l 385 1371 l 535 1371 l 535 1218 l 385 1218 m 147 1218 l 147 1371 l 296 1371 l 296 1218 l 147 1218 m 248 395 l 436 395 l 342 903 l 248 395 m 26 0 l 266 1124 l 417 1124 l 657 0 l 508 0 l 456 283 l 228 283 l 174 0 l 26 0 z "},"Å":{"ha":683,"x_min":26,"x_max":657,"o":"m 283 1222 q 294 1211 283 1222 q 341 1200 304 1200 q 399 1222 378 1200 q 420 1280 420 1243 q 399 1339 420 1318 q 341 1360 378 1360 q 283 1339 304 1360 q 262 1280 262 1318 q 283 1222 262 1243 m 454 1167 q 432 1146 454 1167 q 341 1125 411 1125 q 229 1167 271 1125 q 186 1280 186 1210 q 229 1393 186 1351 q 341 1435 271 1435 q 454 1393 411 1435 q 496 1280 496 1351 q 454 1167 496 1210 m 248 395 l 436 395 l 342 903 l 248 395 m 26 0 l 266 1124 l 417 1124 l 657 0 l 508 0 l 456 283 l 228 283 l 174 0 l 26 0 z "},"Æ":{"ha":880,"x_min":-71,"x_max":841,"o":"m 241 397 l 406 397 l 406 840 l 241 397 m -71 0 l 403 1124 l 841 1124 l 841 1011 l 556 1011 l 556 639 l 760 639 l 760 526 l 556 526 l 556 113 l 841 113 l 841 0 l 406 0 l 406 285 l 199 285 l 79 0 l -71 0 z "},"Ç":{"ha":715,"x_min":67,"x_max":652,"o":"m 284 -312 l 284 -237 q 355 -248 321 -248 q 414 -236 390 -248 q 439 -199 439 -223 q 433 -171 440 -183 q 417 -151 427 -159 q 390 -136 408 -144 q 359 -125 372 -129 q 322 -116 346 -122 l 322 0 l 397 0 l 397 -78 q 505 -119 460 -88 q 551 -197 549 -149 q 531 -270 553 -239 q 471 -313 509 -300 q 385 -326 433 -326 q 284 -312 336 -326 m 369 -12 q 246 7 299 -12 q 160 58 193 26 q 105 139 126 91 q 75 241 83 188 q 67 361 67 295 l 67 759 q 76 886 67 830 q 105 989 84 941 q 160 1069 126 1038 q 247 1118 194 1100 q 369 1135 299 1135 q 587 1053 521 1135 q 652 812 652 971 l 652 722 l 504 722 l 504 802 q 504 842 504 827 q 502 878 503 857 q 498 912 501 900 q 491 941 496 924 q 480 966 487 957 q 463 986 473 975 q 440 1001 453 996 q 410 1010 427 1006 q 370 1013 392 1013 q 313 1006 338 1013 q 273 984 289 999 q 248 950 258 968 q 233 903 238 932 q 227 847 229 874 q 225 781 225 821 l 225 336 q 257 160 225 210 q 370 111 289 111 q 424 117 401 111 q 461 140 447 124 q 485 172 476 155 q 498 218 494 189 q 503 271 502 247 q 504 335 504 296 l 504 418 l 652 418 l 652 334 q 644 219 652 270 q 616 124 636 168 q 565 50 597 79 q 484 4 533 21 q 369 -12 434 -12 z "},"È":{"ha":566,"x_min":88,"x_max":527,"o":"m 270 1218 l 116 1493 l 265 1493 l 345 1218 l 270 1218 m 88 0 l 88 1124 l 524 1124 l 524 1008 l 245 1008 l 245 637 l 471 637 l 471 525 l 245 525 l 245 113 l 527 113 l 527 0 l 88 0 z "},"É":{"ha":566,"x_min":88,"x_max":527,"o":"m 270 1218 l 352 1493 l 500 1493 l 345 1218 l 270 1218 m 88 0 l 88 1124 l 524 1124 l 524 1008 l 245 1008 l 245 637 l 471 637 l 471 525 l 245 525 l 245 113 l 527 113 l 527 0 l 88 0 z "},"Ê":{"ha":566,"x_min":88,"x_max":527,"o":"m 112 1218 l 232 1460 l 382 1460 l 503 1218 l 391 1218 l 307 1386 l 223 1218 l 112 1218 m 88 0 l 88 1124 l 524 1124 l 524 1008 l 245 1008 l 245 637 l 471 637 l 471 525 l 245 525 l 245 113 l 527 113 l 527 0 l 88 0 z "},"Ë":{"ha":566,"x_min":88,"x_max":527,"o":"m 351 1218 l 351 1371 l 501 1371 l 501 1218 l 351 1218 m 113 1218 l 113 1371 l 262 1371 l 262 1218 l 113 1218 m 88 0 l 88 1124 l 524 1124 l 524 1008 l 245 1008 l 245 637 l 471 637 l 471 525 l 245 525 l 245 113 l 527 113 l 527 0 l 88 0 z "},"Ì":{"ha":344,"x_min":-18,"x_max":250,"o":"m 136 1218 l -18 1493 l 131 1493 l 210 1218 l 136 1218 m 96 0 l 96 1124 l 250 1124 l 250 0 l 96 0 z "},"Í":{"ha":344,"x_min":96,"x_max":366,"o":"m 135 1218 l 217 1493 l 366 1493 l 210 1218 l 135 1218 m 96 0 l 96 1124 l 250 1124 l 250 0 l 96 0 z "},"Î":{"ha":344,"x_min":-23,"x_max":368,"o":"m -23 1218 l 97 1460 l 248 1460 l 368 1218 l 256 1218 l 172 1386 l 88 1218 l -23 1218 m 96 0 l 96 1124 l 250 1124 l 250 0 l 96 0 z "},"Ï":{"ha":344,"x_min":-21,"x_max":367,"o":"m 217 1218 l 217 1371 l 367 1371 l 367 1218 l 217 1218 m -21 1218 l -21 1371 l 128 1371 l 128 1218 l -21 1218 m 96 0 l 96 1124 l 250 1124 l 250 0 l 96 0 z "},"Ð":{"ha":720,"x_min":20,"x_max":665,"o":"m 88 0 l 88 539 l 20 539 l 20 629 l 88 629 l 88 1124 l 332 1124 q 590 1042 515 1124 q 665 781 665 959 l 665 368 q 590 91 665 182 q 344 0 516 0 l 88 0 m 245 113 l 333 113 q 396 120 369 113 q 442 137 424 127 q 473 168 460 146 q 492 208 486 190 q 502 262 498 227 q 506 324 505 298 q 507 397 507 349 l 507 763 q 505 831 507 804 q 500 887 504 859 q 488 932 496 915 q 467 966 479 950 q 435 990 454 982 q 390 1004 416 999 q 330 1008 364 1008 l 245 1008 l 245 629 l 329 629 l 329 539 l 245 539 l 245 113 z "},"Ñ":{"ha":733,"x_min":88,"x_max":645,"o":"m 458 1218 q 360 1252 423 1218 q 279 1286 297 1286 q 252 1274 260 1287 q 243 1230 243 1260 l 159 1230 q 279 1380 159 1383 q 380 1346 315 1379 q 458 1313 445 1313 q 483 1325 476 1312 q 490 1371 490 1338 l 574 1371 q 549 1259 574 1300 q 458 1218 523 1217 m 88 0 l 88 1124 l 195 1124 l 514 378 l 514 1124 l 645 1124 l 645 0 l 545 0 l 220 768 l 220 0 l 88 0 z "},"Ò":{"ha":749,"x_min":67,"x_max":682,"o":"m 337 1218 l 183 1493 l 332 1493 l 412 1218 l 337 1218 m 374 -12 q 230 13 290 -12 q 135 87 170 38 q 83 201 100 136 q 67 353 67 266 l 67 779 q 139 1045 67 954 q 374 1135 210 1135 q 610 1044 538 1135 q 682 779 682 953 l 682 352 q 609 82 682 176 q 374 -12 537 -12 m 298 125 q 313 118 298 125 q 374 111 328 111 q 451 125 420 111 q 496 168 481 139 q 518 232 512 197 q 524 319 524 267 l 524 811 q 518 896 524 862 q 496 958 512 930 q 451 1000 481 987 q 374 1013 420 1013 q 298 1000 328 1013 q 252 958 268 987 q 231 896 237 930 q 225 811 225 862 l 225 319 q 231 232 225 267 q 252 168 237 197 q 298 125 268 139 z "},"Ó":{"ha":749,"x_min":67,"x_max":682,"o":"m 336 1218 l 418 1493 l 567 1493 l 412 1218 l 336 1218 m 374 -12 q 230 13 290 -12 q 135 87 170 38 q 83 201 100 136 q 67 353 67 266 l 67 779 q 139 1045 67 954 q 374 1135 210 1135 q 610 1044 538 1135 q 682 779 682 953 l 682 352 q 609 82 682 176 q 374 -12 537 -12 m 298 125 q 313 118 298 125 q 374 111 328 111 q 451 125 420 111 q 496 168 481 139 q 518 232 512 197 q 524 319 524 267 l 524 811 q 518 896 524 862 q 496 958 512 930 q 451 1000 481 987 q 374 1013 420 1013 q 298 1000 328 1013 q 252 958 268 987 q 231 896 237 930 q 225 811 225 862 l 225 319 q 231 232 225 267 q 252 168 237 197 q 298 125 268 139 z "},"Ô":{"ha":749,"x_min":67,"x_max":682,"o":"m 178 1218 l 298 1460 l 449 1460 l 570 1218 l 458 1218 l 374 1386 l 290 1218 l 178 1218 m 374 -12 q 230 13 290 -12 q 135 87 170 38 q 83 201 100 136 q 67 353 67 266 l 67 779 q 139 1045 67 954 q 374 1135 210 1135 q 610 1044 538 1135 q 682 779 682 953 l 682 352 q 609 82 682 176 q 374 -12 537 -12 m 298 125 q 313 118 298 125 q 374 111 328 111 q 451 125 420 111 q 496 168 481 139 q 518 232 512 197 q 524 319 524 267 l 524 811 q 518 896 524 862 q 496 958 512 930 q 451 1000 481 987 q 374 1013 420 1013 q 298 1000 328 1013 q 252 958 268 987 q 231 896 237 930 q 225 811 225 862 l 225 319 q 231 232 225 267 q 252 168 237 197 q 298 125 268 139 z "},"Õ":{"ha":749,"x_min":67,"x_max":682,"o":"m 466 1218 q 368 1252 431 1218 q 286 1286 304 1286 q 259 1274 268 1287 q 251 1230 251 1260 l 166 1230 q 286 1380 166 1383 q 388 1346 323 1379 q 466 1313 452 1313 q 491 1325 484 1312 q 498 1371 498 1338 l 582 1371 q 556 1259 582 1300 q 466 1218 530 1217 m 374 -12 q 230 13 290 -12 q 135 87 170 38 q 83 201 100 136 q 67 353 67 266 l 67 779 q 139 1045 67 954 q 374 1135 210 1135 q 610 1044 538 1135 q 682 779 682 953 l 682 352 q 609 82 682 176 q 374 -12 537 -12 m 298 125 q 313 118 298 125 q 374 111 328 111 q 451 125 420 111 q 496 168 481 139 q 518 232 512 197 q 524 319 524 267 l 524 811 q 518 896 524 862 q 496 958 512 930 q 451 1000 481 987 q 374 1013 420 1013 q 298 1000 328 1013 q 252 958 268 987 q 231 896 237 930 q 225 811 225 862 l 225 319 q 231 232 225 267 q 252 168 237 197 q 298 125 268 139 z "},"Ö":{"ha":749,"x_min":67,"x_max":682,"o":"m 418 1218 l 418 1371 l 568 1371 l 568 1218 l 418 1218 m 180 1218 l 180 1371 l 330 1371 l 330 1218 l 180 1218 m 374 -12 q 230 13 290 -12 q 135 87 170 38 q 83 201 100 136 q 67 353 67 266 l 67 779 q 139 1045 67 954 q 374 1135 210 1135 q 610 1044 538 1135 q 682 779 682 953 l 682 352 q 609 82 682 176 q 374 -12 537 -12 m 298 125 q 313 118 298 125 q 374 111 328 111 q 451 125 420 111 q 496 168 481 139 q 518 232 512 197 q 524 319 524 267 l 524 811 q 518 896 524 862 q 496 958 512 930 q 451 1000 481 987 q 374 1013 420 1013 q 298 1000 328 1013 q 252 958 268 987 q 231 896 237 930 q 225 811 225 862 l 225 319 q 231 232 225 267 q 252 168 237 197 q 298 125 268 139 z "},"×":{"ha":532,"x_min":68,"x_max":464,"o":"m 142 353 l 68 428 l 191 551 l 68 675 l 142 750 l 266 627 l 389 750 l 464 675 l 340 551 l 464 428 l 389 353 l 266 477 l 142 353 z "},"Ø":{"ha":750,"x_min":67,"x_max":682,"o":"m 298 125 q 374 111 328 111 q 451 125 420 111 q 496 168 481 139 q 518 232 512 197 q 524 319 524 267 l 524 811 q 518 896 524 862 q 503 946 513 922 l 285 132 q 298 125 292 128 m 222 -102 l 168 -85 l 199 28 q 135 87 160 52 q 83 201 100 136 q 67 353 67 266 l 67 779 q 139 1045 67 954 q 374 1135 210 1135 q 491 1120 440 1135 l 518 1223 l 573 1208 l 544 1099 q 610 1044 583 1078 q 682 779 682 954 l 682 352 q 609 82 682 176 q 374 -12 537 -12 q 251 5 304 -12 l 222 -102 m 458 997 q 450 1000 454 998 q 374 1013 420 1013 q 298 1000 328 1013 q 252 958 268 987 q 231 896 237 930 q 225 811 225 862 l 225 319 q 231 232 225 267 q 242 191 234 210 l 458 997 z "},"Ù":{"ha":755,"x_min":78,"x_max":677,"o":"m 340 1218 l 186 1493 l 336 1493 l 415 1218 l 340 1218 m 503 6 q 476 -3 503 6 q 378 -12 450 -12 q 253 6 306 -12 q 166 57 199 25 q 113 140 133 90 q 85 247 93 191 q 78 379 78 304 l 78 1124 l 227 1124 l 227 372 q 230 288 227 323 q 242 217 233 253 q 268 160 252 182 q 311 124 283 138 q 378 111 339 111 q 444 124 416 111 q 487 160 471 138 q 513 218 503 182 q 525 288 522 253 q 528 372 528 323 l 528 1124 l 677 1124 l 677 379 q 669 247 677 304 q 642 140 662 191 q 589 57 622 90 q 503 6 555 25 z "},"Ú":{"ha":755,"x_min":78,"x_max":677,"o":"m 340 1218 l 422 1493 l 570 1493 l 415 1218 l 340 1218 m 503 6 q 476 -3 503 6 q 378 -12 450 -12 q 253 6 306 -12 q 166 57 199 25 q 113 140 133 90 q 85 247 93 191 q 78 379 78 304 l 78 1124 l 227 1124 l 227 372 q 230 288 227 323 q 242 217 233 253 q 268 160 252 182 q 311 124 283 138 q 378 111 339 111 q 444 124 416 111 q 487 160 471 138 q 513 218 503 182 q 525 288 522 253 q 528 372 528 323 l 528 1124 l 677 1124 l 677 379 q 669 247 677 304 q 642 140 662 191 q 589 57 622 90 q 503 6 555 25 z "},"Û":{"ha":755,"x_min":78,"x_max":677,"o":"m 182 1218 l 302 1460 l 452 1460 l 573 1218 l 461 1218 l 377 1386 l 293 1218 l 182 1218 m 503 6 q 476 -3 503 6 q 378 -12 450 -12 q 253 6 306 -12 q 166 57 199 25 q 113 140 133 90 q 85 247 93 191 q 78 379 78 304 l 78 1124 l 227 1124 l 227 372 q 230 288 227 323 q 242 217 233 253 q 268 160 252 182 q 311 124 283 138 q 378 111 339 111 q 444 124 416 111 q 487 160 471 138 q 513 218 503 182 q 525 288 522 253 q 528 372 528 323 l 528 1124 l 677 1124 l 677 379 q 669 247 677 304 q 642 140 662 191 q 589 57 622 90 q 503 6 555 25 z "},"Ü":{"ha":755,"x_min":78,"x_max":677,"o":"m 422 1218 l 422 1371 l 572 1371 l 572 1218 l 422 1218 m 184 1218 l 184 1371 l 333 1371 l 333 1218 l 184 1218 m 503 6 q 476 -3 503 6 q 378 -12 450 -12 q 253 6 306 -12 q 166 57 199 25 q 113 140 133 90 q 85 247 93 191 q 78 379 78 304 l 78 1124 l 227 1124 l 227 372 q 230 288 227 323 q 242 217 233 253 q 268 160 252 182 q 311 124 283 138 q 378 111 339 111 q 444 124 416 111 q 487 160 471 138 q 513 218 503 182 q 525 288 522 253 q 528 372 528 323 l 528 1124 l 677 1124 l 677 379 q 669 247 677 304 q 642 140 662 191 q 589 57 622 90 q 503 6 555 25 z "},"Ý":{"ha":669,"x_min":17,"x_max":652,"o":"m 297 1218 l 379 1493 l 528 1493 l 372 1218 l 297 1218 m 260 0 l 260 397 l 17 1124 l 163 1124 l 334 583 l 504 1124 l 652 1124 l 410 397 l 410 0 l 260 0 z "},"Þ":{"ha":699,"x_min":88,"x_max":675,"o":"m 245 450 l 342 450 q 480 494 438 450 q 522 652 522 537 q 485 804 522 760 q 360 848 448 848 l 245 848 l 245 450 m 88 0 l 88 1124 l 245 1124 l 245 977 l 407 977 q 609 891 543 977 q 675 651 675 805 q 381 324 675 324 l 245 324 l 245 0 l 88 0 z "},"ß":{"ha":709,"x_min":77,"x_max":633,"o":"m 305 -12 l 305 111 q 396 124 360 111 q 452 166 433 138 q 478 232 471 195 q 486 322 486 268 q 443 468 486 414 q 316 522 401 522 l 317 644 q 379 662 353 644 q 419 709 406 679 q 440 773 433 739 q 446 848 446 808 q 441 916 446 888 q 425 968 437 944 q 390 1004 413 991 q 334 1016 368 1016 q 249 975 273 1016 q 226 852 226 935 l 226 0 l 77 0 l 77 850 q 138 1061 77 985 q 316 1137 199 1137 q 522 1063 452 1137 q 591 848 591 989 q 557 691 591 751 q 454 595 524 631 q 587 500 540 572 q 633 323 633 428 q 554 73 633 158 q 305 -12 475 -12 z "},"à":{"ha":591,"x_min":58,"x_max":537,"o":"m 260 897 l 106 1171 l 256 1171 l 335 897 l 260 897 m 278 117 q 334 140 307 117 q 375 184 361 162 l 375 411 q 272 346 297 367 q 207 220 207 293 q 225 144 207 172 q 278 117 243 117 m 219 -12 q 104 45 151 -12 q 58 175 58 102 q 76 278 58 232 q 116 353 95 325 q 189 413 137 382 q 269 456 241 444 q 369 498 298 469 q 375 501 373 500 l 375 559 q 359 670 375 637 q 294 703 343 703 q 210 589 210 703 l 210 549 l 63 554 q 64 584 63 566 q 132 759 71 704 q 304 814 192 814 q 472 750 420 814 q 524 559 524 687 l 524 193 q 537 0 524 102 l 401 0 q 382 119 387 67 q 324 26 365 64 q 219 -12 283 -12 z "},"á":{"ha":591,"x_min":58,"x_max":537,"o":"m 260 897 l 342 1171 l 490 1171 l 335 897 l 260 897 m 278 117 q 334 140 307 117 q 375 184 361 162 l 375 411 q 272 346 297 367 q 207 220 207 293 q 225 144 207 172 q 278 117 243 117 m 219 -12 q 104 45 151 -12 q 58 175 58 102 q 76 278 58 232 q 116 353 95 325 q 189 413 137 382 q 269 456 241 444 q 369 498 298 469 q 375 501 373 500 l 375 559 q 359 670 375 637 q 294 703 343 703 q 210 589 210 703 l 210 549 l 63 554 q 64 584 63 566 q 132 759 71 704 q 304 814 192 814 q 472 750 420 814 q 524 559 524 687 l 524 193 q 537 0 524 102 l 401 0 q 382 119 387 67 q 324 26 365 64 q 219 -12 283 -12 z "},"â":{"ha":591,"x_min":58,"x_max":537,"o":"m 102 897 l 222 1139 l 372 1139 l 493 897 l 381 897 l 297 1065 l 213 897 l 102 897 m 278 117 q 334 140 307 117 q 375 184 361 162 l 375 411 q 272 346 297 367 q 207 220 207 293 q 225 144 207 172 q 278 117 243 117 m 219 -12 q 104 45 151 -12 q 58 175 58 102 q 76 278 58 232 q 116 353 95 325 q 189 413 137 382 q 269 456 241 444 q 369 498 298 469 q 375 501 373 500 l 375 559 q 359 670 375 637 q 294 703 343 703 q 210 589 210 703 l 210 549 l 63 554 q 64 584 63 566 q 132 759 71 704 q 304 814 192 814 q 472 750 420 814 q 524 559 524 687 l 524 193 q 537 0 524 102 l 401 0 q 382 119 387 67 q 324 26 365 64 q 219 -12 283 -12 z "},"ã":{"ha":591,"x_min":58,"x_max":537,"o":"m 389 897 q 291 930 354 897 q 210 964 228 964 q 183 952 191 966 q 174 909 174 939 l 90 909 q 210 1059 90 1061 q 311 1025 246 1058 q 389 991 376 991 q 414 1004 407 991 q 421 1049 421 1017 l 505 1049 q 479 937 505 979 q 389 897 454 896 m 278 117 q 334 140 307 117 q 375 184 361 162 l 375 411 q 272 346 297 367 q 207 220 207 293 q 225 144 207 172 q 278 117 243 117 m 219 -12 q 104 45 151 -12 q 58 175 58 102 q 76 278 58 232 q 116 353 95 325 q 189 413 137 382 q 269 456 241 444 q 369 498 298 469 q 375 501 373 500 l 375 559 q 359 670 375 637 q 294 703 343 703 q 210 589 210 703 l 210 549 l 63 554 q 64 584 63 566 q 132 759 71 704 q 304 814 192 814 q 472 750 420 814 q 524 559 524 687 l 524 193 q 537 0 524 102 l 401 0 q 382 119 387 67 q 324 26 365 64 q 219 -12 283 -12 z "},"ä":{"ha":591,"x_min":58,"x_max":537,"o":"m 342 897 l 342 1050 l 492 1050 l 492 897 l 342 897 m 104 897 l 104 1050 l 253 1050 l 253 897 l 104 897 m 278 117 q 334 140 307 117 q 375 184 361 162 l 375 411 q 272 346 297 367 q 207 220 207 293 q 225 144 207 172 q 278 117 243 117 m 219 -12 q 104 45 151 -12 q 58 175 58 102 q 76 278 58 232 q 116 353 95 325 q 189 413 137 382 q 269 456 241 444 q 369 498 298 469 q 375 501 373 500 l 375 559 q 359 670 375 637 q 294 703 343 703 q 210 589 210 703 l 210 549 l 63 554 q 64 584 63 566 q 132 759 71 704 q 304 814 192 814 q 472 750 420 814 q 524 559 524 687 l 524 193 q 537 0 524 102 l 401 0 q 382 119 387 67 q 324 26 365 64 q 219 -12 283 -12 z "},"å":{"ha":591,"x_min":58,"x_max":537,"o":"m 239 993 q 250 982 239 993 q 297 972 260 972 q 355 993 334 972 q 376 1052 376 1015 q 355 1111 376 1090 q 297 1132 334 1132 q 239 1111 260 1132 q 218 1052 218 1090 q 239 993 218 1015 m 410 939 q 388 918 410 939 q 297 897 367 897 q 185 939 227 897 q 142 1052 142 981 q 185 1164 142 1122 q 297 1206 227 1206 q 410 1164 367 1206 q 452 1052 452 1122 q 410 939 452 981 m 278 117 q 334 140 307 117 q 375 184 361 162 l 375 411 q 272 346 297 367 q 207 220 207 293 q 225 144 207 172 q 278 117 243 117 m 219 -12 q 104 45 151 -12 q 58 175 58 102 q 76 278 58 232 q 116 353 95 325 q 189 413 137 382 q 269 456 241 444 q 369 498 298 469 q 375 501 373 500 l 375 559 q 359 670 375 637 q 294 703 343 703 q 210 589 210 703 l 210 549 l 63 554 q 64 584 63 566 q 132 759 71 704 q 304 814 192 814 q 472 750 420 814 q 524 559 524 687 l 524 193 q 537 0 524 102 l 401 0 q 382 119 387 67 q 324 26 365 64 q 219 -12 283 -12 z "},"æ":{"ha":902,"x_min":58,"x_max":843,"o":"m 528 473 l 604 490 q 679 519 656 500 q 701 585 701 537 q 680 663 701 633 q 616 693 660 693 q 548 656 568 693 q 528 552 528 620 l 528 473 m 278 104 q 350 154 320 104 q 379 294 379 203 l 379 368 q 315 347 350 360 q 233 292 261 324 q 205 208 205 259 q 227 132 206 160 q 278 104 248 104 m 218 -12 q 103 48 149 -7 q 58 175 58 102 q 113 337 58 279 q 271 425 168 396 l 379 454 l 379 559 q 361 664 379 629 q 295 700 343 700 q 208 568 208 700 l 60 568 q 123 748 61 682 q 295 814 184 814 q 397 788 355 814 q 454 714 439 762 q 517 787 475 760 q 616 814 559 814 q 781 749 724 814 q 837 571 837 685 q 829 521 837 543 q 804 483 821 499 q 770 456 787 467 q 725 436 753 445 q 677 423 697 428 q 626 412 658 418 l 528 392 l 528 355 q 536 195 528 238 q 615 106 555 107 q 677 143 660 106 q 694 245 694 180 l 694 279 l 843 279 l 843 245 q 787 55 843 122 q 614 -12 731 -12 q 493 33 541 -12 q 435 152 445 77 q 218 -12 363 -22 z "},"ç":{"ha":570,"x_min":60,"x_max":513,"o":"m 216 -312 l 216 -237 q 288 -248 253 -248 q 347 -236 322 -248 q 372 -199 371 -223 q 366 -171 372 -183 q 350 -151 359 -159 q 322 -136 340 -144 q 291 -125 304 -129 q 254 -116 278 -122 l 254 0 l 330 0 l 330 -78 q 437 -119 392 -88 q 484 -197 481 -149 q 464 -270 486 -239 q 404 -313 441 -300 q 317 -326 366 -326 q 216 -312 268 -326 m 294 -12 q 194 4 236 -12 q 127 45 153 19 q 86 113 101 71 q 66 200 71 155 q 60 308 60 245 l 60 494 q 70 629 60 574 q 104 728 79 684 q 176 793 130 772 q 294 814 223 814 q 402 798 359 814 q 470 749 446 783 q 504 671 494 716 q 513 562 513 627 l 513 513 l 379 513 l 379 562 q 361 673 379 642 q 296 705 344 705 q 225 667 242 705 q 209 524 209 629 l 209 271 q 228 134 209 170 q 297 98 246 98 q 334 105 319 98 q 358 124 349 113 q 372 154 367 135 q 378 192 376 173 q 379 238 379 210 l 379 303 l 513 303 l 513 248 q 503 138 513 183 q 469 57 493 92 q 401 5 444 22 q 294 -12 358 -12 z "},"è":{"ha":585,"x_min":60,"x_max":526,"o":"m 256 897 l 102 1171 l 251 1171 l 330 897 l 256 897 m 209 479 l 379 479 l 379 552 q 377 606 379 584 q 371 648 376 627 q 357 680 366 668 q 333 698 348 691 q 296 705 317 705 q 226 667 243 705 q 209 523 209 629 l 209 479 m 298 -12 q 180 8 227 -12 q 107 71 134 28 q 71 170 81 113 q 60 309 60 227 l 60 493 q 72 634 60 576 q 109 733 83 691 q 182 794 136 774 q 297 814 229 814 q 373 806 340 814 q 430 783 406 798 q 471 745 454 769 q 499 694 488 721 q 515 629 509 667 q 524 553 522 591 q 526 464 526 515 l 525 399 l 209 399 l 209 292 q 209 283 209 289 q 209 233 209 249 q 212 190 210 216 q 220 151 214 164 q 235 124 225 138 q 259 104 244 110 q 296 98 275 98 q 362 131 345 98 q 379 231 379 164 l 379 279 l 524 279 l 524 248 q 298 -12 524 -12 z "},"é":{"ha":585,"x_min":60,"x_max":526,"o":"m 255 897 l 337 1171 l 486 1171 l 330 897 l 255 897 m 209 479 l 379 479 l 379 552 q 377 606 379 584 q 371 648 376 627 q 357 680 366 668 q 333 698 348 691 q 296 705 317 705 q 226 667 243 705 q 209 523 209 629 l 209 479 m 298 -12 q 180 8 227 -12 q 107 71 134 28 q 71 170 81 113 q 60 309 60 227 l 60 493 q 72 634 60 576 q 109 733 83 691 q 182 794 136 774 q 297 814 229 814 q 373 806 340 814 q 430 783 406 798 q 471 745 454 769 q 499 694 488 721 q 515 629 509 667 q 524 553 522 591 q 526 464 526 515 l 525 399 l 209 399 l 209 292 q 209 283 209 289 q 209 233 209 249 q 212 190 210 216 q 220 151 214 164 q 235 124 225 138 q 259 104 244 110 q 296 98 275 98 q 362 131 345 98 q 379 231 379 164 l 379 279 l 524 279 l 524 248 q 298 -12 524 -12 z "},"ê":{"ha":585,"x_min":60,"x_max":526,"o":"m 97 897 l 217 1139 l 368 1139 l 488 897 l 376 897 l 292 1065 l 208 897 l 97 897 m 209 479 l 379 479 l 379 552 q 377 606 379 584 q 371 648 376 627 q 357 680 366 668 q 333 698 348 691 q 296 705 317 705 q 226 667 243 705 q 209 523 209 629 l 209 479 m 298 -12 q 180 8 227 -12 q 107 71 134 28 q 71 170 81 113 q 60 309 60 227 l 60 493 q 72 634 60 576 q 109 733 83 691 q 182 794 136 774 q 297 814 229 814 q 373 806 340 814 q 430 783 406 798 q 471 745 454 769 q 499 694 488 721 q 515 629 509 667 q 524 553 522 591 q 526 464 526 515 l 525 399 l 209 399 l 209 292 q 209 283 209 289 q 209 233 209 249 q 212 190 210 216 q 220 151 214 164 q 235 124 225 138 q 259 104 244 110 q 296 98 275 98 q 362 131 345 98 q 379 231 379 164 l 379 279 l 524 279 l 524 248 q 298 -12 524 -12 z "},"ë":{"ha":585,"x_min":60,"x_max":526,"o":"m 337 897 l 337 1050 l 487 1050 l 487 897 l 337 897 m 99 897 l 99 1050 l 248 1050 l 248 897 l 99 897 m 209 479 l 379 479 l 379 552 q 377 606 379 584 q 371 648 376 627 q 357 680 366 668 q 333 698 348 691 q 296 705 317 705 q 226 667 243 705 q 209 523 209 629 l 209 479 m 298 -12 q 180 8 227 -12 q 107 71 134 28 q 71 170 81 113 q 60 309 60 227 l 60 493 q 72 634 60 576 q 109 733 83 691 q 182 794 136 774 q 297 814 229 814 q 373 806 340 814 q 430 783 406 798 q 471 745 454 769 q 499 694 488 721 q 515 629 509 667 q 524 553 522 591 q 526 464 526 515 l 525 399 l 209 399 l 209 292 q 209 283 209 289 q 209 233 209 249 q 212 190 210 216 q 220 151 214 164 q 235 124 225 138 q 259 104 244 110 q 296 98 275 98 q 362 131 345 98 q 379 231 379 164 l 379 279 l 524 279 l 524 248 q 298 -12 524 -12 z "},"ì":{"ha":311,"x_min":-32,"x_max":233,"o":"m 122 897 l -32 1171 l 117 1171 l 197 897 l 122 897 m 85 0 l 85 803 l 233 803 l 233 0 l 85 0 z "},"í":{"ha":311,"x_min":85,"x_max":352,"o":"m 121 897 l 203 1171 l 352 1171 l 197 897 l 121 897 m 85 0 l 85 803 l 233 803 l 233 0 l 85 0 z "},"î":{"ha":311,"x_min":-37,"x_max":355,"o":"m -37 897 l 83 1139 l 234 1139 l 355 897 l 243 897 l 159 1065 l 75 897 l -37 897 m 85 0 l 85 803 l 233 803 l 233 0 l 85 0 z "},"ï":{"ha":311,"x_min":-35,"x_max":353,"o":"m 203 897 l 203 1050 l 353 1050 l 353 897 l 203 897 m -35 897 l -35 1050 l 115 1050 l 115 897 l -35 897 m 85 0 l 85 803 l 233 803 l 233 0 l 85 0 z "},"ð":{"ha":654,"x_min":72,"x_max":614,"o":"m 220 395 q 220 352 220 378 q 219 309 220 326 q 219 269 219 292 q 221 231 220 246 q 225 196 222 215 q 233 165 228 178 q 245 141 237 153 q 263 121 253 128 q 288 110 273 114 q 319 105 302 105 q 369 115 349 105 q 401 140 389 125 q 419 183 412 156 q 427 237 425 210 q 429 304 429 264 q 427 605 429 601 q 422 610 427 606 q 416 616 418 614 q 409 623 414 618 q 400 630 404 627 q 390 636 396 632 q 377 643 383 640 q 362 647 370 645 q 346 651 355 650 q 328 652 337 652 q 244 591 267 652 q 220 395 220 531 m 577 330 q 515 77 577 165 q 315 -12 454 -12 q 211 3 254 -12 q 141 43 168 18 q 98 112 114 69 q 77 201 83 154 q 72 312 72 248 l 72 406 q 75 504 72 460 q 87 591 79 547 q 112 666 96 634 q 152 723 128 698 q 211 760 176 747 q 290 773 245 773 q 425 723 370 773 q 376 909 413 852 l 211 858 l 211 934 l 336 969 q 254 1022 306 1004 q 107 1040 202 1039 l 114 1137 q 327 1105 247 1137 q 452 1007 406 1074 l 614 1055 l 614 979 l 490 945 q 550 754 524 876 q 577 524 577 632 l 577 330 z "},"ñ":{"ha":610,"x_min":75,"x_max":540,"o":"m 399 897 q 301 930 364 897 q 220 964 238 964 q 193 952 201 966 q 184 909 184 939 l 100 909 q 220 1059 100 1061 q 321 1025 256 1058 q 399 991 386 991 q 424 1004 417 991 q 431 1049 431 1017 l 515 1049 q 490 937 515 979 q 399 897 464 896 m 75 0 l 75 803 l 224 803 l 224 724 q 420 814 319 814 q 478 800 454 814 q 516 761 503 785 q 534 709 529 736 q 540 650 540 682 l 540 0 l 391 0 l 391 606 q 378 675 391 652 q 328 697 364 697 q 224 648 283 697 l 224 0 l 75 0 z "},"ò":{"ha":589,"x_min":60,"x_max":528,"o":"m 257 897 l 103 1171 l 252 1171 l 332 897 l 257 897 m 294 -12 q 183 9 229 -12 q 111 69 137 29 q 72 162 84 109 q 60 285 60 214 l 60 517 q 72 641 60 588 q 111 733 84 693 q 183 793 137 773 q 294 814 229 814 q 475 738 421 814 q 528 517 528 662 l 528 285 q 475 64 528 140 q 294 -12 421 -12 m 294 98 q 330 104 315 98 q 354 125 345 111 q 368 152 363 139 q 376 190 374 165 q 379 230 378 215 q 379 275 379 245 l 379 527 q 379 566 379 553 q 377 601 378 578 q 373 635 376 623 q 363 663 370 647 q 348 686 357 678 q 326 699 339 693 q 294 705 312 705 q 263 699 277 705 q 240 686 249 693 q 225 663 231 678 q 215 635 218 647 q 211 601 212 623 q 209 566 210 578 q 209 527 209 553 l 209 275 q 209 237 209 250 q 211 201 210 224 q 215 167 212 179 q 225 140 218 155 q 240 117 231 125 q 263 104 249 109 q 294 98 277 98 z "},"ó":{"ha":589,"x_min":60,"x_max":528,"o":"m 256 897 l 338 1171 l 487 1171 l 332 897 l 256 897 m 294 -12 q 183 9 229 -12 q 111 69 137 29 q 72 162 84 109 q 60 285 60 214 l 60 517 q 72 641 60 588 q 111 733 84 693 q 183 793 137 773 q 294 814 229 814 q 475 738 421 814 q 528 517 528 662 l 528 285 q 475 64 528 140 q 294 -12 421 -12 m 294 98 q 330 104 315 98 q 354 125 345 111 q 368 152 363 139 q 376 190 374 165 q 379 230 378 215 q 379 275 379 245 l 379 527 q 379 566 379 553 q 377 601 378 578 q 373 635 376 623 q 363 663 370 647 q 348 686 357 678 q 326 699 339 693 q 294 705 312 705 q 263 699 277 705 q 240 686 249 693 q 225 663 231 678 q 215 635 218 647 q 211 601 212 623 q 209 566 210 578 q 209 527 209 553 l 209 275 q 209 237 209 250 q 211 201 210 224 q 215 167 212 179 q 225 140 218 155 q 240 117 231 125 q 263 104 249 109 q 294 98 277 98 z "},"ô":{"ha":589,"x_min":60,"x_max":528,"o":"m 98 897 l 218 1139 l 369 1139 l 490 897 l 378 897 l 294 1065 l 210 897 l 98 897 m 294 -12 q 183 9 229 -12 q 111 69 137 29 q 72 162 84 109 q 60 285 60 214 l 60 517 q 72 641 60 588 q 111 733 84 693 q 183 793 137 773 q 294 814 229 814 q 475 738 421 814 q 528 517 528 662 l 528 285 q 475 64 528 140 q 294 -12 421 -12 m 294 98 q 330 104 315 98 q 354 125 345 111 q 368 152 363 139 q 376 190 374 165 q 379 230 378 215 q 379 275 379 245 l 379 527 q 379 566 379 553 q 377 601 378 578 q 373 635 376 623 q 363 663 370 647 q 348 686 357 678 q 326 699 339 693 q 294 705 312 705 q 263 699 277 705 q 240 686 249 693 q 225 663 231 678 q 215 635 218 647 q 211 601 212 623 q 209 566 210 578 q 209 527 209 553 l 209 275 q 209 237 209 250 q 211 201 210 224 q 215 167 212 179 q 225 140 218 155 q 240 117 231 125 q 263 104 249 109 q 294 98 277 98 z "},"õ":{"ha":589,"x_min":60,"x_max":528,"o":"m 386 897 q 288 930 351 897 q 206 964 224 964 q 179 952 188 966 q 171 909 171 939 l 86 909 q 206 1059 86 1061 q 308 1025 243 1058 q 386 991 372 991 q 411 1004 404 991 q 418 1049 418 1017 l 502 1049 q 476 937 502 979 q 386 897 450 896 m 294 -12 q 183 9 229 -12 q 111 69 137 29 q 72 162 84 109 q 60 285 60 214 l 60 517 q 72 641 60 588 q 111 733 84 693 q 183 793 137 773 q 294 814 229 814 q 475 738 421 814 q 528 517 528 662 l 528 285 q 475 64 528 140 q 294 -12 421 -12 m 294 98 q 330 104 315 98 q 354 125 345 111 q 368 152 363 139 q 376 190 374 165 q 379 230 378 215 q 379 275 379 245 l 379 527 q 379 566 379 553 q 377 601 378 578 q 373 635 376 623 q 363 663 370 647 q 348 686 357 678 q 326 699 339 693 q 294 705 312 705 q 263 699 277 705 q 240 686 249 693 q 225 663 231 678 q 215 635 218 647 q 211 601 212 623 q 209 566 210 578 q 209 527 209 553 l 209 275 q 209 237 209 250 q 211 201 210 224 q 215 167 212 179 q 225 140 218 155 q 240 117 231 125 q 263 104 249 109 q 294 98 277 98 z "},"ö":{"ha":589,"x_min":60,"x_max":528,"o":"m 338 897 l 338 1050 l 488 1050 l 488 897 l 338 897 m 100 897 l 100 1050 l 250 1050 l 250 897 l 100 897 m 294 -12 q 183 9 229 -12 q 111 69 137 29 q 72 162 84 109 q 60 285 60 214 l 60 517 q 72 641 60 588 q 111 733 84 693 q 183 793 137 773 q 294 814 229 814 q 475 738 421 814 q 528 517 528 662 l 528 285 q 475 64 528 140 q 294 -12 421 -12 m 294 98 q 330 104 315 98 q 354 125 345 111 q 368 152 363 139 q 376 190 374 165 q 379 230 378 215 q 379 275 379 245 l 379 527 q 379 566 379 553 q 377 601 378 578 q 373 635 376 623 q 363 663 370 647 q 348 686 357 678 q 326 699 339 693 q 294 705 312 705 q 263 699 277 705 q 240 686 249 693 q 225 663 231 678 q 215 635 218 647 q 211 601 212 623 q 209 566 210 578 q 209 527 209 553 l 209 275 q 209 237 209 250 q 211 201 210 224 q 215 167 212 179 q 225 140 218 155 q 240 117 231 125 q 263 104 249 109 q 294 98 277 98 z "},"÷":{"ha":481,"x_min":26,"x_max":455,"o":"m 180 732 l 180 886 l 298 886 l 298 732 l 180 732 m 26 517 l 26 625 l 455 625 l 455 517 l 26 517 m 180 239 l 180 393 l 298 393 l 298 239 l 180 239 z "},"ø":{"ha":589,"x_min":60,"x_max":528,"o":"m 294 98 q 330 104 315 98 q 354 125 345 111 q 368 152 363 139 q 376 190 374 165 q 379 230 378 215 q 379 275 379 245 l 379 527 q 379 549 379 539 l 229 132 q 240 117 234 122 q 263 103 249 109 q 294 98 277 98 m 133 -132 l 89 -117 l 142 34 q 111 69 124 49 q 72 162 84 109 q 60 285 60 214 l 60 517 q 72 641 60 588 q 111 733 84 693 q 183 793 137 773 q 294 814 229 814 q 410 791 363 814 l 458 928 l 510 911 l 456 760 q 475 738 467 750 q 528 517 528 662 l 528 285 q 475 64 528 140 q 294 -12 421 -12 q 184 8 229 -12 l 133 -132 m 364 661 q 363 663 364 662 q 348 686 357 678 q 326 699 339 693 q 294 705 312 705 q 263 699 277 705 q 240 686 249 693 q 225 663 231 678 q 215 635 218 647 q 211 601 212 623 q 209 566 210 578 q 209 527 209 553 l 209 275 q 209 237 209 250 q 210 224 209 231 l 364 661 z "},"ù":{"ha":611,"x_min":70,"x_max":534,"o":"m 264 897 l 111 1171 l 260 1171 l 339 897 l 264 897 m 190 -11 q 131 3 156 -11 q 94 42 106 18 q 75 94 81 67 q 70 153 70 121 l 70 803 l 218 803 l 218 197 q 232 128 218 151 q 282 106 245 106 q 386 155 327 106 l 386 803 l 534 803 l 534 0 l 386 0 l 386 79 q 190 -11 291 -11 z "},"ú":{"ha":611,"x_min":70,"x_max":534,"o":"m 264 897 l 347 1171 l 495 1171 l 340 897 l 264 897 m 190 -11 q 131 3 156 -11 q 94 42 106 18 q 75 94 81 67 q 70 153 70 121 l 70 803 l 218 803 l 218 197 q 232 128 218 151 q 282 106 245 106 q 386 155 327 106 l 386 803 l 534 803 l 534 0 l 386 0 l 386 79 q 190 -11 291 -11 z "},"û":{"ha":611,"x_min":70,"x_max":534,"o":"m 106 897 l 227 1139 l 377 1139 l 498 897 l 386 897 l 302 1065 l 218 897 l 106 897 m 190 -11 q 131 3 156 -11 q 94 42 106 18 q 75 94 81 67 q 70 153 70 121 l 70 803 l 218 803 l 218 197 q 232 128 218 151 q 282 106 245 106 q 386 155 327 106 l 386 803 l 534 803 l 534 0 l 386 0 l 386 79 q 190 -11 291 -11 z "},"ü":{"ha":611,"x_min":70,"x_max":534,"o":"m 346 897 l 346 1050 l 496 1050 l 496 897 l 346 897 m 108 897 l 108 1050 l 257 1050 l 257 897 l 108 897 m 190 -11 q 131 3 156 -11 q 94 42 106 18 q 75 94 81 67 q 70 153 70 121 l 70 803 l 218 803 l 218 197 q 232 128 218 151 q 282 106 245 106 q 386 155 327 106 l 386 803 l 534 803 l 534 0 l 386 0 l 386 79 q 190 -11 291 -11 z "},"ý":{"ha":544,"x_min":16,"x_max":530,"o":"m 235 897 l 317 1171 l 466 1171 l 311 897 l 235 897 m 62 -201 l 62 -88 q 189 -69 161 -88 q 203 9 216 -50 q 178 119 184 93 q 97 461 154 221 q 16 803 41 701 l 167 803 l 275 203 l 379 803 l 530 803 l 337 -44 q 256 -165 318 -130 q 81 -201 194 -201 l 62 -201 z "},"þ":{"ha":621,"x_min":77,"x_max":561,"o":"m 332 106 q 364 113 350 106 q 386 135 378 120 q 400 167 395 150 q 408 211 406 184 q 412 260 411 237 q 412 317 412 283 l 412 512 q 411 570 412 546 q 404 620 409 595 q 390 662 399 646 q 364 687 380 677 q 326 697 348 697 q 225 656 275 697 l 225 141 q 332 106 274 106 m 77 -264 l 77 1124 l 225 1124 l 225 739 q 378 814 289 814 q 449 799 418 814 q 500 756 481 783 q 532 700 519 730 q 551 632 545 669 q 559 568 557 595 q 561 512 561 541 l 561 318 q 361 -12 561 -12 q 225 60 290 -12 l 225 -264 l 77 -264 z "},"ÿ":{"ha":544,"x_min":16,"x_max":530,"o":"m 317 897 l 317 1050 l 467 1050 l 467 897 l 317 897 m 79 897 l 79 1050 l 229 1050 l 229 897 l 79 897 m 62 -201 l 62 -88 q 189 -69 161 -88 q 203 9 216 -50 q 178 119 184 93 q 97 461 154 221 q 16 803 41 701 l 167 803 l 275 203 l 379 803 l 530 803 l 337 -44 q 256 -165 318 -130 q 81 -201 194 -201 l 62 -201 z "},"Ā":{"ha":683,"x_min":26,"x_max":657,"o":"m 208 1218 l 208 1308 l 475 1308 l 475 1218 l 208 1218 m 248 395 l 436 395 l 342 903 l 248 395 m 26 0 l 266 1124 l 417 1124 l 657 0 l 508 0 l 456 283 l 228 283 l 174 0 l 26 0 z "},"ā":{"ha":591,"x_min":58,"x_max":537,"o":"m 163 897 l 163 986 l 431 986 l 431 897 l 163 897 m 278 117 q 334 140 307 117 q 375 184 361 162 l 375 411 q 272 346 297 367 q 207 220 207 293 q 225 144 207 172 q 278 117 243 117 m 219 -12 q 104 45 151 -12 q 58 175 58 102 q 76 278 58 232 q 116 353 95 325 q 189 413 137 382 q 269 456 241 444 q 369 498 298 469 q 375 501 373 500 l 375 559 q 359 670 375 637 q 294 703 343 703 q 210 589 210 703 l 210 549 l 63 554 q 64 584 63 566 q 132 759 71 704 q 304 814 192 814 q 472 750 420 814 q 524 559 524 687 l 524 193 q 537 0 524 102 l 401 0 q 382 119 387 67 q 324 26 365 64 q 219 -12 283 -12 z "},"Ă":{"ha":683,"x_min":26,"x_max":657,"o":"m 341 1218 q 146 1424 148 1218 l 233 1424 q 261 1331 234 1360 q 341 1302 288 1302 q 421 1331 395 1302 q 449 1424 448 1360 l 536 1424 q 341 1218 536 1218 m 248 395 l 436 395 l 342 903 l 248 395 m 26 0 l 266 1124 l 417 1124 l 657 0 l 508 0 l 456 283 l 228 283 l 174 0 l 26 0 z "},"ă":{"ha":591,"x_min":58,"x_max":537,"o":"m 297 897 q 102 1103 104 897 l 189 1103 q 217 1009 190 1038 q 297 981 243 981 q 377 1010 351 981 q 405 1103 404 1039 l 492 1103 q 297 897 492 897 m 278 117 q 334 140 307 117 q 375 184 361 162 l 375 411 q 272 346 297 367 q 207 220 207 293 q 225 144 207 172 q 278 117 243 117 m 219 -12 q 104 45 151 -12 q 58 175 58 102 q 76 278 58 232 q 116 353 95 325 q 189 413 137 382 q 269 456 241 444 q 369 498 298 469 q 375 501 373 500 l 375 559 q 359 670 375 637 q 294 703 343 703 q 210 589 210 703 l 210 549 l 63 554 q 64 584 63 566 q 132 759 71 704 q 304 814 192 814 q 472 750 420 814 q 524 559 524 687 l 524 193 q 537 0 524 102 l 401 0 q 382 119 387 67 q 324 26 365 64 q 219 -12 283 -12 z "},"Ą":{"ha":683,"x_min":26,"x_max":663,"o":"m 637 -316 q 569 -315 596 -316 q 511 -310 542 -313 q 462 -298 481 -306 q 427 -277 444 -290 q 403 -244 410 -264 q 395 -197 395 -224 q 444 -73 395 -132 q 549 5 492 -13 l 625 5 q 602 -22 621 0 q 575 -54 584 -43 q 551 -87 567 -65 q 528 -123 536 -109 q 514 -158 520 -138 q 507 -193 507 -177 q 513 -216 507 -206 q 529 -230 518 -225 q 551 -238 539 -235 q 579 -242 562 -241 q 608 -242 595 -242 q 637 -241 620 -242 q 663 -241 655 -241 l 637 -316 m 248 395 l 436 395 l 342 903 l 248 395 m 26 0 l 266 1124 l 417 1124 l 657 0 l 508 0 l 456 283 l 228 283 l 174 0 l 26 0 z "},"ą":{"ha":591,"x_min":58,"x_max":551,"o":"m 524 -316 q 456 -315 484 -316 q 399 -310 429 -313 q 350 -298 368 -306 q 314 -277 331 -290 q 290 -244 298 -264 q 283 -197 283 -224 q 331 -73 283 -132 q 436 5 379 -13 l 512 5 q 490 -22 508 0 q 463 -54 471 -43 q 439 -87 454 -65 q 415 -123 423 -109 q 401 -158 408 -138 q 395 -193 395 -177 q 400 -216 395 -206 q 416 -230 406 -225 q 438 -238 427 -235 q 466 -242 450 -241 q 495 -242 483 -242 q 525 -241 507 -242 q 551 -241 543 -241 l 524 -316 m 278 117 q 334 140 307 117 q 375 184 361 162 l 375 411 q 272 346 297 367 q 207 220 207 293 q 225 144 207 172 q 278 117 243 117 m 219 -12 q 104 45 151 -12 q 58 175 58 102 q 76 278 58 232 q 116 353 95 325 q 189 413 137 382 q 269 456 241 444 q 369 498 298 469 q 375 501 373 500 l 375 559 q 359 670 375 637 q 294 703 343 703 q 210 589 210 703 l 210 549 l 63 554 q 64 584 63 566 q 132 759 71 704 q 304 814 192 814 q 472 750 420 814 q 524 559 524 687 l 524 193 q 537 0 524 102 l 401 0 q 382 119 387 67 q 324 26 365 64 q 219 -12 283 -12 z "},"Ć":{"ha":715,"x_min":67,"x_max":652,"o":"m 322 1218 l 404 1493 l 553 1493 l 397 1218 l 322 1218 m 369 -12 q 246 7 299 -12 q 160 58 193 26 q 105 139 126 91 q 75 241 83 188 q 67 361 67 295 l 67 759 q 76 886 67 830 q 105 989 84 941 q 160 1069 126 1038 q 247 1118 194 1100 q 369 1135 299 1135 q 587 1053 521 1135 q 652 812 652 971 l 652 722 l 504 722 l 504 802 q 504 842 504 827 q 502 878 503 857 q 498 912 501 900 q 491 941 496 924 q 480 966 487 957 q 463 986 473 975 q 440 1001 453 996 q 410 1010 427 1006 q 370 1013 392 1013 q 313 1006 338 1013 q 273 984 289 999 q 248 950 258 968 q 233 903 238 932 q 227 847 229 874 q 225 781 225 821 l 225 336 q 257 160 225 210 q 370 111 289 111 q 424 117 401 111 q 461 140 447 124 q 485 172 476 155 q 498 218 494 189 q 503 271 502 247 q 504 335 504 296 l 504 418 l 652 418 l 652 334 q 644 219 652 270 q 616 124 636 168 q 565 50 597 79 q 484 4 533 21 q 369 -12 434 -12 z "},"ć":{"ha":570,"x_min":60,"x_max":513,"o":"m 250 897 l 332 1171 l 480 1171 l 325 897 l 250 897 m 294 -12 q 194 4 236 -12 q 127 45 153 19 q 86 113 101 71 q 66 200 71 155 q 60 308 60 245 l 60 494 q 70 629 60 574 q 104 728 79 684 q 176 793 130 772 q 294 814 223 814 q 402 798 359 814 q 470 749 446 783 q 504 671 494 716 q 513 562 513 627 l 513 513 l 379 513 l 379 562 q 361 673 379 642 q 296 705 344 705 q 225 667 242 705 q 209 524 209 629 l 209 271 q 228 134 209 170 q 297 98 246 98 q 334 105 319 98 q 358 124 349 113 q 372 154 367 135 q 378 192 376 173 q 379 238 379 210 l 379 303 l 513 303 l 513 248 q 503 138 513 183 q 469 57 493 92 q 401 5 444 22 q 294 -12 358 -12 z "},"Ĉ":{"ha":715,"x_min":67,"x_max":652,"o":"m 164 1218 l 284 1460 l 435 1460 l 555 1218 l 444 1218 l 359 1386 l 275 1218 l 164 1218 m 369 -12 q 246 7 299 -12 q 160 58 193 26 q 105 139 126 91 q 75 241 83 188 q 67 361 67 295 l 67 759 q 76 886 67 830 q 105 989 84 941 q 160 1069 126 1038 q 247 1118 194 1100 q 369 1135 299 1135 q 587 1053 521 1135 q 652 812 652 971 l 652 722 l 504 722 l 504 802 q 504 842 504 827 q 502 878 503 857 q 498 912 501 900 q 491 941 496 924 q 480 966 487 957 q 463 986 473 975 q 440 1001 453 996 q 410 1010 427 1006 q 370 1013 392 1013 q 313 1006 338 1013 q 273 984 289 999 q 248 950 258 968 q 233 903 238 932 q 227 847 229 874 q 225 781 225 821 l 225 336 q 257 160 225 210 q 370 111 289 111 q 424 117 401 111 q 461 140 447 124 q 485 172 476 155 q 498 218 494 189 q 503 271 502 247 q 504 335 504 296 l 504 418 l 652 418 l 652 334 q 644 219 652 270 q 616 124 636 168 q 565 50 597 79 q 484 4 533 21 q 369 -12 434 -12 z "},"ĉ":{"ha":570,"x_min":60,"x_max":513,"o":"m 92 897 l 212 1139 l 362 1139 l 483 897 l 371 897 l 287 1065 l 203 897 l 92 897 m 294 -12 q 194 4 236 -12 q 127 45 153 19 q 86 113 101 71 q 66 200 71 155 q 60 308 60 245 l 60 494 q 70 629 60 574 q 104 728 79 684 q 176 793 130 772 q 294 814 223 814 q 402 798 359 814 q 470 749 446 783 q 504 671 494 716 q 513 562 513 627 l 513 513 l 379 513 l 379 562 q 361 673 379 642 q 296 705 344 705 q 225 667 242 705 q 209 524 209 629 l 209 271 q 228 134 209 170 q 297 98 246 98 q 334 105 319 98 q 358 124 349 113 q 372 154 367 135 q 378 192 376 173 q 379 238 379 210 l 379 303 l 513 303 l 513 248 q 503 138 513 183 q 469 57 493 92 q 401 5 444 22 q 294 -12 358 -12 z "},"Ċ":{"ha":715,"x_min":67,"x_max":652,"o":"m 286 1218 l 286 1383 l 435 1383 l 435 1218 l 286 1218 m 369 -12 q 246 7 299 -12 q 160 58 193 26 q 105 139 126 91 q 75 241 83 188 q 67 361 67 295 l 67 759 q 76 886 67 830 q 105 989 84 941 q 160 1069 126 1038 q 247 1118 194 1100 q 369 1135 299 1135 q 587 1053 521 1135 q 652 812 652 971 l 652 722 l 504 722 l 504 802 q 504 842 504 827 q 502 878 503 857 q 498 912 501 900 q 491 941 496 924 q 480 966 487 957 q 463 986 473 975 q 440 1001 453 996 q 410 1010 427 1006 q 370 1013 392 1013 q 313 1006 338 1013 q 273 984 289 999 q 248 950 258 968 q 233 903 238 932 q 227 847 229 874 q 225 781 225 821 l 225 336 q 257 160 225 210 q 370 111 289 111 q 424 117 401 111 q 461 140 447 124 q 485 172 476 155 q 498 218 494 189 q 503 271 502 247 q 504 335 504 296 l 504 418 l 652 418 l 652 334 q 644 219 652 270 q 616 124 636 168 q 565 50 597 79 q 484 4 533 21 q 369 -12 434 -12 z "},"ċ":{"ha":570,"x_min":60,"x_max":513,"o":"m 212 897 l 212 1061 l 361 1061 l 361 897 l 212 897 m 294 -12 q 194 4 236 -12 q 127 45 153 19 q 86 113 101 71 q 66 200 71 155 q 60 308 60 245 l 60 494 q 70 629 60 574 q 104 728 79 684 q 176 793 130 772 q 294 814 223 814 q 402 798 359 814 q 470 749 446 783 q 504 671 494 716 q 513 562 513 627 l 513 513 l 379 513 l 379 562 q 361 673 379 642 q 296 705 344 705 q 225 667 242 705 q 209 524 209 629 l 209 271 q 228 134 209 170 q 297 98 246 98 q 334 105 319 98 q 358 124 349 113 q 372 154 367 135 q 378 192 376 173 q 379 238 379 210 l 379 303 l 513 303 l 513 248 q 503 138 513 183 q 469 57 493 92 q 401 5 444 22 q 294 -12 358 -12 z "},"Č":{"ha":715,"x_min":67,"x_max":652,"o":"m 287 1218 l 167 1457 l 279 1457 l 360 1295 l 440 1457 l 553 1457 l 433 1218 l 287 1218 m 369 -12 q 246 7 299 -12 q 160 58 193 26 q 105 139 126 91 q 75 241 83 188 q 67 361 67 295 l 67 759 q 76 886 67 830 q 105 989 84 941 q 160 1069 126 1038 q 247 1118 194 1100 q 369 1135 299 1135 q 587 1053 521 1135 q 652 812 652 971 l 652 722 l 504 722 l 504 802 q 504 842 504 827 q 502 878 503 857 q 498 912 501 900 q 491 941 496 924 q 480 966 487 957 q 463 986 473 975 q 440 1001 453 996 q 410 1010 427 1006 q 370 1013 392 1013 q 313 1006 338 1013 q 273 984 289 999 q 248 950 258 968 q 233 903 238 932 q 227 847 229 874 q 225 781 225 821 l 225 336 q 257 160 225 210 q 370 111 289 111 q 424 117 401 111 q 461 140 447 124 q 485 172 476 155 q 498 218 494 189 q 503 271 502 247 q 504 335 504 296 l 504 418 l 652 418 l 652 334 q 644 219 652 270 q 616 124 636 168 q 565 50 597 79 q 484 4 533 21 q 369 -12 434 -12 z "},"č":{"ha":570,"x_min":60,"x_max":513,"o":"m 214 897 l 94 1136 l 206 1136 l 287 974 l 367 1136 l 480 1136 l 359 897 l 214 897 m 294 -12 q 194 4 236 -12 q 127 45 153 19 q 86 113 101 71 q 66 200 71 155 q 60 308 60 245 l 60 494 q 70 629 60 574 q 104 728 79 684 q 176 793 130 772 q 294 814 223 814 q 402 798 359 814 q 470 749 446 783 q 504 671 494 716 q 513 562 513 627 l 513 513 l 379 513 l 379 562 q 361 673 379 642 q 296 705 344 705 q 225 667 242 705 q 209 524 209 629 l 209 271 q 228 134 209 170 q 297 98 246 98 q 334 105 319 98 q 358 124 349 113 q 372 154 367 135 q 378 192 376 173 q 379 238 379 210 l 379 303 l 513 303 l 513 248 q 503 138 513 183 q 469 57 493 92 q 401 5 444 22 q 294 -12 358 -12 z "},"Ď":{"ha":732,"x_min":88,"x_max":665,"o":"m 303 1218 l 183 1457 l 296 1457 l 376 1295 l 456 1457 l 570 1457 l 449 1218 l 303 1218 m 88 0 l 88 1124 l 332 1124 q 590 1042 515 1124 q 665 781 665 959 l 665 368 q 590 91 665 182 q 344 0 516 0 l 88 0 m 245 113 l 333 113 q 396 120 369 113 q 442 137 424 127 q 473 168 460 146 q 492 208 486 190 q 502 262 498 227 q 506 324 505 298 q 507 397 507 349 l 507 763 q 505 831 507 804 q 500 887 504 859 q 488 932 496 915 q 467 966 479 950 q 435 990 454 982 q 390 1004 416 999 q 330 1008 364 1008 l 245 1008 l 245 113 z "},"ď":{"ha":685,"x_min":60,"x_max":776,"o":"m 299 106 q 390 136 342 106 l 390 662 q 296 697 341 697 q 209 530 209 697 l 209 302 q 211 238 209 264 q 218 185 212 212 q 233 142 223 158 q 259 116 242 126 q 299 106 276 106 m 262 -12 q 109 64 157 -12 q 60 315 60 140 l 60 471 q 65 578 60 531 q 82 670 69 625 q 117 746 96 716 q 173 795 138 777 q 256 814 209 814 q 390 751 329 814 l 390 1124 l 538 1124 l 538 0 l 390 0 l 390 52 q 262 -12 332 -12 z "},"Đ":{"ha":734,"x_min":23,"x_max":667,"o":"m 91 0 l 91 539 l 23 539 l 23 629 l 91 629 l 91 1124 l 336 1124 q 493 1103 429 1124 q 595 1038 557 1082 q 651 932 634 994 q 667 781 667 869 l 667 368 q 593 91 667 182 q 347 0 519 0 l 91 0 m 248 113 l 336 113 q 408 120 378 113 q 457 147 438 127 q 487 185 476 167 q 503 244 498 204 q 508 312 507 283 q 509 397 509 340 l 509 763 q 508 831 509 804 q 503 887 507 859 q 491 932 498 915 q 470 966 483 950 q 438 990 457 982 q 393 1004 419 999 q 332 1008 367 1008 l 248 1008 l 248 629 l 332 629 l 332 539 l 248 539 l 248 113 z "},"đ":{"ha":630,"x_min":60,"x_max":621,"o":"m 299 106 q 390 136 342 106 l 390 662 q 296 697 341 697 q 209 530 209 697 l 209 302 q 211 238 209 264 q 218 185 212 212 q 233 142 223 158 q 259 116 242 126 q 299 106 276 106 m 262 -12 q 109 64 157 -12 q 60 315 60 140 l 60 471 q 65 578 60 531 q 82 670 69 625 q 117 746 96 716 q 173 795 138 777 q 256 814 209 814 q 390 751 329 814 l 390 943 l 235 943 l 235 1025 l 390 1025 l 390 1124 l 538 1124 l 538 1025 l 621 1025 l 621 943 l 538 943 l 538 0 l 390 0 l 390 52 q 262 -12 332 -12 z "},"Ē":{"ha":566,"x_min":88,"x_max":527,"o":"m 174 1218 l 174 1308 l 441 1308 l 441 1218 l 174 1218 m 88 0 l 88 1124 l 524 1124 l 524 1008 l 245 1008 l 245 637 l 471 637 l 471 525 l 245 525 l 245 113 l 527 113 l 527 0 l 88 0 z "},"ē":{"ha":585,"x_min":60,"x_max":526,"o":"m 159 897 l 159 986 l 427 986 l 427 897 l 159 897 m 209 479 l 379 479 l 379 552 q 377 606 379 584 q 371 648 376 627 q 357 680 366 668 q 333 698 348 691 q 296 705 317 705 q 226 667 243 705 q 209 523 209 629 l 209 479 m 298 -12 q 180 8 227 -12 q 107 71 134 28 q 71 170 81 113 q 60 309 60 227 l 60 493 q 72 634 60 576 q 109 733 83 691 q 182 794 136 774 q 297 814 229 814 q 373 806 340 814 q 430 783 406 798 q 471 745 454 769 q 499 694 488 721 q 515 629 509 667 q 524 553 522 591 q 526 464 526 515 l 525 399 l 209 399 l 209 292 q 209 283 209 289 q 209 233 209 249 q 212 190 210 216 q 220 151 214 164 q 235 124 225 138 q 259 104 244 110 q 296 98 275 98 q 362 131 345 98 q 379 231 379 164 l 379 279 l 524 279 l 524 248 q 298 -12 524 -12 z "},"Ĕ":{"ha":566,"x_min":88,"x_max":527,"o":"m 307 1218 q 113 1424 114 1218 l 199 1424 q 227 1331 200 1360 q 307 1302 254 1302 q 388 1331 361 1302 q 415 1424 414 1360 l 503 1424 q 307 1218 503 1218 m 88 0 l 88 1124 l 524 1124 l 524 1008 l 245 1008 l 245 637 l 471 637 l 471 525 l 245 525 l 245 113 l 527 113 l 527 0 l 88 0 z "},"ĕ":{"ha":585,"x_min":60,"x_max":526,"o":"m 292 897 q 98 1103 99 897 l 184 1103 q 212 1009 185 1038 q 292 981 239 981 q 373 1010 346 981 q 400 1103 399 1039 l 488 1103 q 292 897 488 897 m 209 479 l 379 479 l 379 552 q 377 606 379 584 q 371 648 376 627 q 357 680 366 668 q 333 698 348 691 q 296 705 317 705 q 226 667 243 705 q 209 523 209 629 l 209 479 m 298 -12 q 180 8 227 -12 q 107 71 134 28 q 71 170 81 113 q 60 309 60 227 l 60 493 q 72 634 60 576 q 109 733 83 691 q 182 794 136 774 q 297 814 229 814 q 373 806 340 814 q 430 783 406 798 q 471 745 454 769 q 499 694 488 721 q 515 629 509 667 q 524 553 522 591 q 526 464 526 515 l 525 399 l 209 399 l 209 292 q 209 283 209 289 q 209 233 209 249 q 212 190 210 216 q 220 151 214 164 q 235 124 225 138 q 259 104 244 110 q 296 98 275 98 q 362 131 345 98 q 379 231 379 164 l 379 279 l 524 279 l 524 248 q 298 -12 524 -12 z "},"Ė":{"ha":566,"x_min":88,"x_max":527,"o":"m 233 1218 l 233 1383 l 382 1383 l 382 1218 l 233 1218 m 88 0 l 88 1124 l 524 1124 l 524 1008 l 245 1008 l 245 637 l 471 637 l 471 525 l 245 525 l 245 113 l 527 113 l 527 0 l 88 0 z "},"ė":{"ha":585,"x_min":60,"x_max":526,"o":"m 218 897 l 218 1061 l 368 1061 l 368 897 l 218 897 m 209 479 l 379 479 l 379 552 q 377 606 379 584 q 371 648 376 627 q 357 680 366 668 q 333 698 348 691 q 296 705 317 705 q 226 667 243 705 q 209 523 209 629 l 209 479 m 298 -12 q 180 8 227 -12 q 107 71 134 28 q 71 170 81 113 q 60 309 60 227 l 60 493 q 72 634 60 576 q 109 733 83 691 q 182 794 136 774 q 297 814 229 814 q 373 806 340 814 q 430 783 406 798 q 471 745 454 769 q 499 694 488 721 q 515 629 509 667 q 524 553 522 591 q 526 464 526 515 l 525 399 l 209 399 l 209 292 q 209 283 209 289 q 209 233 209 249 q 212 190 210 216 q 220 151 214 164 q 235 124 225 138 q 259 104 244 110 q 296 98 275 98 q 362 131 345 98 q 379 231 379 164 l 379 279 l 524 279 l 524 248 q 298 -12 524 -12 z "},"Ę":{"ha":566,"x_min":88,"x_max":527,"o":"m 387 -316 q 319 -315 346 -316 q 261 -310 292 -313 q 212 -298 231 -306 q 177 -277 193 -290 q 153 -244 160 -264 q 145 -197 145 -224 q 193 -73 145 -132 q 298 5 241 -13 l 374 5 q 352 -22 370 0 q 325 -54 334 -43 q 301 -87 317 -65 q 278 -123 286 -109 q 263 -158 270 -138 q 257 -193 257 -177 q 262 -216 257 -206 q 278 -230 268 -225 q 300 -238 289 -235 q 329 -242 312 -241 q 357 -242 345 -242 q 387 -241 370 -242 q 413 -241 405 -241 l 387 -316 m 88 0 l 88 1124 l 524 1124 l 524 1008 l 245 1008 l 245 637 l 471 637 l 471 525 l 245 525 l 245 113 l 527 113 l 527 0 l 88 0 z "},"ę":{"ha":585,"x_min":60,"x_max":526,"o":"m 391 -316 q 323 -315 351 -316 q 266 -310 296 -313 q 217 -298 235 -306 q 181 -277 198 -290 q 157 -244 165 -264 q 150 -197 150 -224 q 198 -73 150 -132 q 303 5 246 -13 l 379 5 q 357 -22 375 0 q 330 -54 338 -43 q 306 -87 321 -65 q 282 -123 290 -109 q 268 -158 275 -138 q 262 -193 262 -177 q 267 -216 262 -206 q 283 -230 273 -225 q 305 -238 294 -235 q 333 -242 317 -241 q 362 -242 350 -242 q 392 -241 374 -242 q 418 -241 410 -241 l 391 -316 m 209 479 l 379 479 l 379 552 q 377 606 379 584 q 371 648 376 627 q 357 680 366 668 q 333 698 348 691 q 296 705 317 705 q 226 667 243 705 q 209 523 209 629 l 209 479 m 298 -12 q 180 8 227 -12 q 107 71 134 28 q 71 170 81 113 q 60 309 60 227 l 60 493 q 72 634 60 576 q 109 733 83 691 q 182 794 136 774 q 297 814 229 814 q 373 806 340 814 q 430 783 406 798 q 471 745 454 769 q 499 694 488 721 q 515 629 509 667 q 524 553 522 591 q 526 464 526 515 l 525 399 l 209 399 l 209 292 q 209 283 209 289 q 209 233 209 249 q 212 190 210 216 q 220 151 214 164 q 235 124 225 138 q 259 104 244 110 q 296 98 275 98 q 362 131 345 98 q 379 231 379 164 l 379 279 l 524 279 l 524 248 q 298 -12 524 -12 z "},"Ě":{"ha":566,"x_min":88,"x_max":527,"o":"m 234 1218 l 114 1457 l 227 1457 l 307 1295 l 387 1457 l 500 1457 l 380 1218 l 234 1218 m 88 0 l 88 1124 l 524 1124 l 524 1008 l 245 1008 l 245 637 l 471 637 l 471 525 l 245 525 l 245 113 l 527 113 l 527 0 l 88 0 z "},"ě":{"ha":585,"x_min":60,"x_max":526,"o":"m 220 897 l 100 1136 l 212 1136 l 293 974 l 373 1136 l 486 1136 l 366 897 l 220 897 m 209 479 l 379 479 l 379 552 q 377 606 379 584 q 371 648 376 627 q 357 680 366 668 q 333 698 348 691 q 296 705 317 705 q 226 667 243 705 q 209 523 209 629 l 209 479 m 298 -12 q 180 8 227 -12 q 107 71 134 28 q 71 170 81 113 q 60 309 60 227 l 60 493 q 72 634 60 576 q 109 733 83 691 q 182 794 136 774 q 297 814 229 814 q 373 806 340 814 q 430 783 406 798 q 471 745 454 769 q 499 694 488 721 q 515 629 509 667 q 524 553 522 591 q 526 464 526 515 l 525 399 l 209 399 l 209 292 q 209 283 209 289 q 209 233 209 249 q 212 190 210 216 q 220 151 214 164 q 235 124 225 138 q 259 104 244 110 q 296 98 275 98 q 362 131 345 98 q 379 231 379 164 l 379 279 l 524 279 l 524 248 q 298 -12 524 -12 z "},"Ĝ":{"ha":743,"x_min":67,"x_max":670,"o":"m 173 1218 l 293 1460 l 444 1460 l 564 1218 l 452 1218 l 368 1386 l 284 1218 l 173 1218 m 356 -14 q 135 83 203 -14 q 67 369 67 180 l 67 745 q 76 881 67 823 q 105 989 84 939 q 159 1069 125 1038 q 245 1118 193 1101 q 368 1135 298 1135 q 593 1056 524 1135 q 661 806 661 977 l 661 765 l 514 765 l 514 800 q 511 879 514 848 q 500 937 509 909 q 476 980 492 965 q 434 1004 460 996 q 370 1013 408 1013 q 319 1007 341 1013 q 281 990 296 1000 q 255 961 265 979 q 238 924 244 942 q 229 878 232 906 q 224 827 225 850 q 224 769 224 804 l 224 353 q 255 167 224 223 q 374 111 286 111 q 495 172 463 111 q 528 368 528 233 l 528 446 l 385 446 l 385 557 l 670 557 l 670 0 l 570 0 l 555 130 q 356 -14 505 -14 z "},"ĝ":{"ha":604,"x_min":27,"x_max":621,"o":"m 128 901 l 248 1143 l 399 1143 l 519 901 l 408 901 l 323 1069 l 239 901 l 128 901 m 287 351 q 365 392 346 351 q 383 528 383 434 q 381 591 383 566 q 374 640 380 616 q 358 679 368 665 q 331 702 348 693 q 289 711 313 711 q 211 667 231 711 q 191 528 191 624 q 193 471 191 495 q 201 422 195 446 q 217 384 207 399 q 245 360 228 369 q 287 351 262 351 m 323 -132 q 418 -113 387 -132 q 449 -52 449 -94 q 426 5 449 -14 q 339 30 402 24 l 212 40 q 173 -4 193 24 q 153 -64 153 -33 q 165 -102 153 -89 q 214 -124 176 -116 q 323 -132 252 -132 m 325 -249 q 249 -248 281 -249 q 180 -242 216 -246 q 118 -229 143 -237 q 71 -207 92 -220 q 38 -173 49 -193 q 27 -124 27 -152 q 60 -16 27 -62 q 143 56 93 29 q 85 91 105 68 q 65 143 65 115 q 86 216 65 184 q 155 288 107 247 q 84 380 107 325 q 62 528 62 435 q 119 741 62 669 q 287 814 176 814 q 452 726 410 814 q 494 766 463 740 q 561 808 525 792 l 584 819 l 621 722 q 544 698 593 716 q 484 671 495 680 q 502 603 494 647 q 509 524 509 558 q 498 411 509 460 q 462 323 487 361 q 393 266 437 286 q 287 245 349 245 q 245 250 275 245 q 211 256 216 254 q 205 245 210 254 q 197 233 199 237 q 192 221 195 229 q 186 207 188 213 q 184 194 184 200 q 200 170 184 178 q 252 159 216 162 q 315 153 255 158 q 376 147 375 147 q 562 -48 562 130 q 505 -202 562 -156 q 325 -249 448 -249 z "},"Ğ":{"ha":743,"x_min":67,"x_max":670,"o":"m 368 1218 q 174 1424 175 1218 l 260 1424 q 288 1331 261 1360 q 368 1302 315 1302 q 449 1331 422 1302 q 476 1424 475 1360 l 564 1424 q 368 1218 564 1218 m 356 -14 q 135 83 203 -14 q 67 369 67 180 l 67 745 q 76 881 67 823 q 105 989 84 939 q 159 1069 125 1038 q 245 1118 193 1101 q 368 1135 298 1135 q 593 1056 524 1135 q 661 806 661 977 l 661 765 l 514 765 l 514 800 q 511 879 514 848 q 500 937 509 909 q 476 980 492 965 q 434 1004 460 996 q 370 1013 408 1013 q 319 1007 341 1013 q 281 990 296 1000 q 255 961 265 979 q 238 924 244 942 q 229 878 232 906 q 224 827 225 850 q 224 769 224 804 l 224 353 q 255 167 224 223 q 374 111 286 111 q 495 172 463 111 q 528 368 528 233 l 528 446 l 385 446 l 385 557 l 670 557 l 670 0 l 570 0 l 555 130 q 356 -14 505 -14 z "},"ğ":{"ha":604,"x_min":27,"x_max":621,"o":"m 323 901 q 129 1107 130 901 l 216 1107 q 243 1014 216 1043 q 323 985 270 985 q 404 1015 377 985 q 431 1107 431 1044 l 519 1107 q 323 901 519 901 m 287 351 q 365 392 346 351 q 383 528 383 434 q 381 591 383 566 q 374 640 380 616 q 358 679 368 665 q 331 702 348 693 q 289 711 313 711 q 211 667 231 711 q 191 528 191 624 q 193 471 191 495 q 201 422 195 446 q 217 384 207 399 q 245 360 228 369 q 287 351 262 351 m 323 -132 q 418 -113 387 -132 q 449 -52 449 -94 q 426 5 449 -14 q 339 30 402 24 l 212 40 q 173 -4 193 24 q 153 -64 153 -33 q 165 -102 153 -89 q 214 -124 176 -116 q 323 -132 252 -132 m 325 -249 q 249 -248 281 -249 q 180 -242 216 -246 q 118 -229 143 -237 q 71 -207 92 -220 q 38 -173 49 -193 q 27 -124 27 -152 q 60 -16 27 -62 q 143 56 93 29 q 85 91 105 68 q 65 143 65 115 q 86 216 65 184 q 155 288 107 247 q 84 380 107 325 q 62 528 62 435 q 119 741 62 669 q 287 814 176 814 q 452 726 410 814 q 494 766 463 740 q 561 808 525 792 l 584 819 l 621 722 q 544 698 593 716 q 484 671 495 680 q 502 603 494 647 q 509 524 509 558 q 498 411 509 460 q 462 323 487 361 q 393 266 437 286 q 287 245 349 245 q 245 250 275 245 q 211 256 216 254 q 205 245 210 254 q 197 233 199 237 q 192 221 195 229 q 186 207 188 213 q 184 194 184 200 q 200 170 184 178 q 252 159 216 162 q 315 153 255 158 q 376 147 375 147 q 562 -48 562 130 q 505 -202 562 -156 q 325 -249 448 -249 z "},"Ġ":{"ha":743,"x_min":67,"x_max":670,"o":"m 294 1218 l 294 1383 l 443 1383 l 443 1218 l 294 1218 m 356 -14 q 135 83 203 -14 q 67 369 67 180 l 67 745 q 76 881 67 823 q 105 989 84 939 q 159 1069 125 1038 q 245 1118 193 1101 q 368 1135 298 1135 q 593 1056 524 1135 q 661 806 661 977 l 661 765 l 514 765 l 514 800 q 511 879 514 848 q 500 937 509 909 q 476 980 492 965 q 434 1004 460 996 q 370 1013 408 1013 q 319 1007 341 1013 q 281 990 296 1000 q 255 961 265 979 q 238 924 244 942 q 229 878 232 906 q 224 827 225 850 q 224 769 224 804 l 224 353 q 255 167 224 223 q 374 111 286 111 q 495 172 463 111 q 528 368 528 233 l 528 446 l 385 446 l 385 557 l 670 557 l 670 0 l 570 0 l 555 130 q 356 -14 505 -14 z "},"ġ":{"ha":604,"x_min":27,"x_max":621,"o":"m 249 901 l 249 1066 l 398 1066 l 398 901 l 249 901 m 287 351 q 365 392 346 351 q 383 528 383 434 q 381 591 383 566 q 374 640 380 616 q 358 679 368 665 q 331 702 348 693 q 289 711 313 711 q 211 667 231 711 q 191 528 191 624 q 193 471 191 495 q 201 422 195 446 q 217 384 207 399 q 245 360 228 369 q 287 351 262 351 m 323 -132 q 418 -113 387 -132 q 449 -52 449 -94 q 426 5 449 -14 q 339 30 402 24 l 212 40 q 173 -4 193 24 q 153 -64 153 -33 q 165 -102 153 -89 q 214 -124 176 -116 q 323 -132 252 -132 m 325 -249 q 249 -248 281 -249 q 180 -242 216 -246 q 118 -229 143 -237 q 71 -207 92 -220 q 38 -173 49 -193 q 27 -124 27 -152 q 60 -16 27 -62 q 143 56 93 29 q 85 91 105 68 q 65 143 65 115 q 86 216 65 184 q 155 288 107 247 q 84 380 107 325 q 62 528 62 435 q 119 741 62 669 q 287 814 176 814 q 452 726 410 814 q 494 766 463 740 q 561 808 525 792 l 584 819 l 621 722 q 544 698 593 716 q 484 671 495 680 q 502 603 494 647 q 509 524 509 558 q 498 411 509 460 q 462 323 487 361 q 393 266 437 286 q 287 245 349 245 q 245 250 275 245 q 211 256 216 254 q 205 245 210 254 q 197 233 199 237 q 192 221 195 229 q 186 207 188 213 q 184 194 184 200 q 200 170 184 178 q 252 159 216 162 q 315 153 255 158 q 376 147 375 147 q 562 -48 562 130 q 505 -202 562 -156 q 325 -249 448 -249 z "},"Ģ":{"ha":743,"x_min":67,"x_max":670,"o":"m 330 -408 l 292 -334 q 352 -311 334 -332 q 370 -249 370 -290 l 294 -249 l 294 -96 l 445 -96 l 444 -239 q 420 -364 443 -323 q 330 -408 397 -406 m 356 -14 q 135 83 203 -14 q 67 369 67 180 l 67 745 q 76 881 67 823 q 105 989 84 939 q 159 1069 125 1038 q 245 1118 193 1101 q 368 1135 298 1135 q 593 1056 524 1135 q 661 806 661 977 l 661 765 l 514 765 l 514 800 q 511 879 514 848 q 500 937 509 909 q 476 980 492 965 q 434 1004 460 996 q 370 1013 408 1013 q 319 1007 341 1013 q 281 990 296 1000 q 255 961 265 979 q 238 924 244 942 q 229 878 232 906 q 224 827 225 850 q 224 769 224 804 l 224 353 q 255 167 224 223 q 374 111 286 111 q 495 172 463 111 q 528 368 528 233 l 528 446 l 385 446 l 385 557 l 670 557 l 670 0 l 570 0 l 555 130 q 356 -14 505 -14 z "},"ģ":{"ha":611,"x_min":19,"x_max":663,"o":"m 315 338 q 369 351 346 338 q 404 383 391 364 q 424 431 416 402 q 433 484 431 459 q 435 539 435 509 q 313 733 435 733 q 260 720 283 733 q 225 686 238 706 q 204 638 212 665 q 194 587 197 610 q 192 539 192 564 q 315 338 192 338 m 192 -154 q 213 -165 192 -154 q 313 -176 235 -176 q 437 -154 390 -176 q 485 -85 484 -132 q 457 -17 488 -41 q 338 26 427 7 l 246 43 q 214 18 227 28 q 183 -11 201 7 q 157 -48 165 -28 q 148 -88 148 -68 q 192 -154 148 -132 m 293 1012 l 293 1135 q 323 1265 293 1218 q 418 1329 353 1312 l 429 1289 q 374 1235 393 1268 q 354 1162 354 1201 l 434 1162 l 434 1012 l 293 1012 m 313 -262 q 203 -254 254 -262 q 111 -229 153 -246 q 43 -180 68 -212 q 19 -106 19 -149 q 59 -14 19 -59 q 156 66 100 31 q 49 134 54 98 q 152 311 41 201 q 53 532 53 379 q 69 642 53 591 q 117 732 85 693 q 198 794 149 772 q 311 817 248 817 q 420 791 374 817 q 496 726 467 766 q 605 821 542 793 l 629 832 l 663 760 q 600 729 635 751 q 534 678 564 707 q 558 612 548 652 q 568 534 568 572 q 506 331 568 406 q 321 255 444 255 q 205 277 258 255 q 195 261 204 274 q 182 244 186 249 q 171 227 179 239 q 160 209 163 216 q 152 193 157 202 q 146 177 148 184 q 145 164 144 170 q 216 138 147 153 q 377 106 250 130 q 545 42 494 83 q 597 -74 597 1 q 522 -212 597 -161 q 313 -262 446 -262 z "},"Ĥ":{"ha":779,"x_min":88,"x_max":690,"o":"m 193 1218 l 313 1460 l 464 1460 l 585 1218 l 473 1218 l 389 1386 l 304 1218 l 193 1218 m 88 0 l 88 1124 l 245 1124 l 245 639 l 534 639 l 534 1124 l 690 1124 l 690 0 l 534 0 l 534 527 l 245 527 l 245 0 l 88 0 z "},"ĥ":{"ha":618,"x_min":79,"x_max":548,"o":"m 117 1207 l 237 1449 l 388 1449 l 509 1207 l 397 1207 l 313 1375 l 229 1207 l 117 1207 m 79 0 l 79 1124 l 227 1124 l 227 720 q 429 814 326 814 q 487 800 463 814 q 524 761 511 785 q 543 709 537 736 q 548 650 548 682 l 548 0 l 399 0 l 399 606 q 386 675 399 652 q 336 697 373 697 q 227 644 290 697 l 227 0 l 79 0 z "},"Ħ":{"ha":779,"x_min":22,"x_max":756,"o":"m 245 639 l 534 639 l 534 859 l 245 859 l 245 639 m 88 0 l 88 859 l 22 859 l 22 941 l 88 941 l 88 1124 l 245 1124 l 245 941 l 534 941 l 534 1124 l 690 1124 l 690 941 l 756 941 l 756 859 l 690 859 l 690 0 l 534 0 l 534 527 l 245 527 l 245 0 l 88 0 z "},"ħ":{"ha":618,"x_min":-9,"x_max":548,"o":"m 79 0 l 79 959 l -9 959 l -9 1042 l 79 1042 l 79 1124 l 227 1124 l 227 1042 l 397 1042 l 397 959 l 227 959 l 227 720 q 428 814 325 814 q 487 800 462 814 q 524 761 511 785 q 543 709 537 736 q 548 650 548 682 l 548 0 l 399 0 l 399 606 q 386 675 399 652 q 336 697 372 697 q 227 644 290 697 l 227 0 l 79 0 z "},"Ĩ":{"ha":344,"x_min":-35,"x_max":380,"o":"m 264 1218 q 166 1252 229 1218 q 85 1286 103 1286 q 58 1274 66 1287 q 50 1230 50 1260 l -35 1230 q 85 1380 -35 1383 q 186 1346 121 1379 q 264 1313 251 1313 q 289 1325 282 1312 q 296 1371 296 1338 l 380 1371 q 355 1259 380 1300 q 264 1218 329 1217 m 96 0 l 96 1124 l 250 1124 l 250 0 l 96 0 z "},"ĩ":{"ha":311,"x_min":-49,"x_max":367,"o":"m 251 897 q 153 930 216 897 q 71 964 90 964 q 44 952 53 966 q 36 909 36 939 l -49 909 q 71 1059 -49 1061 q 173 1025 108 1058 q 251 991 237 991 q 276 1004 269 991 q 283 1049 283 1017 l 367 1049 q 341 937 367 979 q 251 897 315 896 m 85 0 l 85 803 l 233 803 l 233 0 l 85 0 z "},"Ī":{"ha":344,"x_min":39,"x_max":306,"o":"m 39 1218 l 39 1308 l 306 1308 l 306 1218 l 39 1218 m 96 0 l 96 1124 l 250 1124 l 250 0 l 96 0 z "},"ī":{"ha":311,"x_min":25,"x_max":292,"o":"m 25 897 l 25 986 l 292 986 l 292 897 l 25 897 m 85 0 l 85 803 l 233 803 l 233 0 l 85 0 z "},"Ĭ":{"ha":344,"x_min":-22,"x_max":368,"o":"m 172 1218 q -22 1424 -21 1218 l 64 1424 q 92 1331 65 1360 q 172 1302 119 1302 q 253 1331 226 1302 q 280 1424 279 1360 l 368 1424 q 172 1218 368 1218 m 96 0 l 96 1124 l 250 1124 l 250 0 l 96 0 z "},"ĭ":{"ha":311,"x_min":-36,"x_max":354,"o":"m 159 897 q -36 1103 -35 897 l 51 1103 q 78 1009 52 1038 q 159 981 105 981 q 239 1010 212 981 q 267 1103 266 1039 l 354 1103 q 159 897 354 897 m 85 0 l 85 803 l 233 803 l 233 0 l 85 0 z "},"Į":{"ha":344,"x_min":-52,"x_max":250,"o":"m 189 -316 q 121 -315 149 -316 q 64 -310 94 -313 q 15 -298 33 -306 q -21 -277 -4 -290 q -45 -244 -37 -264 q -52 -197 -52 -224 q -4 -73 -52 -132 q 101 5 44 -13 l 177 5 q 155 -22 173 0 q 128 -54 136 -43 q 104 -87 119 -65 q 80 -123 88 -109 q 66 -158 73 -138 q 60 -193 60 -177 q 65 -216 60 -206 q 81 -230 71 -225 q 103 -238 92 -235 q 131 -242 115 -241 q 160 -242 148 -242 q 190 -241 172 -242 q 216 -241 208 -241 l 189 -316 m 96 0 l 96 1124 l 250 1124 l 250 0 l 96 0 z "},"į":{"ha":317,"x_min":-68,"x_max":234,"o":"m 173 -316 q 105 -315 132 -316 q 47 -310 78 -313 q -2 -298 17 -306 q -37 -277 -20 -290 q -61 -244 -54 -264 q -68 -197 -68 -224 q -20 -73 -68 -132 q 85 5 28 -13 l 161 5 q 138 -22 157 0 q 112 -54 120 -43 q 87 -87 103 -65 q 64 -123 72 -109 q 50 -158 56 -138 q 43 -193 43 -177 q 49 -216 43 -206 q 65 -230 54 -225 q 87 -238 75 -235 q 115 -242 98 -241 q 144 -242 132 -242 q 174 -241 156 -242 q 199 -241 191 -241 l 173 -316 m 85 922 l 85 1078 l 234 1078 l 234 922 l 85 922 m 85 0 l 85 803 l 233 803 l 233 0 l 85 0 z "},"İ":{"ha":344,"x_min":96,"x_max":250,"o":"m 98 1218 l 98 1383 l 248 1383 l 248 1218 l 98 1218 m 96 0 l 96 1124 l 250 1124 l 250 0 l 96 0 z "},"ı":{"ha":311,"x_min":85,"x_max":233,"o":"m 85 0 l 85 803 l 233 803 l 233 0 l 85 0 z "},"ĳ":{"ha":637,"x_min":85,"x_max":563,"o":"m 414 922 l 414 1078 l 563 1078 l 563 922 l 414 922 m 292 -193 l 292 -86 q 330 -90 309 -90 q 414 7 414 -90 l 414 803 l 562 803 l 562 -9 q 510 -152 562 -102 q 367 -203 458 -203 q 292 -193 316 -203 m 85 922 l 85 1078 l 234 1078 l 234 922 l 85 922 m 85 0 l 85 803 l 233 803 l 233 0 l 85 0 z "},"Ĵ":{"ha":418,"x_min":9,"x_max":441,"o":"m 50 1272 l 170 1514 l 320 1514 l 441 1272 l 329 1272 l 245 1440 l 161 1272 l 50 1272 m 9 -26 l 9 86 q 93 93 63 86 q 142 119 123 99 q 167 170 161 138 q 173 256 173 201 l 173 1124 l 330 1124 l 330 254 q 318 128 330 178 q 280 42 307 78 q 204 -10 252 6 q 84 -26 157 -26 l 9 -26 z "},"ĵ":{"ha":319,"x_min":-34,"x_max":357,"o":"m -34 933 l 86 1175 l 237 1175 l 357 933 l 245 933 l 161 1101 l 77 933 l -34 933 m -26 -212 l -26 -104 q 13 -109 -8 -109 q 96 -12 96 -109 l 96 803 l 245 803 l 245 -27 q 193 -171 245 -120 q 50 -221 141 -221 q -26 -212 -1 -221 z "},"Ķ":{"ha":688,"x_min":88,"x_max":684,"o":"m 348 -395 l 310 -321 q 369 -297 351 -318 q 387 -235 387 -276 l 311 -235 l 311 -83 l 463 -83 l 461 -226 q 437 -351 460 -309 q 348 -395 414 -392 m 88 0 l 88 1124 l 245 1124 l 245 595 l 503 1124 l 648 1124 l 426 629 l 684 0 l 532 0 l 306 557 l 245 443 l 245 0 l 88 0 z "},"ķ":{"ha":595,"x_min":77,"x_max":599,"o":"m 300 -395 l 262 -321 q 321 -297 303 -318 q 339 -235 339 -276 l 263 -235 l 263 -83 l 414 -83 l 413 -226 q 389 -351 412 -309 q 300 -395 366 -392 m 77 2 l 77 1126 l 226 1126 l 226 455 l 444 802 l 599 803 l 410 488 l 593 0 l 445 0 l 295 412 l 226 308 l 226 2 l 77 2 z "},"ĸ":{"ha":597,"x_min":82,"x_max":592,"o":"m 82 0 l 82 803 l 230 803 l 230 450 l 441 803 l 591 803 l 408 496 l 592 0 l 443 0 l 308 395 l 230 277 l 230 0 l 82 0 z "},"Ĺ":{"ha":551,"x_min":88,"x_max":532,"o":"m 273 1218 l 355 1493 l 503 1493 l 348 1218 l 273 1218 m 88 0 l 88 1124 l 245 1124 l 245 113 l 532 113 l 532 0 l 88 0 z "},"ĺ":{"ha":318,"x_min":89,"x_max":357,"o":"m 126 1207 l 208 1482 l 357 1482 l 201 1207 l 126 1207 m 89 0 l 89 1124 l 238 1124 l 238 0 l 89 0 z "},"Ļ":{"ha":551,"x_min":88,"x_max":532,"o":"m 272 -395 l 234 -321 q 293 -297 275 -318 q 311 -235 311 -276 l 235 -235 l 235 -83 l 387 -83 l 385 -226 q 361 -351 385 -309 q 272 -395 338 -392 m 88 0 l 88 1124 l 245 1124 l 245 113 l 532 113 l 532 0 l 88 0 z "},"ļ":{"ha":318,"x_min":87,"x_max":240,"o":"m 125 -395 l 87 -321 q 147 -297 129 -318 q 165 -235 165 -276 l 89 -235 l 89 -83 l 240 -83 l 239 -226 q 215 -351 238 -309 q 125 -395 192 -392 m 89 0 l 89 1124 l 238 1124 l 238 0 l 89 0 z "},"Ľ":{"ha":551,"x_min":88,"x_max":532,"o":"m 88 0 l 88 1124 l 245 1124 l 245 113 l 532 113 l 532 0 l 88 0 z "},"ľ":{"ha":392,"x_min":89,"x_max":482,"o":"m 89 0 l 89 1124 l 238 1124 l 238 0 l 89 0 z "},"Ŀ":{"ha":551,"x_min":88,"x_max":532,"o":"m 344 492 l 344 644 l 493 644 l 493 492 l 344 492 m 88 0 l 88 1124 l 245 1124 l 245 113 l 532 113 l 532 0 l 88 0 z "},"ŀ":{"ha":562,"x_min":89,"x_max":517,"o":"m 368 447 l 368 600 l 517 600 l 517 447 l 368 447 m 89 0 l 89 1124 l 238 1124 l 238 0 l 89 0 z "},"Ł":{"ha":551,"x_min":-8,"x_max":532,"o":"m 88 0 l 88 524 l -8 471 l -8 591 l 88 644 l 88 1124 l 245 1124 l 245 732 l 391 812 l 391 692 l 245 611 l 245 113 l 532 113 l 532 0 l 88 0 z "},"ł":{"ha":371,"x_min":24,"x_max":351,"o":"m 118 0 l 118 577 l 24 532 l 24 648 l 118 693 l 118 1124 l 267 1124 l 267 762 l 351 802 l 351 688 l 267 646 l 267 0 l 118 0 z "},"Ń":{"ha":733,"x_min":88,"x_max":645,"o":"m 329 1218 l 411 1493 l 559 1493 l 404 1218 l 329 1218 m 88 0 l 88 1124 l 195 1124 l 514 378 l 514 1124 l 645 1124 l 645 0 l 545 0 l 220 768 l 220 0 l 88 0 z "},"ń":{"ha":610,"x_min":75,"x_max":540,"o":"m 270 897 l 352 1171 l 500 1171 l 345 897 l 270 897 m 75 0 l 75 803 l 224 803 l 224 724 q 420 814 319 814 q 478 800 454 814 q 516 761 503 785 q 534 709 529 736 q 540 650 540 682 l 540 0 l 391 0 l 391 606 q 378 675 391 652 q 328 697 364 697 q 224 648 283 697 l 224 0 l 75 0 z "},"Ņ":{"ha":733,"x_min":88,"x_max":645,"o":"m 328 -395 l 290 -321 q 350 -297 332 -318 q 368 -235 368 -276 l 292 -235 l 292 -83 l 443 -83 l 441 -226 q 418 -351 441 -309 q 328 -395 395 -392 m 88 0 l 88 1124 l 195 1124 l 514 378 l 514 1124 l 645 1124 l 645 0 l 545 0 l 220 768 l 220 0 l 88 0 z "},"ņ":{"ha":610,"x_min":75,"x_max":540,"o":"m 269 -395 l 231 -321 q 291 -297 273 -318 q 309 -235 309 -276 l 233 -235 l 233 -83 l 384 -83 l 382 -226 q 359 -351 382 -309 q 269 -395 336 -392 m 75 0 l 75 803 l 224 803 l 224 724 q 420 814 319 814 q 478 800 454 814 q 516 761 503 785 q 534 709 529 736 q 540 650 540 682 l 540 0 l 391 0 l 391 606 q 378 675 391 652 q 328 697 364 697 q 224 648 283 697 l 224 0 l 75 0 z "},"Ň":{"ha":733,"x_min":88,"x_max":645,"o":"m 294 1218 l 174 1457 l 286 1457 l 367 1295 l 447 1457 l 560 1457 l 439 1218 l 294 1218 m 88 0 l 88 1124 l 195 1124 l 514 378 l 514 1124 l 645 1124 l 645 0 l 545 0 l 220 768 l 220 0 l 88 0 z "},"ň":{"ha":610,"x_min":75,"x_max":540,"o":"m 234 897 l 114 1136 l 227 1136 l 307 974 l 387 1136 l 500 1136 l 380 897 l 234 897 m 75 0 l 75 803 l 224 803 l 224 724 q 420 814 319 814 q 478 800 454 814 q 516 761 503 785 q 534 709 529 736 q 540 650 540 682 l 540 0 l 391 0 l 391 606 q 378 675 391 652 q 328 697 364 697 q 224 648 283 697 l 224 0 l 75 0 z "},"ŉ":{"ha":610,"x_min":75,"x_max":540,"o":"m 75 0 l 75 803 l 224 803 l 224 724 q 420 814 319 814 q 478 800 454 814 q 516 761 503 785 q 534 709 529 736 q 540 650 540 682 l 540 0 l 391 0 l 391 606 q 378 675 391 652 q 328 697 364 697 q 224 648 283 697 l 224 0 l 75 0 z "},"Ŋ":{"ha":733,"x_min":88,"x_max":645,"o":"m 370 -254 l 370 -148 q 430 -145 406 -148 q 472 -133 454 -142 q 498 -113 489 -123 q 513 -82 508 -102 q 519 -41 518 -62 q 521 13 521 -21 l 521 59 l 212 768 l 212 0 l 88 0 l 88 1124 l 195 1124 l 522 378 l 522 1124 l 645 1124 l 645 0 q 635 -111 645 -66 q 602 -189 626 -155 q 534 -238 578 -222 q 424 -254 490 -254 l 370 -254 z "},"ŋ":{"ha":538,"x_min":62,"x_max":526,"o":"m 214 -256 l 214 -143 q 318 -127 281 -143 q 366 -84 354 -112 q 378 -7 378 -56 l 378 606 q 364 675 378 652 q 314 697 351 697 q 210 648 269 697 l 210 0 l 62 0 l 62 803 l 210 803 l 210 724 q 407 814 305 814 q 465 800 441 814 q 503 761 490 785 q 521 709 515 736 q 526 650 526 682 l 526 -8 q 453 -192 526 -128 q 258 -256 380 -256 l 214 -256 z "},"Ō":{"ha":749,"x_min":67,"x_max":682,"o":"m 241 1218 l 241 1308 l 508 1308 l 508 1218 l 241 1218 m 374 -12 q 230 13 290 -12 q 135 87 170 38 q 83 201 100 136 q 67 353 67 266 l 67 779 q 139 1045 67 954 q 374 1135 210 1135 q 610 1044 538 1135 q 682 779 682 953 l 682 352 q 609 82 682 176 q 374 -12 537 -12 m 298 125 q 313 118 298 125 q 374 111 328 111 q 451 125 420 111 q 496 168 481 139 q 518 232 512 197 q 524 319 524 267 l 524 811 q 518 896 524 862 q 496 958 512 930 q 451 1000 481 987 q 374 1013 420 1013 q 298 1000 328 1013 q 252 958 268 987 q 231 896 237 930 q 225 811 225 862 l 225 319 q 231 232 225 267 q 252 168 237 197 q 298 125 268 139 z "},"ō":{"ha":589,"x_min":60,"x_max":528,"o":"m 161 897 l 161 986 l 428 986 l 428 897 l 161 897 m 294 -12 q 183 9 229 -12 q 111 69 137 29 q 72 162 84 109 q 60 285 60 214 l 60 517 q 72 641 60 588 q 111 733 84 693 q 183 793 137 773 q 294 814 229 814 q 475 738 421 814 q 528 517 528 662 l 528 285 q 475 64 528 140 q 294 -12 421 -12 m 294 98 q 330 104 315 98 q 354 125 345 111 q 368 152 363 139 q 376 190 374 165 q 379 230 378 215 q 379 275 379 245 l 379 527 q 379 566 379 553 q 377 601 378 578 q 373 635 376 623 q 363 663 370 647 q 348 686 357 678 q 326 699 339 693 q 294 705 312 705 q 263 699 277 705 q 240 686 249 693 q 225 663 231 678 q 215 635 218 647 q 211 601 212 623 q 209 566 210 578 q 209 527 209 553 l 209 275 q 209 237 209 250 q 211 201 210 224 q 215 167 212 179 q 225 140 218 155 q 240 117 231 125 q 263 104 249 109 q 294 98 277 98 z "},"Ŏ":{"ha":749,"x_min":67,"x_max":682,"o":"m 374 1218 q 179 1424 180 1218 l 266 1424 q 293 1331 267 1360 q 374 1302 320 1302 q 454 1331 427 1302 q 481 1424 481 1360 l 569 1424 q 374 1218 569 1218 m 374 -12 q 230 13 290 -12 q 135 87 170 38 q 83 201 100 136 q 67 353 67 266 l 67 779 q 139 1045 67 954 q 374 1135 210 1135 q 610 1044 538 1135 q 682 779 682 953 l 682 352 q 609 82 682 176 q 374 -12 537 -12 m 298 125 q 313 118 298 125 q 374 111 328 111 q 451 125 420 111 q 496 168 481 139 q 518 232 512 197 q 524 319 524 267 l 524 811 q 518 896 524 862 q 496 958 512 930 q 451 1000 481 987 q 374 1013 420 1013 q 298 1000 328 1013 q 252 958 268 987 q 231 896 237 930 q 225 811 225 862 l 225 319 q 231 232 225 267 q 252 168 237 197 q 298 125 268 139 z "},"ŏ":{"ha":589,"x_min":60,"x_max":528,"o":"m 294 897 q 99 1103 100 897 l 186 1103 q 213 1009 186 1038 q 294 981 240 981 q 374 1010 347 981 q 401 1103 401 1039 l 489 1103 q 294 897 489 897 m 294 -12 q 183 9 229 -12 q 111 69 137 29 q 72 162 84 109 q 60 285 60 214 l 60 517 q 72 641 60 588 q 111 733 84 693 q 183 793 137 773 q 294 814 229 814 q 475 738 421 814 q 528 517 528 662 l 528 285 q 475 64 528 140 q 294 -12 421 -12 m 294 98 q 330 104 315 98 q 354 125 345 111 q 368 152 363 139 q 376 190 374 165 q 379 230 378 215 q 379 275 379 245 l 379 527 q 379 566 379 553 q 377 601 378 578 q 373 635 376 623 q 363 663 370 647 q 348 686 357 678 q 326 699 339 693 q 294 705 312 705 q 263 699 277 705 q 240 686 249 693 q 225 663 231 678 q 215 635 218 647 q 211 601 212 623 q 209 566 210 578 q 209 527 209 553 l 209 275 q 209 237 209 250 q 211 201 210 224 q 215 167 212 179 q 225 140 218 155 q 240 117 231 125 q 263 104 249 109 q 294 98 277 98 z "},"Ő":{"ha":749,"x_min":67,"x_max":682,"o":"m 424 1218 l 504 1455 l 654 1455 l 500 1218 l 424 1218 m 248 1218 l 303 1455 l 425 1455 l 323 1218 l 248 1218 m 374 -12 q 230 13 290 -12 q 135 87 170 38 q 83 201 100 136 q 67 353 67 266 l 67 779 q 139 1045 67 954 q 374 1135 210 1135 q 610 1044 538 1135 q 682 779 682 953 l 682 352 q 609 82 682 176 q 374 -12 537 -12 m 298 125 q 313 118 298 125 q 374 111 328 111 q 451 125 420 111 q 496 168 481 139 q 518 232 512 197 q 524 319 524 267 l 524 811 q 518 896 524 862 q 496 958 512 930 q 451 1000 481 987 q 374 1013 420 1013 q 298 1000 328 1013 q 252 958 268 987 q 231 896 237 930 q 225 811 225 862 l 225 319 q 231 232 225 267 q 252 168 237 197 q 298 125 268 139 z "},"ő":{"ha":589,"x_min":60,"x_max":574,"o":"m 344 897 l 424 1134 l 574 1134 l 420 897 l 344 897 m 168 897 l 223 1134 l 345 1134 l 243 897 l 168 897 m 294 -12 q 183 9 229 -12 q 111 69 137 29 q 72 162 84 109 q 60 285 60 214 l 60 517 q 72 641 60 588 q 111 733 84 693 q 183 793 137 773 q 294 814 229 814 q 475 738 421 814 q 528 517 528 662 l 528 285 q 475 64 528 140 q 294 -12 421 -12 m 294 98 q 330 104 315 98 q 354 125 345 111 q 368 152 363 139 q 376 190 374 165 q 379 230 378 215 q 379 275 379 245 l 379 527 q 379 566 379 553 q 377 601 378 578 q 373 635 376 623 q 363 663 370 647 q 348 686 357 678 q 326 699 339 693 q 294 705 312 705 q 263 699 277 705 q 240 686 249 693 q 225 663 231 678 q 215 635 218 647 q 211 601 212 623 q 209 566 210 578 q 209 527 209 553 l 209 275 q 209 237 209 250 q 211 201 210 224 q 215 167 212 179 q 225 140 218 155 q 240 117 231 125 q 263 104 249 109 q 294 98 277 98 z "},"Œ":{"ha":949,"x_min":67,"x_max":911,"o":"m 403 117 l 477 117 l 477 1012 l 399 1012 q 353 1009 374 1012 q 316 1000 332 1006 q 287 986 300 993 q 264 965 274 979 q 249 939 255 951 q 238 907 242 928 q 231 871 233 887 q 227 829 228 856 q 225 782 226 802 q 225 730 225 762 l 225 359 q 227 281 225 312 q 235 221 229 251 q 253 173 241 191 q 285 142 265 156 q 334 122 304 128 q 403 117 363 117 m 399 0 q 242 21 307 0 q 139 86 178 42 q 84 192 101 130 q 67 342 67 254 l 67 759 q 142 1034 67 943 q 389 1124 216 1124 l 908 1124 l 908 1008 l 634 1008 l 634 637 l 857 637 l 857 526 l 634 526 l 634 113 l 911 113 l 911 0 l 399 0 z "},"œ":{"ha":951,"x_min":79,"x_max":873,"o":"m 551 479 l 724 479 l 724 504 q 724 550 724 531 q 720 592 723 568 q 712 632 718 616 q 697 663 706 648 q 673 686 688 678 q 638 693 658 693 q 599 682 616 693 q 573 654 583 671 q 559 611 564 637 q 552 561 554 585 q 551 505 551 536 l 551 479 m 314 111 q 346 116 332 111 q 369 129 359 121 q 384 150 378 136 q 394 176 391 164 q 399 209 397 189 q 401 244 401 230 q 401 282 401 258 l 401 520 q 401 565 401 549 q 398 605 400 581 q 390 641 395 628 q 375 668 384 654 q 350 687 366 681 q 314 693 335 693 q 278 687 294 693 q 254 668 263 682 q 239 641 245 654 q 231 605 233 628 q 229 565 229 581 q 228 520 228 549 l 228 282 q 229 238 228 254 q 231 198 229 222 q 239 162 233 175 q 254 136 245 149 q 278 116 263 122 q 314 111 294 111 m 314 -12 q 133 63 186 -12 q 79 282 79 138 l 79 520 q 133 739 79 664 q 314 814 186 814 q 476 719 431 814 q 540 789 496 764 q 644 814 583 814 q 741 799 700 814 q 807 757 781 784 q 847 686 832 730 q 867 592 862 642 q 873 472 873 542 l 872 404 l 551 404 l 551 355 q 551 342 551 351 q 551 301 551 315 q 552 263 551 288 q 555 224 553 238 q 561 190 557 210 q 572 158 565 170 q 587 135 578 146 q 609 117 596 123 q 637 111 622 111 q 704 134 684 108 q 724 225 724 159 l 724 279 l 873 279 l 873 226 q 815 43 873 102 q 637 -12 758 -16 q 476 85 518 -7 q 314 -12 433 -12 z "},"Ŕ":{"ha":721,"x_min":88,"x_max":666,"o":"m 339 1218 l 421 1493 l 570 1493 l 414 1218 l 339 1218 m 245 640 l 304 640 q 450 681 406 640 q 494 827 494 721 q 456 970 494 929 q 314 1012 418 1012 l 245 1012 l 245 640 m 88 0 l 88 1124 l 314 1124 q 565 1055 485 1124 q 644 827 644 985 q 505 564 644 610 l 666 0 l 514 0 l 366 528 l 245 528 l 245 0 l 88 0 z "},"ŕ":{"ha":446,"x_min":79,"x_max":447,"o":"m 216 897 l 298 1171 l 447 1171 l 292 897 l 216 897 m 79 0 l 79 803 l 227 803 l 227 688 q 312 785 269 758 q 405 813 356 813 q 429 812 418 813 l 429 648 q 348 663 388 663 q 282 647 311 663 q 227 587 254 630 l 227 0 l 79 0 z "},"Ŗ":{"ha":721,"x_min":88,"x_max":666,"o":"m 338 -395 l 300 -321 q 360 -297 342 -318 q 378 -235 378 -276 l 302 -235 l 302 -83 l 453 -83 l 452 -226 q 428 -351 451 -309 q 338 -395 405 -392 m 245 640 l 304 640 q 450 681 406 640 q 494 827 494 721 q 456 970 494 929 q 314 1012 418 1012 l 245 1012 l 245 640 m 88 0 l 88 1124 l 314 1124 q 565 1055 485 1124 q 644 827 644 985 q 505 564 644 610 l 666 0 l 514 0 l 366 528 l 245 528 l 245 0 l 88 0 z "},"ŗ":{"ha":446,"x_min":79,"x_max":429,"o":"m 216 -395 l 178 -321 q 237 -297 219 -318 q 255 -235 255 -276 l 179 -235 l 179 -83 l 330 -83 l 329 -226 q 305 -351 328 -309 q 216 -395 282 -392 m 79 0 l 79 803 l 227 803 l 227 688 q 312 785 269 758 q 405 813 356 813 q 429 812 418 813 l 429 648 q 348 663 388 663 q 282 647 311 663 q 227 587 254 630 l 227 0 l 79 0 z "},"Ř":{"ha":721,"x_min":88,"x_max":666,"o":"m 304 1218 l 184 1457 l 296 1457 l 377 1295 l 457 1457 l 570 1457 l 450 1218 l 304 1218 m 245 640 l 304 640 q 450 681 406 640 q 494 827 494 721 q 456 970 494 929 q 314 1012 418 1012 l 245 1012 l 245 640 m 88 0 l 88 1124 l 314 1124 q 565 1055 485 1124 q 644 827 644 985 q 505 564 644 610 l 666 0 l 514 0 l 366 528 l 245 528 l 245 0 l 88 0 z "},"ř":{"ha":446,"x_min":61,"x_max":448,"o":"m 181 897 l 61 1136 l 174 1136 l 254 974 l 334 1136 l 448 1136 l 327 897 l 181 897 m 79 0 l 79 803 l 227 803 l 227 688 q 312 785 269 758 q 405 813 356 813 q 429 812 418 813 l 429 648 q 348 663 388 663 q 282 647 311 663 q 227 587 254 630 l 227 0 l 79 0 z "},"Ś":{"ha":657,"x_min":54,"x_max":622,"o":"m 300 1218 l 382 1493 l 530 1493 l 375 1218 l 300 1218 m 353 -12 q 137 75 211 -12 q 54 315 62 163 l 193 353 q 353 111 208 111 q 445 145 413 111 q 476 243 476 178 q 468 309 476 279 q 440 366 459 339 q 403 411 420 393 q 354 459 386 429 l 165 627 q 82 735 109 678 q 56 876 56 793 q 127 1066 56 998 q 321 1135 198 1134 q 523 1066 456 1137 q 604 844 590 994 l 471 808 q 464 873 469 844 q 448 930 459 901 q 422 977 437 959 q 380 1005 406 995 q 321 1014 355 1016 q 197 890 197 1005 q 214 808 197 841 q 271 738 231 774 l 460 570 q 578 428 534 504 q 622 256 622 352 q 547 60 622 132 q 353 -12 473 -12 z "},"ś":{"ha":519,"x_min":35,"x_max":484,"o":"m 221 897 l 303 1171 l 452 1171 l 296 897 l 221 897 m 261 -12 q 103 50 163 -12 q 35 214 43 111 l 159 252 q 193 136 168 174 q 267 98 219 98 q 332 124 307 98 q 355 191 357 151 q 290 303 352 250 l 153 420 q 79 507 104 462 q 54 616 53 552 q 112 762 57 711 q 262 814 167 814 q 405 754 353 814 q 466 603 458 695 l 366 566 q 334 669 357 633 q 267 705 312 705 q 209 681 231 705 q 187 623 186 657 q 227 541 187 576 l 370 411 q 453 314 423 364 q 484 194 484 264 q 424 41 484 94 q 261 -12 363 -12 z "},"Ŝ":{"ha":657,"x_min":54,"x_max":622,"o":"m 142 1218 l 262 1460 l 412 1460 l 533 1218 l 421 1218 l 337 1386 l 253 1218 l 142 1218 m 353 -12 q 137 75 211 -12 q 54 315 62 163 l 193 353 q 353 111 208 111 q 445 145 413 111 q 476 243 476 178 q 468 309 476 279 q 440 366 459 339 q 403 411 420 393 q 354 459 386 429 l 165 627 q 82 735 109 678 q 56 876 56 793 q 127 1066 56 998 q 321 1135 198 1134 q 523 1066 456 1137 q 604 844 590 994 l 471 808 q 464 873 469 844 q 448 930 459 901 q 422 977 437 959 q 380 1005 406 995 q 321 1014 355 1016 q 197 890 197 1005 q 214 808 197 841 q 271 738 231 774 l 460 570 q 578 428 534 504 q 622 256 622 352 q 547 60 622 132 q 353 -12 473 -12 z "},"ŝ":{"ha":519,"x_min":35,"x_max":484,"o":"m 63 897 l 183 1139 l 334 1139 l 454 897 l 342 897 l 258 1065 l 174 897 l 63 897 m 261 -12 q 103 50 163 -12 q 35 214 43 111 l 159 252 q 193 136 168 174 q 267 98 219 98 q 332 124 307 98 q 355 191 357 151 q 290 303 352 250 l 153 420 q 79 507 104 462 q 54 616 53 552 q 112 762 57 711 q 262 814 167 814 q 405 754 353 814 q 466 603 458 695 l 366 566 q 334 669 357 633 q 267 705 312 705 q 209 681 231 705 q 187 623 186 657 q 227 541 187 576 l 370 411 q 453 314 423 364 q 484 194 484 264 q 424 41 484 94 q 261 -12 363 -12 z "},"Ş":{"ha":657,"x_min":54,"x_max":622,"o":"m 277 -312 l 277 -237 q 349 -248 314 -248 q 408 -236 383 -248 q 433 -199 432 -223 q 427 -171 433 -183 q 411 -151 420 -159 q 383 -136 401 -144 q 352 -125 365 -129 q 315 -116 339 -122 l 315 0 l 391 0 l 391 -78 q 498 -119 453 -88 q 545 -197 543 -149 q 525 -270 547 -239 q 465 -313 503 -300 q 378 -326 427 -326 q 277 -312 329 -326 m 353 -12 q 137 75 211 -12 q 54 315 62 163 l 193 353 q 353 111 208 111 q 445 145 413 111 q 476 243 476 178 q 468 309 476 279 q 440 366 459 339 q 403 411 420 393 q 354 459 386 429 l 165 627 q 82 735 109 678 q 56 876 56 793 q 127 1066 56 998 q 321 1135 198 1134 q 523 1066 456 1137 q 604 844 590 994 l 471 808 q 464 873 469 844 q 448 930 459 901 q 422 977 437 959 q 380 1005 406 995 q 321 1014 355 1016 q 197 890 197 1005 q 214 808 197 841 q 271 738 231 774 l 460 570 q 578 428 534 504 q 622 256 622 352 q 547 60 622 132 q 353 -12 473 -12 z "},"ş":{"ha":519,"x_min":35,"x_max":484,"o":"m 210 -312 l 210 -237 q 281 -248 246 -248 q 340 -236 315 -248 q 365 -199 364 -223 q 359 -171 366 -183 q 343 -151 352 -159 q 315 -136 334 -144 q 284 -125 297 -129 q 248 -116 271 -122 l 248 0 l 323 0 l 323 -78 q 430 -119 385 -88 q 477 -197 475 -149 q 457 -270 479 -239 q 397 -313 435 -300 q 310 -326 359 -326 q 210 -312 261 -326 m 261 -12 q 103 50 163 -12 q 35 214 43 111 l 159 252 q 193 136 168 174 q 267 98 219 98 q 332 124 307 98 q 355 191 357 151 q 290 303 352 250 l 153 420 q 79 507 104 462 q 54 616 53 552 q 112 762 57 711 q 262 814 167 814 q 405 754 353 814 q 466 603 458 695 l 366 566 q 334 669 357 633 q 267 705 312 705 q 209 681 231 705 q 187 623 186 657 q 227 541 187 576 l 370 411 q 453 314 423 364 q 484 194 484 264 q 424 41 484 94 q 261 -12 363 -12 z "},"Š":{"ha":657,"x_min":54,"x_max":622,"o":"m 264 1218 l 144 1457 l 257 1457 l 338 1295 l 418 1457 l 531 1457 l 410 1218 l 264 1218 m 353 -12 q 137 75 211 -12 q 54 315 62 163 l 193 353 q 353 111 208 111 q 445 145 413 111 q 476 243 476 178 q 468 309 476 279 q 440 366 459 339 q 403 411 420 393 q 354 459 386 429 l 165 627 q 82 735 109 678 q 56 876 56 793 q 127 1066 56 998 q 321 1135 198 1134 q 523 1066 456 1137 q 604 844 590 994 l 471 808 q 464 873 469 844 q 448 930 459 901 q 422 977 437 959 q 380 1005 406 995 q 321 1014 355 1016 q 197 890 197 1005 q 214 808 197 841 q 271 738 231 774 l 460 570 q 578 428 534 504 q 622 256 622 352 q 547 60 622 132 q 353 -12 473 -12 z "},"š":{"ha":519,"x_min":35,"x_max":484,"o":"m 186 897 l 66 1136 l 178 1136 l 259 974 l 339 1136 l 452 1136 l 332 897 l 186 897 m 261 -12 q 103 50 163 -12 q 35 214 43 111 l 159 252 q 193 136 168 174 q 267 98 219 98 q 332 124 307 98 q 355 191 357 151 q 290 303 352 250 l 153 420 q 79 507 104 462 q 54 616 53 552 q 112 762 57 711 q 262 814 167 814 q 405 754 353 814 q 466 603 458 695 l 366 566 q 334 669 357 633 q 267 705 312 705 q 209 681 231 705 q 187 623 186 657 q 227 541 187 576 l 370 411 q 453 314 423 364 q 484 194 484 264 q 424 41 484 94 q 261 -12 363 -12 z "},"Ţ":{"ha":556,"x_min":-2,"x_max":558,"o":"m 216 -312 l 216 -237 q 288 -248 253 -248 q 347 -236 322 -248 q 372 -199 371 -223 q 366 -171 372 -183 q 350 -151 359 -159 q 322 -136 340 -144 q 291 -125 304 -129 q 254 -116 278 -122 l 254 0 l 330 0 l 330 -78 q 437 -119 392 -88 q 484 -197 481 -149 q 464 -270 486 -239 q 404 -313 441 -300 q 317 -326 366 -326 q 216 -312 268 -326 m 203 0 l 203 1008 l -2 1008 l -2 1124 l 558 1124 l 558 1008 l 360 1008 l 360 0 l 203 0 z "},"ţ":{"ha":428,"x_min":31,"x_max":456,"o":"m 189 -312 l 189 -237 q 260 -248 226 -248 q 319 -236 295 -248 q 345 -199 344 -223 q 338 -171 345 -183 q 322 -151 332 -159 q 295 -136 313 -144 q 264 -125 277 -129 q 227 -116 251 -122 l 227 0 l 302 0 l 302 -78 q 410 -119 365 -88 q 456 -197 454 -149 q 436 -270 458 -239 q 376 -313 414 -300 q 290 -326 338 -326 q 189 -312 241 -326 m 289 -12 q 157 37 197 -12 q 115 180 117 85 l 115 704 l 31 704 l 31 803 l 115 803 l 115 1037 l 264 1037 l 264 803 l 393 803 l 393 704 l 264 704 l 264 191 q 279 123 264 142 q 337 103 294 103 q 392 106 369 103 l 392 -3 q 289 -12 327 -12 z "},"Ť":{"ha":556,"x_min":-2,"x_max":558,"o":"m 205 1218 l 85 1457 l 197 1457 l 278 1295 l 358 1457 l 471 1457 l 351 1218 l 205 1218 m 203 0 l 203 1008 l -2 1008 l -2 1124 l 558 1124 l 558 1008 l 360 1008 l 360 0 l 203 0 z "},"ť":{"ha":428,"x_min":31,"x_max":514,"o":"m 289 -12 q 157 37 197 -12 q 115 180 117 85 l 115 704 l 31 704 l 31 803 l 115 803 l 115 1037 l 264 1037 l 264 803 l 393 803 l 393 704 l 264 704 l 264 191 q 279 123 264 142 q 337 103 294 103 q 392 106 369 103 l 392 -3 q 289 -12 327 -12 z "},"Ŧ":{"ha":556,"x_min":-2,"x_max":558,"o":"m 57 543 l 57 632 l 203 632 l 203 1008 l -2 1008 l -2 1124 l 558 1124 l 558 1008 l 360 1008 l 360 632 l 498 632 l 498 543 l 360 543 l 360 0 l 203 0 l 203 543 l 57 543 z "},"ŧ":{"ha":438,"x_min":31,"x_max":403,"o":"m 289 -12 q 157 37 197 -12 q 115 180 117 85 l 115 473 l 36 473 l 36 549 l 115 549 l 115 704 l 31 704 l 31 803 l 115 803 l 115 1037 l 264 1037 l 264 803 l 393 803 l 393 704 l 264 704 l 264 549 l 403 549 l 403 473 l 264 473 l 264 191 q 279 123 264 142 q 337 103 294 103 q 392 106 369 103 l 392 -3 q 289 -12 327 -12 z "},"Ũ":{"ha":755,"x_min":78,"x_max":677,"o":"m 469 1218 q 371 1252 434 1218 q 290 1286 308 1286 q 263 1274 271 1287 q 254 1230 254 1260 l 170 1230 q 290 1380 170 1383 q 391 1346 326 1379 q 469 1313 456 1313 q 494 1325 487 1312 q 501 1371 501 1338 l 585 1371 q 559 1259 585 1300 q 469 1218 534 1217 m 503 6 q 476 -3 503 6 q 378 -12 450 -12 q 253 6 306 -12 q 166 57 199 25 q 113 140 133 90 q 85 247 93 191 q 78 379 78 304 l 78 1124 l 227 1124 l 227 372 q 230 288 227 323 q 242 217 233 253 q 268 160 252 182 q 311 124 283 138 q 378 111 339 111 q 444 124 416 111 q 487 160 471 138 q 513 218 503 182 q 525 288 522 253 q 528 372 528 323 l 528 1124 l 677 1124 l 677 379 q 669 247 677 304 q 642 140 662 191 q 589 57 622 90 q 503 6 555 25 z "},"ũ":{"ha":611,"x_min":70,"x_max":534,"o":"m 394 897 q 296 930 359 897 q 214 964 233 964 q 188 952 196 966 q 179 909 179 939 l 94 909 q 214 1059 94 1061 q 316 1025 251 1058 q 394 991 380 991 q 419 1004 412 991 q 426 1049 426 1017 l 510 1049 q 484 937 510 979 q 394 897 458 896 m 190 -11 q 131 3 156 -11 q 94 42 106 18 q 75 94 81 67 q 70 153 70 121 l 70 803 l 218 803 l 218 197 q 232 128 218 151 q 282 106 245 106 q 386 155 327 106 l 386 803 l 534 803 l 534 0 l 386 0 l 386 79 q 190 -11 291 -11 z "},"Ū":{"ha":755,"x_min":78,"x_max":677,"o":"m 243 1218 l 243 1308 l 511 1308 l 511 1218 l 243 1218 m 503 6 q 476 -3 503 6 q 378 -12 450 -12 q 253 6 306 -12 q 166 57 199 25 q 113 140 133 90 q 85 247 93 191 q 78 379 78 304 l 78 1124 l 227 1124 l 227 372 q 230 288 227 323 q 242 217 233 253 q 268 160 252 182 q 311 124 283 138 q 378 111 339 111 q 444 124 416 111 q 487 160 471 138 q 513 218 503 182 q 525 288 522 253 q 528 372 528 323 l 528 1124 l 677 1124 l 677 379 q 669 247 677 304 q 642 140 662 191 q 589 57 622 90 q 503 6 555 25 z "},"ū":{"ha":611,"x_min":70,"x_max":534,"o":"m 169 897 l 169 986 l 436 986 l 436 897 l 169 897 m 190 -11 q 131 3 156 -11 q 94 42 106 18 q 75 94 81 67 q 70 153 70 121 l 70 803 l 218 803 l 218 197 q 232 128 218 151 q 282 106 245 106 q 386 155 327 106 l 386 803 l 534 803 l 534 0 l 386 0 l 386 79 q 190 -11 291 -11 z "},"Ŭ":{"ha":755,"x_min":78,"x_max":677,"o":"m 377 1218 q 182 1424 184 1218 l 269 1424 q 297 1331 270 1360 q 377 1302 323 1302 q 457 1331 431 1302 q 485 1424 484 1360 l 572 1424 q 377 1218 572 1218 m 503 6 q 476 -3 503 6 q 378 -12 450 -12 q 253 6 306 -12 q 166 57 199 25 q 113 140 133 90 q 85 247 93 191 q 78 379 78 304 l 78 1124 l 227 1124 l 227 372 q 230 288 227 323 q 242 217 233 253 q 268 160 252 182 q 311 124 283 138 q 378 111 339 111 q 444 124 416 111 q 487 160 471 138 q 513 218 503 182 q 525 288 522 253 q 528 372 528 323 l 528 1124 l 677 1124 l 677 379 q 669 247 677 304 q 642 140 662 191 q 589 57 622 90 q 503 6 555 25 z "},"ŭ":{"ha":611,"x_min":70,"x_max":534,"o":"m 302 897 q 107 1103 109 897 l 194 1103 q 221 1009 195 1038 q 302 981 248 981 q 382 1010 355 981 q 410 1103 409 1039 l 497 1103 q 302 897 497 897 m 190 -11 q 131 3 156 -11 q 94 42 106 18 q 75 94 81 67 q 70 153 70 121 l 70 803 l 218 803 l 218 197 q 232 128 218 151 q 282 106 245 106 q 386 155 327 106 l 386 803 l 534 803 l 534 0 l 386 0 l 386 79 q 190 -11 291 -11 z "},"Ů":{"ha":755,"x_min":78,"x_max":677,"o":"m 319 1315 q 330 1304 319 1315 q 377 1293 340 1293 q 435 1315 414 1293 q 456 1373 456 1336 q 435 1432 456 1411 q 377 1453 414 1453 q 319 1432 340 1453 q 298 1373 298 1411 q 319 1315 298 1336 m 490 1260 q 468 1239 490 1260 q 377 1218 447 1218 q 265 1260 307 1218 q 222 1373 222 1303 q 265 1486 222 1444 q 377 1528 307 1528 q 490 1486 447 1528 q 532 1373 532 1444 q 490 1260 532 1303 m 503 6 q 476 -3 503 6 q 378 -12 450 -12 q 253 6 306 -12 q 166 57 199 25 q 113 140 133 90 q 85 247 93 191 q 78 379 78 304 l 78 1124 l 227 1124 l 227 372 q 230 288 227 323 q 242 217 233 253 q 268 160 252 182 q 311 124 283 138 q 378 111 339 111 q 444 124 416 111 q 487 160 471 138 q 513 218 503 182 q 525 288 522 253 q 528 372 528 323 l 528 1124 l 677 1124 l 677 379 q 669 247 677 304 q 642 140 662 191 q 589 57 622 90 q 503 6 555 25 z "},"ů":{"ha":611,"x_min":70,"x_max":534,"o":"m 244 993 q 254 982 244 993 q 302 972 265 972 q 360 993 338 972 q 381 1052 381 1015 q 360 1111 381 1090 q 302 1132 338 1132 q 244 1111 265 1132 q 222 1052 222 1090 q 244 993 222 1015 m 414 939 q 393 918 414 939 q 302 897 372 897 q 190 939 232 897 q 147 1052 147 981 q 190 1164 147 1122 q 302 1206 232 1206 q 414 1164 372 1206 q 457 1052 457 1122 q 414 939 457 981 m 190 -11 q 131 3 156 -11 q 94 42 106 18 q 75 94 81 67 q 70 153 70 121 l 70 803 l 218 803 l 218 197 q 232 128 218 151 q 282 106 245 106 q 386 155 327 106 l 386 803 l 534 803 l 534 0 l 386 0 l 386 79 q 190 -11 291 -11 z "},"Ű":{"ha":755,"x_min":78,"x_max":677,"o":"m 427 1218 l 507 1455 l 658 1455 l 503 1218 l 427 1218 m 252 1218 l 307 1455 l 428 1455 l 327 1218 l 252 1218 m 503 6 q 476 -3 503 6 q 378 -12 450 -12 q 253 6 306 -12 q 166 57 199 25 q 113 140 133 90 q 85 247 93 191 q 78 379 78 304 l 78 1124 l 227 1124 l 227 372 q 230 288 227 323 q 242 217 233 253 q 268 160 252 182 q 311 124 283 138 q 378 111 339 111 q 444 124 416 111 q 487 160 471 138 q 513 218 503 182 q 525 288 522 253 q 528 372 528 323 l 528 1124 l 677 1124 l 677 379 q 669 247 677 304 q 642 140 662 191 q 589 57 622 90 q 503 6 555 25 z "},"ű":{"ha":611,"x_min":70,"x_max":583,"o":"m 352 897 l 432 1134 l 583 1134 l 428 897 l 352 897 m 176 897 l 231 1134 l 353 1134 l 252 897 l 176 897 m 190 -11 q 131 3 156 -11 q 94 42 106 18 q 75 94 81 67 q 70 153 70 121 l 70 803 l 218 803 l 218 197 q 232 128 218 151 q 282 106 245 106 q 386 155 327 106 l 386 803 l 534 803 l 534 0 l 386 0 l 386 79 q 190 -11 291 -11 z "},"Ų":{"ha":755,"x_min":78,"x_max":677,"o":"m 434 -316 q 366 -315 393 -316 q 309 -310 339 -313 q 259 -298 278 -306 q 224 -277 241 -290 q 200 -244 208 -264 q 193 -197 193 -224 q 241 -73 193 -132 q 346 5 289 -13 l 422 5 q 399 -22 418 0 q 373 -54 381 -43 q 349 -87 364 -65 q 325 -123 333 -109 q 311 -158 317 -138 q 304 -193 304 -177 q 310 -216 304 -206 q 326 -230 315 -225 q 348 -238 336 -235 q 376 -242 359 -241 q 405 -242 393 -242 q 435 -241 417 -242 q 460 -241 452 -241 l 434 -316 m 503 6 q 476 -3 503 6 q 378 -12 450 -12 q 253 6 306 -12 q 166 57 199 25 q 113 140 133 90 q 85 247 93 191 q 78 379 78 304 l 78 1124 l 227 1124 l 227 372 q 230 288 227 323 q 242 217 233 253 q 268 160 252 182 q 311 124 283 138 q 378 111 339 111 q 444 124 416 111 q 487 160 471 138 q 513 218 503 182 q 525 288 522 253 q 528 372 528 323 l 528 1124 l 677 1124 l 677 379 q 669 247 677 304 q 642 140 662 191 q 589 57 622 90 q 503 6 555 25 z "},"ų":{"ha":611,"x_min":70,"x_max":534,"o":"m 496 -316 q 428 -315 455 -316 q 370 -310 401 -313 q 321 -298 340 -306 q 286 -277 302 -290 q 262 -244 269 -264 q 254 -197 254 -224 q 302 -73 254 -132 q 408 5 351 -13 l 484 5 q 461 -22 479 0 q 434 -54 443 -43 q 410 -87 426 -65 q 387 -123 395 -109 q 373 -158 379 -138 q 366 -193 366 -177 q 372 -216 366 -206 q 388 -230 377 -225 q 410 -238 398 -235 q 438 -242 421 -241 q 467 -242 454 -242 q 496 -241 479 -242 q 522 -241 514 -241 l 496 -316 m 190 -11 q 131 3 156 -11 q 94 42 106 18 q 75 94 81 67 q 70 153 70 121 l 70 803 l 218 803 l 218 197 q 232 128 218 151 q 282 106 245 106 q 386 155 327 106 l 386 803 l 534 803 l 534 0 l 386 0 l 386 79 q 190 -11 291 -11 z "},"Ŵ":{"ha":1013,"x_min":50,"x_max":962,"o":"m 310 1218 l 430 1460 l 581 1460 l 701 1218 l 589 1218 l 505 1386 l 421 1218 l 310 1218 m 233 0 l 50 1124 l 181 1124 l 301 316 l 453 1121 l 564 1121 l 717 313 l 834 1124 l 962 1124 l 782 0 l 668 0 l 511 833 l 353 0 l 233 0 z "},"ŵ":{"ha":817,"x_min":39,"x_max":777,"o":"m 212 897 l 332 1139 l 483 1139 l 604 897 l 492 897 l 408 1065 l 323 897 l 212 897 m 168 0 l 39 803 l 161 803 l 245 212 l 352 803 l 465 803 l 572 214 l 656 803 l 777 803 l 645 0 l 519 0 l 410 566 l 302 0 l 168 0 z "},"Ŷ":{"ha":669,"x_min":17,"x_max":652,"o":"m 139 1218 l 259 1460 l 410 1460 l 530 1218 l 418 1218 l 334 1386 l 250 1218 l 139 1218 m 260 0 l 260 397 l 17 1124 l 163 1124 l 334 583 l 504 1124 l 652 1124 l 410 397 l 410 0 l 260 0 z "},"ŷ":{"ha":544,"x_min":16,"x_max":530,"o":"m 77 897 l 197 1139 l 348 1139 l 469 897 l 357 897 l 273 1065 l 189 897 l 77 897 m 62 -201 l 62 -88 q 189 -69 161 -88 q 203 9 216 -50 q 178 119 184 93 q 97 461 154 221 q 16 803 41 701 l 167 803 l 275 203 l 379 803 l 530 803 l 337 -44 q 256 -165 318 -130 q 81 -201 194 -201 l 62 -201 z "},"Ÿ":{"ha":669,"x_min":17,"x_max":652,"o":"m 378 1218 l 378 1371 l 528 1371 l 528 1218 l 378 1218 m 140 1218 l 140 1371 l 290 1371 l 290 1218 l 140 1218 m 260 0 l 260 397 l 17 1124 l 163 1124 l 334 583 l 504 1124 l 652 1124 l 410 397 l 410 0 l 260 0 z "},"Ź":{"ha":578,"x_min":53,"x_max":551,"o":"m 264 1218 l 347 1493 l 495 1493 l 340 1218 l 264 1218 m 53 0 l 53 113 l 383 1012 l 73 1012 l 73 1124 l 550 1124 l 550 1057 l 201 113 l 551 113 l 551 0 l 53 0 z "},"ź":{"ha":481,"x_min":44,"x_max":450,"o":"m 209 897 l 291 1171 l 439 1171 l 284 897 l 209 897 m 44 0 l 44 100 l 290 692 l 69 692 l 69 803 l 450 803 l 450 722 l 203 112 l 444 112 l 444 0 l 44 0 z "},"Ż":{"ha":578,"x_min":53,"x_max":551,"o":"m 227 1218 l 227 1383 l 376 1383 l 376 1218 l 227 1218 m 53 0 l 53 113 l 383 1012 l 73 1012 l 73 1124 l 550 1124 l 550 1057 l 201 113 l 551 113 l 551 0 l 53 0 z "},"ż":{"ha":481,"x_min":44,"x_max":450,"o":"m 172 897 l 172 1061 l 321 1061 l 321 897 l 172 897 m 44 0 l 44 100 l 290 692 l 69 692 l 69 803 l 450 803 l 450 722 l 203 112 l 444 112 l 444 0 l 44 0 z "},"Ž":{"ha":578,"x_min":53,"x_max":551,"o":"m 229 1218 l 109 1457 l 221 1457 l 302 1295 l 382 1457 l 495 1457 l 374 1218 l 229 1218 m 53 0 l 53 113 l 383 1012 l 73 1012 l 73 1124 l 550 1124 l 550 1057 l 201 113 l 551 113 l 551 0 l 53 0 z "},"ž":{"ha":481,"x_min":44,"x_max":450,"o":"m 174 897 l 54 1136 l 166 1136 l 247 974 l 327 1136 l 440 1136 l 319 897 l 174 897 m 44 0 l 44 100 l 290 692 l 69 692 l 69 803 l 450 803 l 450 722 l 203 112 l 444 112 l 444 0 l 44 0 z "},"ƒ":{"ha":528,"x_min":-1,"x_max":521,"o":"m 94 -165 q -1 -157 62 -165 l 9 -47 q 64 -54 49 -54 q 120 -28 104 -54 q 142 50 136 -3 l 210 692 l 119 692 l 119 803 l 222 803 l 227 852 q 243 951 233 911 q 275 1022 254 990 q 334 1070 297 1055 q 426 1085 371 1085 q 521 1078 461 1085 l 509 966 q 493 969 504 967 q 472 972 481 970 q 456 973 463 973 q 399 948 416 973 q 377 870 382 922 l 370 803 l 477 803 l 477 692 l 359 692 l 292 67 q 280 -14 288 20 q 259 -77 273 -47 q 224 -126 245 -108 q 170 -155 203 -144 q 94 -165 138 -165 z "},"Ǆ":{"ha":1310,"x_min":88,"x_max":1282,"o":"m 960 1218 l 840 1457 l 953 1457 l 1034 1295 l 1114 1457 l 1227 1457 l 1106 1218 l 960 1218 m 785 0 l 785 113 l 1115 1012 l 805 1012 l 805 1124 l 1282 1124 l 1282 1057 l 933 113 l 1282 113 l 1282 0 l 785 0 m 88 0 l 88 1124 l 332 1124 q 590 1042 515 1124 q 665 781 665 959 l 665 368 q 590 91 665 182 q 344 0 516 0 l 88 0 m 245 113 l 333 113 q 396 120 369 113 q 442 137 424 127 q 473 168 460 146 q 492 208 486 190 q 502 262 498 227 q 506 324 505 298 q 507 397 507 349 l 507 763 q 505 831 507 804 q 500 887 504 859 q 488 932 496 915 q 467 966 479 950 q 435 990 454 982 q 390 1004 416 999 q 330 1008 364 1008 l 245 1008 l 245 113 z "},"ǅ":{"ha":1213,"x_min":88,"x_max":1181,"o":"m 905 897 l 785 1136 l 898 1136 l 979 974 l 1059 1136 l 1172 1136 l 1051 897 l 905 897 m 776 0 l 776 100 l 1022 692 l 801 692 l 801 803 l 1181 803 l 1181 722 l 935 112 l 1176 112 l 1176 0 l 776 0 m 88 0 l 88 1124 l 332 1124 q 590 1042 515 1124 q 665 781 665 959 l 665 368 q 590 91 665 182 q 344 0 516 0 l 88 0 m 245 113 l 333 113 q 396 120 369 113 q 442 137 424 127 q 473 168 460 146 q 492 208 486 190 q 502 262 498 227 q 506 324 505 298 q 507 397 507 349 l 507 763 q 505 831 507 804 q 500 887 504 859 q 488 932 496 915 q 467 966 479 950 q 435 990 454 982 q 390 1004 416 999 q 330 1008 364 1008 l 245 1008 l 245 113 z "},"ǆ":{"ha":1095,"x_min":60,"x_max":1063,"o":"m 787 897 l 667 1136 l 780 1136 l 861 974 l 941 1136 l 1054 1136 l 933 897 l 787 897 m 658 0 l 658 100 l 904 692 l 683 692 l 683 803 l 1063 803 l 1063 722 l 817 112 l 1058 112 l 1058 0 l 658 0 m 299 106 q 390 136 342 106 l 390 662 q 296 697 341 697 q 209 530 209 697 l 209 302 q 211 238 209 264 q 218 185 212 212 q 233 142 223 158 q 259 116 242 126 q 299 106 276 106 m 262 -12 q 109 64 157 -12 q 60 315 60 140 l 60 471 q 65 578 60 531 q 82 670 69 625 q 117 746 96 716 q 173 795 138 777 q 256 814 209 814 q 390 751 329 814 l 390 1124 l 538 1124 l 538 0 l 390 0 l 390 52 q 262 -12 332 -12 z "},"Ǉ":{"ha":970,"x_min":88,"x_max":881,"o":"m 561 -26 l 561 86 q 644 93 614 86 q 693 119 674 99 q 718 170 712 138 q 724 256 724 201 l 724 1124 l 881 1124 l 881 254 q 870 128 881 178 q 831 42 859 78 q 756 -10 804 6 q 635 -26 708 -26 l 561 -26 m 88 0 l 88 1124 l 245 1124 l 245 113 l 532 113 l 532 0 l 88 0 z "},"ǈ":{"ha":871,"x_min":88,"x_max":797,"o":"m 648 922 l 648 1078 l 797 1078 l 797 922 l 648 922 m 526 -193 l 526 -86 q 564 -90 543 -90 q 648 7 648 -90 l 648 803 l 796 803 l 796 -9 q 744 -152 796 -102 q 601 -203 692 -203 q 526 -193 550 -203 m 88 0 l 88 1124 l 245 1124 l 245 113 l 532 113 l 532 0 l 88 0 z "},"ǉ":{"ha":637,"x_min":89,"x_max":564,"o":"m 414 922 l 414 1078 l 564 1078 l 564 922 l 414 922 m 292 -193 l 292 -86 q 331 -90 310 -90 q 414 7 414 -90 l 414 803 l 563 803 l 563 -9 q 511 -152 563 -102 q 368 -203 459 -203 q 292 -193 317 -203 m 89 0 l 89 1124 l 238 1124 l 238 0 l 89 0 z "},"Ǌ":{"ha":1152,"x_min":88,"x_max":1063,"o":"m 743 -26 l 743 86 q 826 93 796 86 q 875 119 856 99 q 900 170 894 138 q 906 256 906 201 l 906 1124 l 1063 1124 l 1063 254 q 1052 128 1063 178 q 1013 42 1040 78 q 938 -10 985 6 q 817 -26 890 -26 l 743 -26 m 88 0 l 88 1124 l 195 1124 l 514 378 l 514 1124 l 645 1124 l 645 0 l 545 0 l 220 768 l 220 0 l 88 0 z "},"ǋ":{"ha":1053,"x_min":88,"x_max":979,"o":"m 829 922 l 829 1078 l 979 1078 l 979 922 l 829 922 m 707 -193 l 707 -86 q 746 -90 725 -90 q 829 7 829 -90 l 829 803 l 978 803 l 978 -9 q 926 -152 978 -102 q 783 -203 874 -203 q 707 -193 732 -203 m 88 0 l 88 1124 l 195 1124 l 514 378 l 514 1124 l 645 1124 l 645 0 l 545 0 l 220 768 l 220 0 l 88 0 z "},"ǌ":{"ha":930,"x_min":75,"x_max":856,"o":"m 707 922 l 707 1078 l 856 1078 l 856 922 l 707 922 m 585 -193 l 585 -86 q 623 -90 602 -90 q 707 7 707 -90 l 707 803 l 855 803 l 855 -9 q 803 -152 855 -102 q 660 -203 751 -203 q 585 -193 609 -203 m 75 0 l 75 803 l 224 803 l 224 724 q 420 814 319 814 q 478 800 454 814 q 516 761 503 785 q 534 709 529 736 q 540 650 540 682 l 540 0 l 391 0 l 391 606 q 378 675 391 652 q 328 697 364 697 q 224 648 283 697 l 224 0 l 75 0 z "},"Ǳ":{"ha":1310,"x_min":88,"x_max":1282,"o":"m 785 0 l 785 113 l 1115 1012 l 805 1012 l 805 1124 l 1282 1124 l 1282 1057 l 933 113 l 1282 113 l 1282 0 l 785 0 m 88 0 l 88 1124 l 332 1124 q 590 1042 515 1124 q 665 781 665 959 l 665 368 q 590 91 665 182 q 344 0 516 0 l 88 0 m 245 113 l 333 113 q 396 120 369 113 q 442 137 424 127 q 473 168 460 146 q 492 208 486 190 q 502 262 498 227 q 506 324 505 298 q 507 397 507 349 l 507 763 q 505 831 507 804 q 500 887 504 859 q 488 932 496 915 q 467 966 479 950 q 435 990 454 982 q 390 1004 416 999 q 330 1008 364 1008 l 245 1008 l 245 113 z "},"ǲ":{"ha":1213,"x_min":88,"x_max":1181,"o":"m 776 0 l 776 100 l 1022 692 l 801 692 l 801 803 l 1181 803 l 1181 722 l 935 112 l 1176 112 l 1176 0 l 776 0 m 88 0 l 88 1124 l 332 1124 q 590 1042 515 1124 q 665 781 665 959 l 665 368 q 590 91 665 182 q 344 0 516 0 l 88 0 m 245 113 l 333 113 q 396 120 369 113 q 442 137 424 127 q 473 168 460 146 q 492 208 486 190 q 502 262 498 227 q 506 324 505 298 q 507 397 507 349 l 507 763 q 505 831 507 804 q 500 887 504 859 q 488 932 496 915 q 467 966 479 950 q 435 990 454 982 q 390 1004 416 999 q 330 1008 364 1008 l 245 1008 l 245 113 z "},"ǳ":{"ha":1095,"x_min":60,"x_max":1063,"o":"m 658 0 l 658 100 l 904 692 l 683 692 l 683 803 l 1063 803 l 1063 722 l 817 112 l 1058 112 l 1058 0 l 658 0 m 299 106 q 390 136 342 106 l 390 662 q 296 697 341 697 q 209 530 209 697 l 209 302 q 211 238 209 264 q 218 185 212 212 q 233 142 223 158 q 259 116 242 126 q 299 106 276 106 m 262 -12 q 109 64 157 -12 q 60 315 60 140 l 60 471 q 65 578 60 531 q 82 670 69 625 q 117 746 96 716 q 173 795 138 777 q 256 814 209 814 q 390 751 329 814 l 390 1124 l 538 1124 l 538 0 l 390 0 l 390 52 q 262 -12 332 -12 z "},"Ǵ":{"ha":743,"x_min":67,"x_max":670,"o":"m 331 1218 l 413 1493 l 562 1493 l 406 1218 l 331 1218 m 356 -14 q 135 83 203 -14 q 67 369 67 180 l 67 745 q 76 881 67 823 q 105 989 84 939 q 159 1069 125 1038 q 245 1118 193 1101 q 368 1135 298 1135 q 593 1056 524 1135 q 661 806 661 977 l 661 765 l 514 765 l 514 800 q 511 879 514 848 q 500 937 509 909 q 476 980 492 965 q 434 1004 460 996 q 370 1013 408 1013 q 319 1007 341 1013 q 281 990 296 1000 q 255 961 265 979 q 238 924 244 942 q 229 878 232 906 q 224 827 225 850 q 224 769 224 804 l 224 353 q 255 167 224 223 q 374 111 286 111 q 495 172 463 111 q 528 368 528 233 l 528 446 l 385 446 l 385 557 l 670 557 l 670 0 l 570 0 l 555 130 q 356 -14 505 -14 z "},"ǵ":{"ha":604,"x_min":27,"x_max":621,"o":"m 286 901 l 368 1176 l 517 1176 l 361 901 l 286 901 m 287 351 q 365 392 346 351 q 383 528 383 434 q 381 591 383 566 q 374 640 380 616 q 358 679 368 665 q 331 702 348 693 q 289 711 313 711 q 211 667 231 711 q 191 528 191 624 q 193 471 191 495 q 201 422 195 446 q 217 384 207 399 q 245 360 228 369 q 287 351 262 351 m 323 -132 q 418 -113 387 -132 q 449 -52 449 -94 q 426 5 449 -14 q 339 30 402 24 l 212 40 q 173 -4 193 24 q 153 -64 153 -33 q 165 -102 153 -89 q 214 -124 176 -116 q 323 -132 252 -132 m 325 -249 q 249 -248 281 -249 q 180 -242 216 -246 q 118 -229 143 -237 q 71 -207 92 -220 q 38 -173 49 -193 q 27 -124 27 -152 q 60 -16 27 -62 q 143 56 93 29 q 85 91 105 68 q 65 143 65 115 q 86 216 65 184 q 155 288 107 247 q 84 380 107 325 q 62 528 62 435 q 119 741 62 669 q 287 814 176 814 q 452 726 410 814 q 494 766 463 740 q 561 808 525 792 l 584 819 l 621 722 q 544 698 593 716 q 484 671 495 680 q 502 603 494 647 q 509 524 509 558 q 498 411 509 460 q 462 323 487 361 q 393 266 437 286 q 287 245 349 245 q 245 250 275 245 q 211 256 216 254 q 205 245 210 254 q 197 233 199 237 q 192 221 195 229 q 186 207 188 213 q 184 194 184 200 q 200 170 184 178 q 252 159 216 162 q 315 153 255 158 q 376 147 375 147 q 562 -48 562 130 q 505 -202 562 -156 q 325 -249 448 -249 z "},"Ȁ":{"ha":683,"x_min":26,"x_max":657,"o":"m 393 1218 l 290 1454 l 412 1454 l 468 1218 l 393 1218 m 215 1218 l 60 1454 l 210 1454 l 290 1218 l 215 1218 m 248 395 l 436 395 l 342 903 l 248 395 m 26 0 l 266 1124 l 417 1124 l 657 0 l 508 0 l 456 283 l 228 283 l 174 0 l 26 0 z "},"ȁ":{"ha":591,"x_min":16,"x_max":537,"o":"m 349 897 l 245 1133 l 368 1133 l 424 897 l 349 897 m 171 897 l 16 1133 l 165 1133 l 245 897 l 171 897 m 278 117 q 334 140 307 117 q 375 184 361 162 l 375 411 q 272 346 297 367 q 207 220 207 293 q 225 144 207 172 q 278 117 243 117 m 219 -12 q 104 45 151 -12 q 58 175 58 102 q 76 278 58 232 q 116 353 95 325 q 189 413 137 382 q 269 456 241 444 q 369 498 298 469 q 375 501 373 500 l 375 559 q 359 670 375 637 q 294 703 343 703 q 210 589 210 703 l 210 549 l 63 554 q 64 584 63 566 q 132 759 71 704 q 304 814 192 814 q 472 750 420 814 q 524 559 524 687 l 524 193 q 537 0 524 102 l 401 0 q 382 119 387 67 q 324 26 365 64 q 219 -12 283 -12 z "},"Ȃ":{"ha":683,"x_min":26,"x_max":657,"o":"m 158 1218 q 166 1300 158 1265 q 194 1364 174 1335 q 251 1409 214 1394 q 341 1424 288 1424 q 416 1414 384 1424 q 469 1385 449 1403 q 502 1340 489 1367 q 519 1284 514 1314 q 524 1218 524 1255 l 437 1218 q 415 1312 436 1284 q 342 1340 393 1340 q 268 1312 290 1340 q 245 1218 246 1284 l 158 1218 m 248 395 l 436 395 l 342 903 l 248 395 m 26 0 l 266 1124 l 417 1124 l 657 0 l 508 0 l 456 283 l 228 283 l 174 0 l 26 0 z "},"ȃ":{"ha":591,"x_min":58,"x_max":537,"o":"m 115 897 q 123 979 115 944 q 151 1043 131 1013 q 207 1087 170 1072 q 298 1103 244 1103 q 373 1092 340 1103 q 426 1064 406 1082 q 458 1019 446 1046 q 476 963 471 992 q 481 897 481 933 l 393 897 q 371 991 393 963 q 298 1019 350 1019 q 224 990 246 1019 q 202 897 203 962 l 115 897 m 278 117 q 334 140 307 117 q 375 184 361 162 l 375 411 q 272 346 297 367 q 207 220 207 293 q 225 144 207 172 q 278 117 243 117 m 219 -12 q 104 45 151 -12 q 58 175 58 102 q 76 278 58 232 q 116 353 95 325 q 189 413 137 382 q 269 456 241 444 q 369 498 298 469 q 375 501 373 500 l 375 559 q 359 670 375 637 q 294 703 343 703 q 210 589 210 703 l 210 549 l 63 554 q 64 584 63 566 q 132 759 71 704 q 304 814 192 814 q 472 750 420 814 q 524 559 524 687 l 524 193 q 537 0 524 102 l 401 0 q 382 119 387 67 q 324 26 365 64 q 219 -12 283 -12 z "},"Ȅ":{"ha":566,"x_min":26,"x_max":527,"o":"m 359 1218 l 256 1454 l 378 1454 l 434 1218 l 359 1218 m 181 1218 l 26 1454 l 176 1454 l 256 1218 l 181 1218 m 88 0 l 88 1124 l 524 1124 l 524 1008 l 245 1008 l 245 637 l 471 637 l 471 525 l 245 525 l 245 113 l 527 113 l 527 0 l 88 0 z "},"ȅ":{"ha":585,"x_min":12,"x_max":526,"o":"m 345 897 l 241 1133 l 363 1133 l 420 897 l 345 897 m 167 897 l 12 1133 l 161 1133 l 241 897 l 167 897 m 209 479 l 379 479 l 379 552 q 377 606 379 584 q 371 648 376 627 q 357 680 366 668 q 333 698 348 691 q 296 705 317 705 q 226 667 243 705 q 209 523 209 629 l 209 479 m 298 -12 q 180 8 227 -12 q 107 71 134 28 q 71 170 81 113 q 60 309 60 227 l 60 493 q 72 634 60 576 q 109 733 83 691 q 182 794 136 774 q 297 814 229 814 q 373 806 340 814 q 430 783 406 798 q 471 745 454 769 q 499 694 488 721 q 515 629 509 667 q 524 553 522 591 q 526 464 526 515 l 525 399 l 209 399 l 209 292 q 209 283 209 289 q 209 233 209 249 q 212 190 210 216 q 220 151 214 164 q 235 124 225 138 q 259 104 244 110 q 296 98 275 98 q 362 131 345 98 q 379 231 379 164 l 379 279 l 524 279 l 524 248 q 298 -12 524 -12 z "},"Ȇ":{"ha":566,"x_min":88,"x_max":527,"o":"m 124 1218 q 132 1300 124 1265 q 160 1364 140 1335 q 217 1409 180 1394 q 307 1424 254 1424 q 382 1414 350 1424 q 435 1385 415 1403 q 468 1340 455 1367 q 485 1284 480 1314 q 490 1218 490 1255 l 403 1218 q 381 1312 402 1284 q 308 1340 359 1340 q 234 1312 256 1340 q 212 1218 212 1284 l 124 1218 m 88 0 l 88 1124 l 524 1124 l 524 1008 l 245 1008 l 245 637 l 471 637 l 471 525 l 245 525 l 245 113 l 527 113 l 527 0 l 88 0 z "},"ȇ":{"ha":585,"x_min":60,"x_max":526,"o":"m 110 897 q 118 979 110 944 q 146 1043 126 1013 q 202 1087 165 1072 q 293 1103 239 1103 q 368 1092 336 1103 q 421 1064 401 1082 q 453 1019 441 1046 q 471 963 466 992 q 476 897 476 933 l 389 897 q 367 991 388 963 q 294 1019 345 1019 q 220 990 241 1019 q 197 897 198 962 l 110 897 m 209 479 l 379 479 l 379 552 q 377 606 379 584 q 371 648 376 627 q 357 680 366 668 q 333 698 348 691 q 296 705 317 705 q 226 667 243 705 q 209 523 209 629 l 209 479 m 298 -12 q 180 8 227 -12 q 107 71 134 28 q 71 170 81 113 q 60 309 60 227 l 60 493 q 72 634 60 576 q 109 733 83 691 q 182 794 136 774 q 297 814 229 814 q 373 806 340 814 q 430 783 406 798 q 471 745 454 769 q 499 694 488 721 q 515 629 509 667 q 524 553 522 591 q 526 464 526 515 l 525 399 l 209 399 l 209 292 q 209 283 209 289 q 209 233 209 249 q 212 190 210 216 q 220 151 214 164 q 235 124 225 138 q 259 104 244 110 q 296 98 275 98 q 362 131 345 98 q 379 231 379 164 l 379 279 l 524 279 l 524 248 q 298 -12 524 -12 z "},"Ȉ":{"ha":344,"x_min":-109,"x_max":299,"o":"m 224 1218 l 121 1454 l 243 1454 l 299 1218 l 224 1218 m 46 1218 l -109 1454 l 41 1454 l 121 1218 l 46 1218 m 96 0 l 96 1124 l 250 1124 l 250 0 l 96 0 z "},"ȉ":{"ha":311,"x_min":-123,"x_max":286,"o":"m 210 897 l 107 1133 l 229 1133 l 286 897 l 210 897 m 33 897 l -123 1133 l 27 1133 l 107 897 l 33 897 m 85 0 l 85 803 l 233 803 l 233 0 l 85 0 z "},"Ȋ":{"ha":344,"x_min":-10,"x_max":356,"o":"m -10 1218 q -2 1300 -10 1265 q 26 1364 6 1335 q 82 1409 45 1394 q 173 1424 119 1424 q 248 1414 216 1424 q 301 1385 281 1403 q 333 1340 321 1367 q 351 1284 346 1314 q 356 1218 356 1255 l 269 1218 q 247 1312 268 1284 q 174 1340 225 1340 q 100 1312 121 1340 q 77 1218 78 1284 l -10 1218 m 96 0 l 96 1124 l 250 1124 l 250 0 l 96 0 z "},"ȋ":{"ha":311,"x_min":-24,"x_max":342,"o":"m -24 897 q -16 979 -24 944 q 12 1043 -7 1013 q 69 1087 32 1072 q 159 1103 106 1103 q 235 1092 202 1103 q 287 1064 267 1082 q 320 1019 307 1046 q 337 963 332 992 q 342 897 342 933 l 255 897 q 233 991 254 963 q 160 1019 212 1019 q 86 990 108 1019 q 64 897 64 962 l -24 897 m 85 0 l 85 803 l 233 803 l 233 0 l 85 0 z "},"Ȍ":{"ha":749,"x_min":67,"x_max":682,"o":"m 426 1218 l 323 1454 l 445 1454 l 501 1218 l 426 1218 m 248 1218 l 93 1454 l 243 1454 l 323 1218 l 248 1218 m 374 -12 q 230 13 290 -12 q 135 87 170 38 q 83 201 100 136 q 67 353 67 266 l 67 779 q 139 1045 67 954 q 374 1135 210 1135 q 610 1044 538 1135 q 682 779 682 953 l 682 352 q 609 82 682 176 q 374 -12 537 -12 m 298 125 q 313 118 298 125 q 374 111 328 111 q 451 125 420 111 q 496 168 481 139 q 518 232 512 197 q 524 319 524 267 l 524 811 q 518 896 524 862 q 496 958 512 930 q 451 1000 481 987 q 374 1013 420 1013 q 298 1000 328 1013 q 252 958 268 987 q 231 896 237 930 q 225 811 225 862 l 225 319 q 231 232 225 267 q 252 168 237 197 q 298 125 268 139 z "},"ȍ":{"ha":589,"x_min":13,"x_max":528,"o":"m 346 897 l 243 1133 l 365 1133 l 421 897 l 346 897 m 168 897 l 13 1133 l 163 1133 l 243 897 l 168 897 m 294 -12 q 183 9 229 -12 q 111 69 137 29 q 72 162 84 109 q 60 285 60 214 l 60 517 q 72 641 60 588 q 111 733 84 693 q 183 793 137 773 q 294 814 229 814 q 475 738 421 814 q 528 517 528 662 l 528 285 q 475 64 528 140 q 294 -12 421 -12 m 294 98 q 330 104 315 98 q 354 125 345 111 q 368 152 363 139 q 376 190 374 165 q 379 230 378 215 q 379 275 379 245 l 379 527 q 379 566 379 553 q 377 601 378 578 q 373 635 376 623 q 363 663 370 647 q 348 686 357 678 q 326 699 339 693 q 294 705 312 705 q 263 699 277 705 q 240 686 249 693 q 225 663 231 678 q 215 635 218 647 q 211 601 212 623 q 209 566 210 578 q 209 527 209 553 l 209 275 q 209 237 209 250 q 211 201 210 224 q 215 167 212 179 q 225 140 218 155 q 240 117 231 125 q 263 104 249 109 q 294 98 277 98 z "},"Ȏ":{"ha":749,"x_min":67,"x_max":682,"o":"m 191 1218 q 199 1300 191 1265 q 227 1364 208 1335 q 284 1409 247 1394 q 374 1424 321 1424 q 450 1414 417 1424 q 502 1385 482 1403 q 535 1340 522 1367 q 552 1284 547 1314 q 557 1218 557 1255 l 470 1218 q 448 1312 469 1284 q 375 1340 427 1340 q 301 1312 323 1340 q 279 1218 279 1284 l 191 1218 m 374 -12 q 230 13 290 -12 q 135 87 170 38 q 83 201 100 136 q 67 353 67 266 l 67 779 q 139 1045 67 954 q 374 1135 210 1135 q 610 1044 538 1135 q 682 779 682 953 l 682 352 q 609 82 682 176 q 374 -12 537 -12 m 298 125 q 313 118 298 125 q 374 111 328 111 q 451 125 420 111 q 496 168 481 139 q 518 232 512 197 q 524 319 524 267 l 524 811 q 518 896 524 862 q 496 958 512 930 q 451 1000 481 987 q 374 1013 420 1013 q 298 1000 328 1013 q 252 958 268 987 q 231 896 237 930 q 225 811 225 862 l 225 319 q 231 232 225 267 q 252 168 237 197 q 298 125 268 139 z "},"ȏ":{"ha":589,"x_min":60,"x_max":528,"o":"m 111 897 q 119 979 111 944 q 147 1043 127 1013 q 204 1087 167 1072 q 294 1103 241 1103 q 370 1092 337 1103 q 422 1064 402 1082 q 455 1019 442 1046 q 472 963 467 992 q 477 897 477 933 l 390 897 q 368 991 389 963 q 295 1019 347 1019 q 221 990 243 1019 q 199 897 199 962 l 111 897 m 294 -12 q 183 9 229 -12 q 111 69 137 29 q 72 162 84 109 q 60 285 60 214 l 60 517 q 72 641 60 588 q 111 733 84 693 q 183 793 137 773 q 294 814 229 814 q 475 738 421 814 q 528 517 528 662 l 528 285 q 475 64 528 140 q 294 -12 421 -12 m 294 98 q 330 104 315 98 q 354 125 345 111 q 368 152 363 139 q 376 190 374 165 q 379 230 378 215 q 379 275 379 245 l 379 527 q 379 566 379 553 q 377 601 378 578 q 373 635 376 623 q 363 663 370 647 q 348 686 357 678 q 326 699 339 693 q 294 705 312 705 q 263 699 277 705 q 240 686 249 693 q 225 663 231 678 q 215 635 218 647 q 211 601 212 623 q 209 566 210 578 q 209 527 209 553 l 209 275 q 209 237 209 250 q 211 201 210 224 q 215 167 212 179 q 225 140 218 155 q 240 117 231 125 q 263 104 249 109 q 294 98 277 98 z "},"Ȑ":{"ha":721,"x_min":88,"x_max":666,"o":"m 429 1218 l 326 1454 l 448 1454 l 504 1218 l 429 1218 m 251 1218 l 96 1454 l 245 1454 l 326 1218 l 251 1218 m 245 640 l 304 640 q 450 681 406 640 q 494 827 494 721 q 456 970 494 929 q 314 1012 418 1012 l 245 1012 l 245 640 m 88 0 l 88 1124 l 314 1124 q 565 1055 485 1124 q 644 827 644 985 q 505 564 644 610 l 666 0 l 514 0 l 366 528 l 245 528 l 245 0 l 88 0 z "},"ȑ":{"ha":446,"x_min":-28,"x_max":429,"o":"m 305 897 l 202 1133 l 324 1133 l 380 897 l 305 897 m 127 897 l -28 1133 l 122 1133 l 202 897 l 127 897 m 79 0 l 79 803 l 227 803 l 227 688 q 312 785 269 758 q 405 813 356 813 q 429 812 418 813 l 429 648 q 348 663 388 663 q 282 647 311 663 q 227 587 254 630 l 227 0 l 79 0 z "},"Ȓ":{"ha":721,"x_min":88,"x_max":666,"o":"m 194 1218 q 202 1300 194 1265 q 230 1364 210 1335 q 287 1409 250 1394 q 377 1424 323 1424 q 452 1414 420 1424 q 505 1385 485 1403 q 537 1340 525 1367 q 555 1284 550 1314 q 560 1218 560 1255 l 473 1218 q 451 1312 472 1284 q 378 1340 429 1340 q 304 1312 326 1340 q 281 1218 282 1284 l 194 1218 m 245 640 l 304 640 q 450 681 406 640 q 494 827 494 721 q 456 970 494 929 q 314 1012 418 1012 l 245 1012 l 245 640 m 88 0 l 88 1124 l 314 1124 q 565 1055 485 1124 q 644 827 644 985 q 505 564 644 610 l 666 0 l 514 0 l 366 528 l 245 528 l 245 0 l 88 0 z "},"ȓ":{"ha":446,"x_min":71,"x_max":437,"o":"m 71 897 q 79 979 71 944 q 107 1043 87 1013 q 164 1087 127 1072 q 254 1103 201 1103 q 330 1092 297 1103 q 382 1064 362 1082 q 415 1019 402 1046 q 432 963 427 992 q 437 897 437 933 l 350 897 q 328 991 349 963 q 255 1019 307 1019 q 181 990 203 1019 q 159 897 159 962 l 71 897 m 79 0 l 79 803 l 227 803 l 227 688 q 312 785 269 758 q 405 813 356 813 q 429 812 418 813 l 429 648 q 348 663 388 663 q 282 647 311 663 q 227 587 254 630 l 227 0 l 79 0 z "},"Ȕ":{"ha":755,"x_min":78,"x_max":677,"o":"m 429 1218 l 326 1454 l 448 1454 l 504 1218 l 429 1218 m 251 1218 l 96 1454 l 245 1454 l 326 1218 l 251 1218 m 503 6 q 476 -3 503 6 q 378 -12 450 -12 q 253 6 306 -12 q 166 57 199 25 q 113 140 133 90 q 85 247 93 191 q 78 379 78 304 l 78 1124 l 227 1124 l 227 372 q 230 288 227 323 q 242 217 233 253 q 268 160 252 182 q 311 124 283 138 q 378 111 339 111 q 444 124 416 111 q 487 160 471 138 q 513 218 503 182 q 525 288 522 253 q 528 372 528 323 l 528 1124 l 677 1124 l 677 379 q 669 247 677 304 q 642 140 662 191 q 589 57 622 90 q 503 6 555 25 z "},"ȕ":{"ha":611,"x_min":20,"x_max":534,"o":"m 353 897 l 250 1133 l 372 1133 l 429 897 l 353 897 m 176 897 l 20 1133 l 170 1133 l 250 897 l 176 897 m 190 -11 q 131 3 156 -11 q 94 42 106 18 q 75 94 81 67 q 70 153 70 121 l 70 803 l 218 803 l 218 197 q 232 128 218 151 q 282 106 245 106 q 386 155 327 106 l 386 803 l 534 803 l 534 0 l 386 0 l 386 79 q 190 -11 291 -11 z "},"Ȗ":{"ha":755,"x_min":78,"x_max":677,"o":"m 195 1218 q 203 1300 195 1265 q 231 1364 211 1335 q 287 1409 250 1394 q 378 1424 324 1424 q 453 1414 420 1424 q 506 1385 486 1403 q 538 1340 526 1367 q 556 1284 551 1314 q 561 1218 561 1255 l 473 1218 q 451 1312 473 1284 q 378 1340 430 1340 q 304 1312 326 1340 q 282 1218 283 1284 l 195 1218 m 503 6 q 476 -3 503 6 q 378 -12 450 -12 q 253 6 306 -12 q 166 57 199 25 q 113 140 133 90 q 85 247 93 191 q 78 379 78 304 l 78 1124 l 227 1124 l 227 372 q 230 288 227 323 q 242 217 233 253 q 268 160 252 182 q 311 124 283 138 q 378 111 339 111 q 444 124 416 111 q 487 160 471 138 q 513 218 503 182 q 525 288 522 253 q 528 372 528 323 l 528 1124 l 677 1124 l 677 379 q 669 247 677 304 q 642 140 662 191 q 589 57 622 90 q 503 6 555 25 z "},"ȗ":{"ha":611,"x_min":70,"x_max":534,"o":"m 119 897 q 127 979 119 944 q 155 1043 135 1013 q 211 1087 174 1072 q 302 1103 248 1103 q 377 1092 345 1103 q 430 1064 410 1082 q 462 1019 450 1046 q 480 963 475 992 q 485 897 485 933 l 397 897 q 375 991 397 963 q 302 1019 354 1019 q 229 990 250 1019 q 206 897 207 962 l 119 897 m 190 -11 q 131 3 156 -11 q 94 42 106 18 q 75 94 81 67 q 70 153 70 121 l 70 803 l 218 803 l 218 197 q 232 128 218 151 q 282 106 245 106 q 386 155 327 106 l 386 803 l 534 803 l 534 0 l 386 0 l 386 79 q 190 -11 291 -11 z "},"Ș":{"ha":657,"x_min":54,"x_max":622,"o":"m 299 -407 l 261 -333 q 320 -309 302 -330 q 338 -248 338 -288 l 262 -248 l 262 -95 l 414 -95 l 412 -238 q 389 -363 412 -321 q 299 -407 366 -404 m 353 -12 q 137 75 211 -12 q 54 315 62 163 l 193 353 q 353 111 208 111 q 445 145 413 111 q 476 243 476 178 q 468 309 476 279 q 440 366 459 339 q 403 411 420 393 q 354 459 386 429 l 165 627 q 82 735 109 678 q 56 876 56 793 q 127 1066 56 998 q 321 1135 198 1134 q 523 1066 456 1137 q 604 844 590 994 l 471 808 q 464 873 469 844 q 448 930 459 901 q 422 977 437 959 q 380 1005 406 995 q 321 1014 355 1016 q 197 890 197 1005 q 214 808 197 841 q 271 738 231 774 l 460 570 q 578 428 534 504 q 622 256 622 352 q 547 60 622 132 q 353 -12 473 -12 z "},"ș":{"ha":519,"x_min":35,"x_max":484,"o":"m 220 -406 l 182 -332 q 242 -309 224 -330 q 260 -247 260 -288 l 184 -247 l 184 -94 l 335 -94 l 334 -237 q 310 -362 333 -321 q 220 -406 287 -404 m 261 -12 q 103 50 163 -12 q 35 214 43 111 l 159 252 q 193 136 168 174 q 267 98 219 98 q 332 124 307 98 q 355 191 357 151 q 290 303 352 250 l 153 420 q 79 507 104 462 q 54 616 53 552 q 112 762 57 711 q 262 814 167 814 q 405 754 353 814 q 466 603 458 695 l 366 566 q 334 669 357 633 q 267 705 312 705 q 209 681 231 705 q 187 623 186 657 q 227 541 187 576 l 370 411 q 453 314 423 364 q 484 194 484 264 q 424 41 484 94 q 261 -12 363 -12 z "},"Ț":{"ha":556,"x_min":-2,"x_max":558,"o":"m 239 -395 l 201 -321 q 261 -297 243 -318 q 279 -235 279 -276 l 203 -235 l 203 -83 l 354 -83 l 353 -226 q 329 -351 352 -309 q 239 -395 306 -392 m 203 0 l 203 1008 l -2 1008 l -2 1124 l 558 1124 l 558 1008 l 360 1008 l 360 0 l 203 0 z "},"ț":{"ha":428,"x_min":31,"x_max":393,"o":"m 174 -406 l 136 -332 q 195 -309 177 -330 q 213 -247 213 -288 l 137 -247 l 137 -94 l 288 -94 l 287 -237 q 263 -362 286 -321 q 174 -406 240 -404 m 289 -12 q 157 37 197 -12 q 115 180 117 85 l 115 704 l 31 704 l 31 803 l 115 803 l 115 1037 l 264 1037 l 264 803 l 393 803 l 393 704 l 264 704 l 264 191 q 279 123 264 142 q 337 103 294 103 q 392 106 369 103 l 392 -3 q 289 -12 327 -12 z "},"ȷ":{"ha":319,"x_min":-26,"x_max":245,"o":"m -26 -212 l -26 -104 q 13 -109 -8 -109 q 96 -12 96 -109 l 96 803 l 245 803 l 245 -27 q 193 -171 245 -120 q 50 -221 141 -221 q -26 -212 -1 -221 z "},"ʼ":{"ha":509,"x_min":119,"x_max":252,"o":"m 119 780 l 119 1124 l 252 1124 l 199 780 l 119 780 z "},"ˆ":{"ha":476,"x_min":43,"x_max":434,"o":"m 43 864 l 163 1124 l 313 1124 l 434 864 l 322 864 l 238 1050 l 154 864 l 43 864 z "},"ˇ":{"ha":468,"x_min":42,"x_max":428,"o":"m 161 885 l 42 1124 l 154 1124 l 235 962 l 315 1124 l 428 1124 l 307 885 l 161 885 z "},"˘":{"ha":484,"x_min":60,"x_max":425,"o":"m 333 933 q 314 926 333 933 q 242 918 296 918 q 152 933 189 918 q 96 978 115 949 q 68 1043 76 1008 q 60 1124 60 1078 l 146 1124 q 169 1030 147 1058 q 242 1002 190 1002 q 315 1030 294 1002 q 338 1124 337 1059 l 425 1124 q 417 1043 425 1078 q 390 978 409 1008 q 333 933 370 949 z "},"˙":{"ha":317,"x_min":-75,"x_max":75,"o":"m -75 83 l -75 248 l 75 248 l 75 83 l -75 83 z "},"˚":{"ha":401,"x_min":46,"x_max":356,"o":"m 143 925 q 153 914 143 925 q 201 903 164 903 q 259 925 237 903 q 280 983 280 946 q 259 1042 280 1021 q 201 1063 237 1063 q 143 1042 164 1063 q 121 983 121 1021 q 143 925 121 946 m 313 870 q 292 849 313 870 q 201 828 271 828 q 89 870 131 828 q 46 983 46 913 q 89 1096 46 1054 q 201 1138 131 1138 q 313 1096 271 1138 q 356 983 356 1054 q 313 870 356 913 z "},"˛":{"ha":332,"x_min":-18,"x_max":250,"o":"m 224 -316 q 156 -315 183 -316 q 98 -310 129 -313 q 49 -298 68 -306 q 14 -277 31 -290 q -10 -244 -3 -264 q -18 -197 -18 -224 q 31 -73 -18 -132 q 136 5 79 -13 l 212 5 q 189 -22 208 0 q 162 -54 171 -43 q 138 -87 154 -65 q 115 -123 123 -109 q 101 -158 107 -138 q 94 -193 94 -177 q 100 -216 94 -206 q 116 -230 105 -225 q 138 -238 126 -235 q 166 -242 149 -241 q 195 -242 182 -242 q 224 -241 207 -242 q 250 -241 242 -241 l 224 -316 z "},"˜":{"ha":589,"x_min":86,"x_max":502,"o":"m 386 972 q 288 1006 351 972 q 206 1040 224 1040 q 179 1027 188 1041 q 171 984 171 1014 l 86 984 q 206 1134 86 1137 q 308 1100 243 1133 q 386 1067 372 1067 q 411 1079 404 1066 q 418 1124 418 1092 l 502 1124 q 476 1013 502 1054 q 386 972 450 971 z "},"˝":{"ha":396,"x_min":132,"x_max":538,"o":"m 307 889 l 387 1126 l 538 1126 l 383 889 l 307 889 m 132 889 l 186 1126 l 308 1126 l 207 889 l 132 889 z "},"̀":{"ha":0,"x_min":-67,"x_max":161,"o":"m 87 850 l -67 1124 l 82 1124 l 161 850 l 87 850 z "},"́":{"ha":24,"x_min":-31,"x_max":199,"o":"m -31 850 l 51 1124 l 199 1124 l 44 850 l -31 850 z "},"̂":{"ha":476,"x_min":43,"x_max":434,"o":"m 43 882 l 163 1124 l 313 1124 l 434 882 l 322 882 l 238 1050 l 154 882 l 43 882 z "},"̃":{"ha":589,"x_min":86,"x_max":502,"o":"m 386 972 q 288 1006 351 972 q 206 1040 224 1040 q 179 1027 188 1041 q 171 984 171 1014 l 86 984 q 206 1134 86 1137 q 308 1100 243 1133 q 386 1067 372 1067 q 411 1079 404 1066 q 418 1124 418 1092 l 502 1124 q 476 1013 502 1054 q 386 972 450 971 z "},"̄":{"ha":416,"x_min":86,"x_max":353,"o":"m 86 1035 l 86 1124 l 353 1124 l 353 1035 l 86 1035 z "},"̆":{"ha":484,"x_min":47,"x_max":437,"o":"m 242 918 q 47 1124 49 918 l 134 1124 q 162 1031 135 1060 q 242 1002 189 1002 q 322 1031 296 1002 q 350 1124 349 1061 l 437 1124 q 242 918 437 918 z "},"̇":{"ha":0,"x_min":-54,"x_max":96,"o":"m -54 960 l -54 1124 l 96 1124 l 96 960 l -54 960 z "},"̈":{"ha":505,"x_min":59,"x_max":447,"o":"m 297 971 l 297 1124 l 447 1124 l 447 971 l 297 971 m 59 971 l 59 1124 l 208 1124 l 208 971 l 59 971 z "},"̊":{"ha":401,"x_min":46,"x_max":356,"o":"m 143 925 q 153 914 143 925 q 201 903 164 903 q 259 925 237 903 q 280 983 280 946 q 259 1042 280 1021 q 201 1063 237 1063 q 143 1042 164 1063 q 121 983 121 1021 q 143 925 121 946 m 313 870 q 292 849 313 870 q 201 828 271 828 q 89 870 131 828 q 46 983 46 913 q 89 1096 46 1054 q 201 1138 131 1138 q 313 1096 271 1138 q 356 983 356 1054 q 313 870 356 913 z "},"̌":{"ha":0,"x_min":-137,"x_max":250,"o":"m -17 885 l -137 1124 l -24 1124 l 56 962 l 136 1124 l 250 1124 l 129 885 l -17 885 z "},"̏":{"ha":397,"x_min":9,"x_max":417,"o":"m 342 888 l 239 1124 l 361 1124 l 417 888 l 342 888 m 164 888 l 9 1124 l 159 1124 l 239 888 l 164 888 z "},"̑":{"ha":484,"x_min":59,"x_max":425,"o":"m 59 918 q 67 1000 59 966 q 95 1064 75 1035 q 152 1109 115 1094 q 242 1124 189 1124 q 317 1114 285 1124 q 370 1085 350 1103 q 402 1041 390 1067 q 420 984 415 1014 q 425 918 425 955 l 338 918 q 316 1013 337 985 q 243 1040 294 1040 q 169 1012 191 1040 q 146 918 147 984 l 59 918 z "},"̦":{"ha":220,"x_min":33,"x_max":186,"o":"m 71 -363 l 33 -289 q 93 -265 75 -286 q 111 -203 111 -244 l 35 -203 l 35 -51 l 186 -51 l 184 -194 q 161 -319 184 -277 q 71 -363 138 -360 z "},"Π":{"ha":774,"x_min":88,"x_max":687,"o":"m 88 0 l 88 1124 l 687 1124 l 687 0 l 537 0 l 537 1013 l 237 1013 l 237 0 l 88 0 z "},"π":{"ha":732,"x_min":24,"x_max":678,"o":"m 263 691 l 263 0 l 115 0 l 115 691 l 24 691 l 24 803 l 678 803 l 678 691 l 568 691 l 568 244 q 588 129 568 156 q 671 102 608 102 l 661 -12 q 473 37 526 -12 q 420 195 420 86 l 420 691 l 263 691 z "},"Ѐ":{"ha":566,"x_min":88,"x_max":527,"o":"m 270 1218 l 116 1493 l 265 1493 l 345 1218 l 270 1218 z "},"Ё":{"ha":566,"x_min":88,"x_max":527,"o":"m 351 1218 l 351 1371 l 501 1371 l 501 1218 l 351 1218 m 113 1218 l 113 1371 l 262 1371 l 262 1218 l 113 1218 z "},"Ђ":{"ha":760,"x_min":14,"x_max":699,"o":"m 415 0 l 415 113 q 474 123 449 113 q 513 149 498 133 q 536 190 528 165 q 548 240 545 215 q 551 296 551 264 l 551 426 q 521 515 551 478 q 435 551 491 551 q 329 522 387 551 l 329 0 l 176 0 l 176 1008 l 14 1008 l 14 1124 l 509 1124 l 509 1008 l 329 1008 l 329 610 q 469 657 382 657 q 552 644 512 657 q 625 604 591 630 q 679 533 659 578 q 699 430 699 488 l 699 296 q 634 72 699 143 q 441 0 568 0 l 415 0 z "},"Ѓ":{"ha":536,"x_min":88,"x_max":515,"o":"m 264 1218 l 346 1493 l 494 1493 l 339 1218 l 264 1218 m 88 0 l 88 1124 l 515 1124 l 515 1008 l 245 1008 l 245 0 l 88 0 z "},"Є":{"ha":699,"x_min":67,"x_max":652,"o":"m 369 -12 q 246 7 299 -12 q 160 58 193 26 q 105 139 126 91 q 75 241 83 188 q 67 361 67 295 l 67 759 q 76 886 67 830 q 105 989 84 941 q 160 1069 126 1038 q 247 1118 194 1100 q 369 1135 299 1135 q 587 1053 521 1135 q 652 812 652 971 l 652 771 l 504 771 l 504 802 q 504 842 504 827 q 502 878 503 857 q 498 912 501 900 q 491 941 496 924 q 480 966 487 957 q 463 986 473 975 q 440 1001 453 996 q 410 1010 427 1006 q 370 1013 392 1013 q 313 1006 338 1013 q 273 984 289 999 q 248 950 258 968 q 233 903 238 932 q 227 847 229 874 q 225 781 225 821 l 225 638 l 503 638 l 503 529 l 225 529 l 225 336 q 257 160 225 210 q 370 111 289 111 q 424 117 401 111 q 461 140 447 124 q 485 172 476 155 q 498 218 494 189 q 503 271 502 247 q 504 335 504 296 l 504 380 l 652 380 l 652 334 q 644 219 652 270 q 616 124 636 168 q 565 50 597 79 q 484 4 533 21 q 369 -12 434 -12 z "},"Ѕ":{"ha":657,"x_min":54,"x_max":622,"o":"m 353 -12 q 137 75 211 -12 q 54 315 62 163 l 193 353 q 353 111 208 111 q 445 145 413 111 q 476 243 476 178 q 468 309 476 279 q 440 366 459 339 q 403 411 420 393 q 354 459 386 429 l 165 627 q 82 735 109 678 q 56 876 56 793 q 127 1066 56 998 q 321 1135 198 1134 q 523 1066 456 1137 q 604 844 590 994 l 471 808 q 464 873 469 844 q 448 930 459 901 q 422 977 437 959 q 380 1005 406 995 q 321 1014 355 1016 q 197 890 197 1005 q 214 808 197 841 q 271 738 231 774 l 460 570 q 578 428 534 504 q 622 256 622 352 q 547 60 622 132 q 353 -12 473 -12 z "},"І":{"ha":344,"x_min":96,"x_max":250,"o":"m 96 0 l 96 1124 l 250 1124 l 250 0 l 96 0 z "},"Ї":{"ha":344,"x_min":-21,"x_max":367,"o":"m 217 1218 l 217 1371 l 367 1371 l 367 1218 l 217 1218 m -21 1218 l -21 1371 l 128 1371 l 128 1218 l -21 1218 m 96 0 l 96 1124 l 250 1124 l 250 0 l 96 0 z "},"Ј":{"ha":418,"x_min":9,"x_max":330,"o":"m 9 -26 l 9 86 q 93 93 63 86 q 142 119 123 99 q 167 170 161 138 q 173 256 173 201 l 173 1124 l 330 1124 l 330 254 q 318 128 330 178 q 280 42 307 78 q 204 -10 252 6 q 84 -26 157 -26 l 9 -26 z "},"Љ":{"ha":1162,"x_min":19,"x_max":1116,"o":"m 733 113 l 763 113 q 854 121 819 113 q 917 152 890 129 q 956 219 944 176 q 968 331 968 262 q 922 495 968 447 q 760 543 877 543 l 733 543 l 733 113 m 19 -1 l 19 117 q 114 143 79 112 q 170 257 149 174 q 201 496 191 340 l 237 1124 l 733 1124 l 733 656 l 755 656 q 915 642 850 656 q 1026 590 979 627 q 1094 489 1073 553 q 1116 330 1116 425 q 1030 78 1116 157 q 763 0 945 0 l 576 0 l 576 1008 l 374 1008 l 345 496 q 326 311 338 389 q 292 171 314 233 q 237 71 270 109 q 158 15 204 33 q 50 -2 112 -4 l 19 -1 z "},"Њ":{"ha":1086,"x_min":88,"x_max":1048,"o":"m 665 113 l 695 113 q 787 121 751 113 q 849 152 822 129 q 888 219 876 176 q 900 331 900 262 q 854 495 900 447 q 692 543 809 543 l 665 543 l 665 113 m 695 0 l 507 0 l 507 543 l 245 543 l 245 0 l 88 0 l 88 1126 l 245 1126 l 245 656 l 507 656 l 507 1126 l 665 1126 l 665 656 l 687 656 q 847 642 782 656 q 958 590 911 627 q 1026 489 1005 553 q 1048 330 1048 425 q 963 78 1048 157 q 695 0 878 0 z "},"Ћ":{"ha":694,"x_min":-7,"x_max":625,"o":"m 157 0 l 157 1008 l -7 1008 l -7 1124 l 492 1124 l 492 1008 l 310 1008 l 310 610 q 330 623 316 615 q 382 643 345 631 q 460 654 420 654 q 578 617 532 654 q 625 522 625 581 l 625 0 l 476 0 l 476 487 q 462 542 476 524 q 411 559 448 559 q 363 551 388 559 q 327 534 338 542 q 310 522 315 527 l 310 0 l 157 0 z "},"Ќ":{"ha":705,"x_min":88,"x_max":689,"o":"m 351 1218 l 433 1493 l 582 1493 l 427 1218 l 351 1218 m 88 0 l 88 1124 l 245 1124 l 245 625 l 303 625 l 504 1124 l 661 1124 l 439 590 l 689 0 l 532 0 l 304 549 l 245 549 l 245 0 l 88 0 z "},"Ѝ":{"ha":757,"x_min":88,"x_max":669,"o":"m 341 1218 l 187 1493 l 336 1493 l 416 1218 l 341 1218 m 88 0 l 88 1124 l 226 1124 l 226 346 l 555 1124 l 669 1124 l 669 0 l 531 0 l 531 792 l 204 0 l 88 0 z "},"Ў":{"ha":627,"x_min":26,"x_max":612,"o":"m 319 1218 q 124 1424 125 1218 l 211 1424 q 238 1331 212 1360 q 319 1302 265 1302 q 399 1331 372 1302 q 427 1424 426 1360 l 514 1424 q 319 1218 514 1218 m 74 -170 l 74 -50 q 210 -44 168 -59 q 256 14 251 -28 q 248 125 260 56 l 26 1124 l 175 1124 l 270 646 l 327 290 l 376 644 l 461 1124 l 612 1124 l 410 123 q 398 59 406 100 q 373 -58 383 -24 q 329 -127 362 -92 q 237 -169 296 -162 q 74 -170 178 -176 z "},"Џ":{"ha":760,"x_min":88,"x_max":671,"o":"m 324 -205 l 314 0 l 88 0 l 88 1124 l 245 1124 l 245 112 l 515 112 l 515 1124 l 671 1124 l 671 0 l 452 0 l 441 -205 l 324 -205 z "},"А":{"ha":683,"x_min":26,"x_max":657,"o":"m 248 395 l 436 395 l 342 903 l 248 395 m 26 0 l 266 1124 l 417 1124 l 657 0 l 508 0 l 456 283 l 228 283 l 174 0 l 26 0 z "},"Б":{"ha":686,"x_min":88,"x_max":641,"o":"m 245 113 l 288 113 q 379 121 344 113 q 441 152 414 129 q 480 219 469 176 q 492 331 492 262 q 447 495 492 447 q 285 543 401 543 l 245 543 l 245 113 m 88 0 l 88 1124 l 570 1124 l 570 1011 l 245 1011 l 245 656 l 279 656 q 439 642 374 656 q 551 590 504 627 q 619 489 597 553 q 641 330 641 425 q 556 78 641 157 q 288 0 471 0 l 88 0 z "},"В":{"ha":728,"x_min":88,"x_max":676,"o":"m 245 655 l 337 655 q 472 698 434 655 q 509 843 509 741 q 505 901 509 876 q 492 943 500 926 q 470 973 485 961 q 439 992 454 985 q 396 1003 423 999 q 345 1007 370 1006 q 281 1008 320 1008 l 245 1008 l 245 655 m 245 113 l 351 113 q 490 160 452 113 q 527 321 527 208 q 483 483 527 429 q 338 536 438 536 l 245 536 l 245 113 m 88 0 l 88 1124 l 345 1124 q 572 1056 498 1124 q 646 843 646 987 q 485 606 646 628 q 630 512 585 581 q 676 321 676 442 q 605 85 676 170 q 387 0 534 0 l 88 0 z "},"Г":{"ha":536,"x_min":88,"x_max":515,"o":"m 88 0 l 88 1124 l 515 1124 l 515 1008 l 245 1008 l 245 0 l 88 0 z "},"Д":{"ha":871,"x_min":15,"x_max":841,"o":"m 212 113 l 576 113 l 576 1008 l 394 1008 l 384 755 q 375 603 380 673 q 364 480 370 533 q 348 382 358 427 q 331 306 338 336 q 310 247 323 275 q 289 202 297 218 q 264 166 281 186 q 239 139 248 147 q 212 113 231 130 m 15 -205 l 15 113 l 66 113 q 113 159 94 136 q 155 232 132 182 q 194 349 178 281 q 222 530 209 417 q 243 792 236 642 l 260 1124 l 732 1124 l 732 113 l 841 113 l 841 -205 l 720 -205 l 707 0 l 149 0 l 136 -205 l 15 -205 z "},"Е":{"ha":566,"x_min":88,"x_max":527,"o":"m 88 0 l 88 1124 l 524 1124 l 524 1008 l 245 1008 l 245 637 l 471 637 l 471 525 l 245 525 l 245 113 l 527 113 l 527 0 l 88 0 z "},"Ж":{"ha":939,"x_min":5,"x_max":935,"o":"m 5 0 l 267 575 l 32 1124 l 183 1124 l 394 583 l 403 583 l 403 1124 l 536 1124 l 536 583 l 545 583 l 756 1124 l 908 1124 l 672 575 l 935 0 l 781 0 l 547 563 l 536 563 l 536 0 l 403 0 l 403 563 l 393 563 l 159 0 l 5 0 z "},"З":{"ha":667,"x_min":35,"x_max":611,"o":"m 333 -12 q 128 64 198 -12 q 58 277 58 140 l 58 314 l 206 314 q 207 275 206 286 q 237 153 210 195 q 333 111 264 111 q 398 125 372 111 q 438 168 425 139 q 457 232 452 197 q 462 317 462 267 q 453 398 462 363 q 424 461 444 433 q 366 507 403 490 q 276 528 329 524 q 234 529 266 529 l 234 649 q 273 650 264 649 q 419 703 377 656 q 462 844 462 751 q 327 1014 462 1014 q 184 846 194 1014 q 183 810 183 835 l 35 810 l 35 848 q 110 1059 35 983 q 321 1135 184 1135 q 535 1058 458 1135 q 611 844 611 980 q 568 680 611 745 q 450 594 525 616 q 569 499 527 569 q 611 317 611 429 q 333 -12 611 -12 z "},"И":{"ha":757,"x_min":88,"x_max":669,"o":"m 88 0 l 88 1124 l 226 1124 l 226 346 l 555 1124 l 669 1124 l 669 0 l 531 0 l 531 792 l 204 0 l 88 0 z "},"Й":{"ha":757,"x_min":88,"x_max":669,"o":"m 378 1218 q 183 1424 184 1218 l 270 1424 q 297 1331 271 1360 q 378 1302 324 1302 q 458 1331 431 1302 q 486 1424 485 1360 l 573 1424 q 378 1218 573 1218 m 88 0 l 88 1124 l 226 1124 l 226 346 l 555 1124 l 669 1124 l 669 0 l 531 0 l 531 792 l 204 0 l 88 0 z "},"К":{"ha":705,"x_min":88,"x_max":689,"o":"m 88 0 l 88 1124 l 245 1124 l 245 625 l 303 625 l 504 1124 l 661 1124 l 439 590 l 689 0 l 532 0 l 304 549 l 245 549 l 245 0 l 88 0 z "},"Л":{"ha":806,"x_min":3,"x_max":718,"o":"m 3 -1 l 3 117 q 44 118 28 116 q 79 129 60 120 q 111 154 98 137 q 136 200 123 171 q 157 274 149 230 q 173 380 165 318 q 186 526 180 443 l 223 1124 l 718 1124 l 718 0 l 562 0 l 562 1008 l 359 1008 l 332 526 q 317 360 326 429 q 294 226 309 291 q 256 120 279 161 q 198 48 233 79 q 115 6 163 18 q 3 -1 66 -5 z "},"М":{"ha":917,"x_min":85,"x_max":832,"o":"m 85 0 l 106 1124 l 247 1124 l 458 258 l 670 1124 l 811 1124 l 832 0 l 708 0 l 700 758 l 503 0 l 414 0 l 218 757 l 210 0 l 85 0 z "},"Н":{"ha":779,"x_min":88,"x_max":690,"o":"m 88 0 l 88 1124 l 245 1124 l 245 639 l 534 639 l 534 1124 l 690 1124 l 690 0 l 534 0 l 534 527 l 245 527 l 245 0 l 88 0 z "},"О":{"ha":749,"x_min":67,"x_max":682,"o":"m 374 -12 q 230 13 290 -12 q 135 87 170 38 q 83 201 100 136 q 67 353 67 266 l 67 779 q 139 1045 67 954 q 374 1135 210 1135 q 610 1044 538 1135 q 682 779 682 953 l 682 352 q 609 82 682 176 q 374 -12 537 -12 m 298 125 q 313 118 298 125 q 374 111 328 111 q 451 125 420 111 q 496 168 481 139 q 518 232 512 197 q 524 319 524 267 l 524 811 q 518 896 524 862 q 496 958 512 930 q 451 1000 481 987 q 374 1013 420 1013 q 298 1000 328 1013 q 252 958 268 987 q 231 896 237 930 q 225 811 225 862 l 225 319 q 231 232 225 267 q 252 168 237 197 q 298 125 268 139 z "},"П":{"ha":794,"x_min":88,"x_max":707,"o":"m 88 0 l 88 1124 l 707 1124 l 707 0 l 549 0 l 549 1013 l 245 1013 l 245 0 l 88 0 z "},"Р":{"ha":665,"x_min":88,"x_max":645,"o":"m 245 636 l 316 636 q 458 673 419 636 q 496 813 496 709 q 494 883 496 856 q 485 935 492 911 q 467 973 478 960 q 434 996 455 986 q 386 1008 414 1005 q 318 1012 359 1012 l 245 1012 l 245 636 m 88 0 l 88 1124 l 367 1124 q 579 1045 513 1124 q 645 814 645 966 q 574 600 645 677 q 368 524 503 524 l 245 524 l 245 0 l 88 0 z "},"С":{"ha":715,"x_min":67,"x_max":652,"o":"m 369 -12 q 246 7 299 -12 q 160 58 193 26 q 105 139 126 91 q 75 241 83 188 q 67 361 67 295 l 67 759 q 76 886 67 830 q 105 989 84 941 q 160 1069 126 1038 q 247 1118 194 1100 q 369 1135 299 1135 q 587 1053 521 1135 q 652 812 652 971 l 652 722 l 504 722 l 504 802 q 504 842 504 827 q 502 878 503 857 q 498 912 501 900 q 491 941 496 924 q 480 966 487 957 q 463 986 473 975 q 440 1001 453 996 q 410 1010 427 1006 q 370 1013 392 1013 q 313 1006 338 1013 q 273 984 289 999 q 248 950 258 968 q 233 903 238 932 q 227 847 229 874 q 225 781 225 821 l 225 336 q 257 160 225 210 q 370 111 289 111 q 424 117 401 111 q 461 140 447 124 q 485 172 476 155 q 498 218 494 189 q 503 271 502 247 q 504 335 504 296 l 504 418 l 652 418 l 652 334 q 644 219 652 270 q 616 124 636 168 q 565 50 597 79 q 484 4 533 21 q 369 -12 434 -12 z "},"Т":{"ha":556,"x_min":-2,"x_max":558,"o":"m 203 0 l 203 1008 l -2 1008 l -2 1124 l 558 1124 l 558 1008 l 360 1008 l 360 0 l 203 0 z "},"У":{"ha":627,"x_min":26,"x_max":612,"o":"m 74 -170 l 74 -50 q 210 -44 168 -59 q 256 14 251 -28 q 248 125 260 56 l 26 1124 l 175 1124 l 270 646 l 327 290 l 376 644 l 461 1124 l 612 1124 l 410 123 q 398 59 406 100 q 373 -58 383 -24 q 329 -127 362 -92 q 237 -169 296 -162 q 74 -170 178 -176 z "},"Ф":{"ha":920,"x_min":67,"x_max":852,"o":"m 564 231 q 629 235 604 229 q 671 252 655 240 q 696 291 688 264 q 707 349 704 317 q 709 432 709 380 l 709 713 q 708 784 709 756 q 701 838 706 812 q 686 878 695 864 q 660 902 676 892 q 620 915 643 912 q 564 916 597 918 q 550 916 563 916 q 536 916 537 916 l 536 232 q 550 232 537 232 q 564 231 564 231 m 355 231 q 367 232 356 231 q 379 232 378 232 l 379 916 q 367 916 378 916 q 356 916 357 916 q 300 915 323 918 q 260 902 277 912 q 234 878 243 892 q 219 838 224 864 q 212 784 214 812 q 210 713 210 756 l 210 432 q 213 349 210 380 q 224 291 216 317 q 248 252 232 264 q 290 235 264 240 q 355 231 316 229 m 379 -50 l 379 138 q 354 138 378 138 q 330 137 331 137 q 134 196 200 125 q 67 432 67 267 l 67 713 q 134 948 67 878 q 333 1010 200 1018 l 355 1010 q 379 1010 378 1010 l 379 1226 l 536 1226 l 536 1010 q 562 1010 537 1010 q 589 1010 587 1010 q 786 948 720 1019 q 852 713 852 878 l 852 432 q 786 196 852 267 q 589 137 720 125 q 563 138 588 137 q 536 138 537 138 l 536 -50 l 379 -50 z "},"Х":{"ha":669,"x_min":18,"x_max":652,"o":"m 18 0 l 252 589 l 22 1124 l 168 1124 l 338 728 l 494 1124 l 640 1124 l 404 576 l 652 0 l 505 0 l 323 423 l 163 0 l 18 0 z "},"Ц":{"ha":863,"x_min":88,"x_max":828,"o":"m 707 -205 l 694 0 l 88 0 l 88 1124 l 245 1124 l 245 112 l 564 112 l 564 1124 l 721 1124 l 721 112 l 828 112 l 828 -205 l 707 -205 z "},"Ч":{"ha":747,"x_min":68,"x_max":659,"o":"m 502 0 l 502 519 q 336 498 410 498 q 68 760 68 498 l 68 1124 l 210 1124 l 210 760 q 246 639 210 677 q 367 601 282 601 q 502 618 422 601 l 502 1124 l 659 1124 l 659 0 l 502 0 z "},"Ш":{"ha":1042,"x_min":88,"x_max":954,"o":"m 88 0 l 88 1124 l 245 1124 l 245 113 l 448 113 l 448 1124 l 604 1124 l 604 113 l 797 113 l 797 1124 l 954 1124 l 954 0 l 88 0 z "},"Щ":{"ha":1097,"x_min":88,"x_max":1062,"o":"m 941 -205 l 928 0 l 88 0 l 88 1124 l 245 1124 l 245 112 l 448 112 l 448 1124 l 604 1124 l 604 112 l 798 112 l 798 1124 l 955 1124 l 955 112 l 1062 112 l 1062 -205 l 941 -205 z "},"Ъ":{"ha":788,"x_min":7,"x_max":751,"o":"m 346 113 l 398 113 q 489 121 454 113 q 551 152 524 129 q 590 219 578 176 q 602 331 602 262 q 557 495 602 447 q 395 543 511 543 l 346 543 l 346 113 m 189 0 l 189 1006 l 7 1006 l 7 1124 l 346 1124 l 346 656 l 389 656 q 549 642 484 656 q 661 590 614 627 q 729 489 707 553 q 751 330 751 425 q 666 78 751 157 q 397 0 581 0 l 189 0 z "},"Ы":{"ha":1010,"x_min":88,"x_max":922,"o":"m 766 0 l 766 1124 l 922 1124 l 922 0 l 766 0 m 245 113 l 296 113 q 388 121 353 113 q 450 152 423 129 q 489 219 477 176 q 501 331 501 262 q 456 495 501 447 q 294 543 410 543 l 245 543 l 245 113 m 88 0 l 88 1124 l 245 1124 l 245 656 l 288 656 q 448 642 383 656 q 559 590 513 627 q 628 489 606 553 q 649 330 649 425 q 564 78 649 157 q 296 0 479 0 l 88 0 z "},"Ь":{"ha":686,"x_min":88,"x_max":649,"o":"m 245 113 l 296 113 q 388 121 353 113 q 450 152 423 129 q 489 219 477 176 q 501 331 501 262 q 456 495 501 447 q 294 543 410 543 l 245 543 l 245 113 m 88 0 l 88 1124 l 245 1124 l 245 656 l 288 656 q 448 642 383 656 q 559 590 513 627 q 628 489 606 553 q 649 330 649 425 q 564 78 649 157 q 296 0 479 0 l 88 0 z "},"Э":{"ha":721,"x_min":68,"x_max":654,"o":"m 353 3 q 134 85 200 3 q 68 327 68 168 l 68 382 l 217 382 l 217 338 q 217 297 217 312 q 219 261 218 283 q 222 227 220 239 q 230 198 225 215 q 241 173 234 182 q 258 153 248 163 q 281 138 268 143 q 312 129 294 132 q 351 125 330 125 q 417 137 390 125 q 459 166 444 149 q 483 216 475 184 q 493 279 491 248 q 496 358 496 310 l 496 536 l 298 536 l 298 639 l 496 639 l 496 803 q 464 979 496 929 q 351 1028 432 1028 q 304 1022 325 1028 q 269 1007 283 1017 q 245 982 255 998 q 230 949 235 965 q 221 906 224 932 q 218 859 218 880 q 217 804 217 838 l 217 756 l 68 756 l 68 805 q 77 920 68 869 q 105 1015 85 971 q 157 1088 125 1059 q 238 1134 189 1118 q 353 1151 288 1151 q 475 1132 422 1151 q 562 1080 528 1113 q 616 1000 595 1048 q 646 898 637 951 q 654 778 654 844 l 654 380 q 640 224 654 290 q 593 107 626 159 q 500 30 559 56 q 353 3 440 3 z "},"Ю":{"ha":999,"x_min":88,"x_max":932,"o":"m 574 125 q 588 118 574 125 q 647 111 603 111 q 720 125 691 111 q 764 168 749 139 q 785 233 779 197 q 791 319 791 268 l 791 811 q 785 896 791 861 q 764 958 779 930 q 720 1000 749 986 q 647 1013 691 1013 q 574 1000 603 1013 q 530 958 545 986 q 509 896 515 930 q 503 811 503 861 l 503 319 q 509 233 503 268 q 530 168 515 197 q 574 125 545 139 m 782 14 q 754 1 782 14 q 647 -12 726 -12 q 511 13 568 -12 q 423 89 455 39 q 376 203 391 138 q 362 356 362 269 l 362 515 l 235 515 l 235 0 l 88 0 l 88 1124 l 235 1124 l 235 634 l 362 634 l 362 774 q 376 926 362 861 q 423 1038 391 990 q 512 1111 456 1086 q 647 1135 568 1135 q 782 1111 726 1135 q 870 1037 838 1086 q 917 925 903 989 q 932 774 932 861 l 932 356 q 917 204 932 269 q 870 89 903 139 q 782 14 838 39 z "},"Я":{"ha":758,"x_min":18,"x_max":670,"o":"m 454 580 l 513 580 l 513 1012 l 450 1012 q 290 965 342 1012 q 238 815 238 918 q 288 636 238 693 q 454 580 337 580 m 18 0 l 254 506 q 133 618 177 540 q 90 814 90 697 q 442 1124 90 1124 l 670 1124 l 670 0 l 513 0 l 513 467 l 423 467 q 406 468 422 467 q 388 468 390 468 l 193 0 l 18 0 z "},"а":{"ha":591,"x_min":58,"x_max":537,"o":"m 278 117 q 334 140 307 117 q 375 184 361 162 l 375 411 q 272 346 297 367 q 207 220 207 293 q 225 144 207 172 q 278 117 243 117 m 219 -12 q 104 45 151 -12 q 58 175 58 102 q 76 278 58 232 q 116 353 95 325 q 189 413 137 382 q 269 456 241 444 q 369 498 298 469 q 375 501 373 500 l 375 559 q 359 670 375 637 q 294 703 343 703 q 210 589 210 703 l 210 549 l 63 554 q 64 584 63 566 q 132 759 71 704 q 304 814 192 814 q 472 750 420 814 q 524 559 524 687 l 524 193 q 537 0 524 102 l 401 0 q 382 119 387 67 q 324 26 365 64 q 219 -12 283 -12 z "},"б":{"ha":608,"x_min":73,"x_max":548,"o":"m 312 98 q 378 134 358 99 q 399 250 399 168 l 399 494 q 382 602 399 570 q 328 634 366 634 q 221 593 280 634 l 221 262 q 241 136 221 173 q 312 98 262 98 m 298 -12 q 132 59 191 -12 q 73 267 73 131 l 73 683 q 76 826 73 766 q 89 930 79 886 q 109 1001 98 974 q 141 1048 121 1029 q 182 1078 161 1068 q 236 1097 203 1088 q 301 1113 269 1107 q 380 1134 332 1120 q 473 1165 428 1147 l 509 1044 q 423 1013 466 1025 q 353 997 380 1000 q 302 987 327 994 q 263 971 277 981 q 239 939 250 962 q 225 880 229 917 q 221 784 221 844 l 221 690 q 366 736 293 736 q 436 722 404 736 q 494 674 468 707 q 534 585 519 642 q 548 448 548 527 l 548 296 q 536 168 548 222 q 503 79 524 113 q 449 24 481 45 q 381 -4 416 4 q 298 -12 345 -12 z "},"в":{"ha":576,"x_min":75,"x_max":536,"o":"m 220 479 l 293 479 q 362 506 338 479 q 386 593 386 532 q 358 671 386 648 q 278 694 331 694 l 220 694 l 220 479 m 220 112 l 273 112 q 359 139 329 112 q 390 239 390 165 q 387 292 390 269 q 375 329 383 315 q 359 352 368 343 q 336 366 351 361 q 310 371 322 370 q 280 372 298 372 l 220 372 l 220 112 m 75 0 l 75 803 l 300 803 q 402 787 359 803 q 469 744 445 772 q 504 684 493 717 q 516 611 515 651 q 494 501 517 545 q 412 438 471 456 q 536 234 536 413 q 525 138 536 178 q 489 65 514 97 q 418 16 463 33 q 307 0 372 0 l 75 0 z "},"г":{"ha":403,"x_min":75,"x_max":398,"o":"m 75 0 l 75 803 l 398 803 l 398 696 l 224 696 l 224 0 l 75 0 z "},"д":{"ha":689,"x_min":3,"x_max":661,"o":"m 148 106 l 421 106 l 421 696 l 316 696 l 314 667 q 300 424 313 526 q 262 260 287 322 q 211 165 237 199 q 148 106 185 131 m 3 -205 l 3 99 q 80 176 47 133 q 140 287 112 218 q 182 457 168 355 q 198 698 197 560 l 201 803 l 564 803 l 564 106 l 661 106 l 661 -205 l 553 -205 l 541 0 l 124 0 l 111 -205 l 3 -205 z "},"е":{"ha":585,"x_min":60,"x_max":526,"o":"m 209 479 l 379 479 l 379 552 q 377 606 379 584 q 371 648 376 627 q 357 680 366 668 q 333 698 348 691 q 296 705 317 705 q 226 667 243 705 q 209 523 209 629 l 209 479 m 298 -12 q 180 8 227 -12 q 107 71 134 28 q 71 170 81 113 q 60 309 60 227 l 60 493 q 72 634 60 576 q 109 733 83 691 q 182 794 136 774 q 297 814 229 814 q 373 806 340 814 q 430 783 406 798 q 471 745 454 769 q 499 694 488 721 q 515 629 509 667 q 524 553 522 591 q 526 464 526 515 l 525 399 l 209 399 l 209 292 q 209 283 209 289 q 209 233 209 249 q 212 190 210 216 q 220 151 214 164 q 235 124 225 138 q 259 104 244 110 q 296 98 275 98 q 362 131 345 98 q 379 231 379 164 l 379 279 l 524 279 l 524 248 q 298 -12 524 -12 z "},"ж":{"ha":804,"x_min":5,"x_max":799,"o":"m 5 0 l 208 410 l 18 803 l 159 803 l 330 416 l 341 416 l 341 803 l 464 803 l 464 416 l 475 416 l 644 803 l 786 803 l 597 410 l 799 0 l 661 0 l 475 394 l 464 394 l 464 0 l 341 0 l 341 394 l 330 394 l 143 0 l 5 0 z "},"з":{"ha":520,"x_min":40,"x_max":476,"o":"m 264 -14 q 102 50 154 -14 q 50 246 50 113 l 177 246 q 199 129 177 165 q 267 92 222 92 q 310 102 293 92 q 334 135 326 113 q 343 180 341 157 q 346 240 346 203 q 313 339 345 316 q 184 361 280 361 l 184 467 q 311 494 277 467 q 346 591 345 522 q 322 676 347 648 q 258 705 298 705 q 190 676 213 705 q 167 572 167 647 l 40 572 q 98 758 40 701 q 264 814 155 814 q 360 796 318 814 q 426 747 401 778 q 463 679 451 716 q 475 600 475 642 q 463 514 475 550 q 429 458 450 477 q 386 429 408 438 q 340 417 364 419 q 367 411 357 413 q 393 401 376 408 q 419 386 410 394 q 441 363 429 378 q 460 329 453 348 q 471 282 467 310 q 476 219 476 254 q 424 46 477 105 q 264 -14 370 -14 z "},"и":{"ha":634,"x_min":75,"x_max":559,"o":"m 75 0 l 75 803 l 200 803 l 200 263 l 442 803 l 559 803 l 559 0 l 436 0 l 436 545 l 195 0 l 75 0 z "},"й":{"ha":634,"x_min":75,"x_max":559,"o":"m 317 897 q 122 1103 123 897 l 209 1103 q 236 1009 210 1038 q 317 981 263 981 q 397 1010 370 981 q 425 1103 424 1039 l 512 1103 q 317 897 512 897 m 75 0 l 75 803 l 200 803 l 200 263 l 442 803 l 559 803 l 559 0 l 436 0 l 436 545 l 195 0 l 75 0 z "},"к":{"ha":576,"x_min":75,"x_max":572,"o":"m 75 0 l 75 803 l 224 803 l 224 465 l 266 465 l 416 803 l 570 803 l 401 414 l 572 0 l 416 0 l 265 375 l 224 375 l 224 0 l 75 0 z "},"л":{"ha":673,"x_min":24,"x_max":598,"o":"m 24 -7 l 24 105 q 61 109 45 105 q 90 122 77 112 q 112 144 103 132 q 128 179 121 155 q 140 224 135 202 q 148 286 144 246 q 154 361 152 326 q 160 454 157 396 l 178 803 l 598 803 l 598 0 l 450 0 l 450 690 l 308 690 l 296 454 q 284 291 291 357 q 265 171 278 226 q 235 85 252 117 q 190 31 218 53 q 126 1 161 9 q 40 -7 91 -7 l 24 -7 z "},"м":{"ha":734,"x_min":71,"x_max":664,"o":"m 71 0 l 79 803 l 189 803 l 367 310 l 546 803 l 655 803 l 664 0 l 539 0 l 539 479 l 390 79 l 345 79 l 195 477 l 195 0 l 71 0 z "},"н":{"ha":637,"x_min":75,"x_max":562,"o":"m 75 0 l 75 803 l 224 803 l 224 466 l 414 466 l 414 803 l 562 803 l 562 0 l 414 0 l 414 357 l 224 357 l 224 0 l 75 0 z "},"о":{"ha":589,"x_min":60,"x_max":528,"o":"m 294 -12 q 183 9 229 -12 q 111 69 137 29 q 72 162 84 109 q 60 285 60 214 l 60 517 q 72 641 60 588 q 111 733 84 693 q 183 793 137 773 q 294 814 229 814 q 475 738 421 814 q 528 517 528 662 l 528 285 q 475 64 528 140 q 294 -12 421 -12 m 294 98 q 330 104 315 98 q 354 125 345 111 q 368 152 363 139 q 376 190 374 165 q 379 230 378 215 q 379 275 379 245 l 379 527 q 379 566 379 553 q 377 601 378 578 q 373 635 376 623 q 363 663 370 647 q 348 686 357 678 q 326 699 339 693 q 294 705 312 705 q 263 699 277 705 q 240 686 249 693 q 225 663 231 678 q 215 635 218 647 q 211 601 212 623 q 209 566 210 578 q 209 527 209 553 l 209 275 q 209 237 209 250 q 211 201 210 224 q 215 167 212 179 q 225 140 218 155 q 240 117 231 125 q 263 104 249 109 q 294 98 277 98 z "},"п":{"ha":616,"x_min":75,"x_max":541,"o":"m 75 0 l 75 803 l 541 803 l 541 0 l 393 0 l 393 690 l 224 690 l 224 0 l 75 0 z "},"р":{"ha":620,"x_min":75,"x_max":559,"o":"m 330 106 q 363 113 349 106 q 385 135 376 119 q 399 167 394 151 q 407 211 405 183 q 410 260 410 238 q 411 317 411 283 l 411 512 q 409 570 411 546 q 402 620 408 595 q 388 662 397 646 q 363 687 379 677 q 325 697 347 697 q 224 656 274 697 l 224 141 q 330 106 273 106 m 75 -264 l 75 803 l 224 803 l 224 739 q 376 814 288 814 q 448 799 416 814 q 498 756 479 783 q 531 700 517 730 q 550 632 544 669 q 557 568 555 595 q 559 512 559 541 l 559 318 q 360 -12 559 -12 q 224 60 288 -12 l 224 -264 l 75 -264 z "},"с":{"ha":570,"x_min":60,"x_max":513,"o":"m 294 -12 q 194 4 236 -12 q 127 45 153 19 q 86 113 101 71 q 66 200 71 155 q 60 308 60 245 l 60 494 q 70 629 60 574 q 104 728 79 684 q 176 793 130 772 q 294 814 223 814 q 402 798 359 814 q 470 749 446 783 q 504 671 494 716 q 513 562 513 627 l 513 513 l 379 513 l 379 562 q 361 673 379 642 q 296 705 344 705 q 225 667 242 705 q 209 524 209 629 l 209 271 q 228 134 209 170 q 297 98 246 98 q 334 105 319 98 q 358 124 349 113 q 372 154 367 135 q 378 192 376 173 q 379 238 379 210 l 379 303 l 513 303 l 513 248 q 503 138 513 183 q 469 57 493 92 q 401 5 444 22 q 294 -12 358 -12 z "},"т":{"ha":480,"x_min":15,"x_max":466,"o":"m 165 0 l 165 692 l 15 692 l 15 803 l 466 803 l 466 692 l 313 692 l 313 0 l 165 0 z "},"у":{"ha":551,"x_min":22,"x_max":524,"o":"m 68 -205 l 68 -82 q 127 -77 104 -81 q 168 -64 151 -73 q 191 -37 184 -54 q 197 5 197 -20 q 189 66 197 30 l 22 803 l 160 803 l 239 385 l 280 132 l 313 385 l 379 803 l 524 803 l 350 -2 q 320 -90 339 -54 q 278 -148 301 -126 q 220 -183 254 -170 q 151 -200 185 -195 q 68 -205 116 -204 z "},"ф":{"ha":842,"x_min":60,"x_max":781,"o":"m 497 150 q 611 194 574 150 q 648 353 648 238 l 648 518 q 637 604 648 569 q 607 657 627 639 q 562 684 587 676 q 501 691 536 691 l 488 691 l 488 150 l 497 150 m 342 150 l 351 150 l 351 691 l 338 691 q 230 654 267 691 q 194 518 194 616 l 194 353 q 230 194 194 237 q 342 150 265 150 m 351 -264 l 351 45 l 338 45 q 284 48 310 45 q 230 60 259 51 q 178 83 201 69 q 132 121 154 98 q 94 176 109 145 q 70 253 79 208 q 60 352 60 298 l 60 496 q 82 629 60 572 q 141 721 103 686 q 228 772 180 755 q 333 789 276 789 l 351 789 l 351 1124 l 488 1124 l 488 789 l 513 789 q 706 716 631 789 q 781 496 781 644 l 781 352 q 508 45 781 45 l 488 45 l 488 -264 l 351 -264 z "},"х":{"ha":540,"x_min":13,"x_max":530,"o":"m 13 0 l 193 422 l 16 803 l 159 803 l 276 549 l 380 803 l 526 803 l 343 404 l 530 0 l 388 0 l 262 273 l 153 0 l 13 0 z "},"ц":{"ha":674,"x_min":75,"x_max":662,"o":"m 554 -205 l 542 0 l 75 0 l 75 803 l 224 803 l 224 106 l 417 106 l 417 803 l 565 803 l 565 106 l 662 106 l 662 -205 l 554 -205 z "},"ч":{"ha":601,"x_min":52,"x_max":526,"o":"m 377 0 l 377 319 q 269 310 311 310 q 184 319 221 310 q 116 350 147 328 q 68 412 85 372 q 52 510 52 452 l 52 803 l 200 803 l 200 508 q 222 439 200 462 q 304 416 245 416 q 377 422 336 416 l 377 803 l 526 803 l 526 0 l 377 0 z "},"ш":{"ha":867,"x_min":75,"x_max":793,"o":"m 75 0 l 75 803 l 218 803 l 218 106 l 359 106 l 359 803 l 503 803 l 503 106 l 649 106 l 649 803 l 793 803 l 793 0 l 75 0 z "},"щ":{"ha":931,"x_min":75,"x_max":890,"o":"m 783 -205 l 770 0 l 75 0 l 75 803 l 218 803 l 218 106 l 359 106 l 359 803 l 503 803 l 503 106 l 650 106 l 650 803 l 793 803 l 793 106 l 890 106 l 890 -205 l 783 -205 z "},"ъ":{"ha":667,"x_min":-5,"x_max":635,"o":"m 309 87 l 318 87 q 463 118 425 87 q 502 237 502 149 q 487 322 502 292 q 434 368 473 353 q 324 383 396 382 l 309 383 l 309 87 m 161 0 l 161 693 l -5 693 l -5 803 l 309 803 l 309 471 l 333 471 q 449 464 401 470 q 534 441 497 457 q 592 399 571 426 q 625 333 614 372 q 635 237 635 293 q 565 53 635 105 q 318 0 494 0 l 161 0 z "},"ы":{"ha":865,"x_min":75,"x_max":790,"o":"m 642 0 l 642 803 l 790 803 l 790 0 l 642 0 m 224 87 l 233 87 q 378 118 339 87 q 416 237 416 149 q 380 351 416 319 q 239 383 344 382 l 224 383 l 224 87 m 75 0 l 75 803 l 224 803 l 224 471 l 248 471 q 388 460 334 470 q 480 423 442 450 q 534 352 519 397 q 550 237 550 307 q 479 53 550 105 q 233 0 409 0 l 75 0 z "},"ь":{"ha":576,"x_min":75,"x_max":550,"o":"m 224 87 l 233 87 q 378 118 339 87 q 416 237 416 149 q 380 351 416 319 q 239 383 344 382 l 224 383 l 224 87 m 75 0 l 75 803 l 224 803 l 224 471 l 248 471 q 388 460 334 470 q 480 423 442 450 q 534 352 519 397 q 550 237 550 307 q 479 53 550 105 q 233 0 409 0 l 75 0 z "}}}
